<?xml version="1.0" encoding="UTF-8" standalone="no"?><!DOCTYPE svg PUBLIC "-//W3C//DTD SVG 1.1//EN" "http://www.w3.org/Graphics/SVG/1.1/DTD/svg11.dtd"><svg width="100%" height="100%" viewBox="0 0 6215 3629" version="1.1" xmlns="http://www.w3.org/2000/svg" xmlns:xlink="http://www.w3.org/1999/xlink" xml:space="preserve" xmlns:serif="http://www.serif.com/" style="fill-rule:evenodd;clip-rule:evenodd;stroke-linejoin:round;stroke-miterlimit:10;"><rect x="558.685" y="293.872" width="5609.17" height="3005.43" style="fill:#fff;"/><path d="M558.685,3299.3l0,44.23" style="fill:none;fill-rule:nonzero;stroke:#212121;stroke-width:9.21px;"/><path d="M1360,3299.3l-0,44.23" style="fill:none;fill-rule:nonzero;stroke:#212121;stroke-width:9.21px;"/><path d="M2161.3,3299.3l-0,44.23" style="fill:none;fill-rule:nonzero;stroke:#212121;stroke-width:9.21px;"/><path d="M2962.61,3299.3l0,44.23" style="fill:none;fill-rule:nonzero;stroke:#212121;stroke-width:9.21px;"/><path d="M3763.92,3299.3l0,44.23" style="fill:none;fill-rule:nonzero;stroke:#212121;stroke-width:9.21px;"/><path d="M4565.23,3299.3l-0,44.23" style="fill:none;fill-rule:nonzero;stroke:#212121;stroke-width:9.21px;"/><path d="M5366.54,3299.3l-0,44.23" style="fill:none;fill-rule:nonzero;stroke:#212121;stroke-width:9.21px;"/><path d="M6167.85,3299.3l0,44.23" style="fill:none;fill-rule:nonzero;stroke:#212121;stroke-width:9.21px;"/><path d="M759.013,3299.3l-0,29.486" style="fill:none;fill-rule:nonzero;stroke:#212121;stroke-width:7.37px;"/><path d="M959.34,3299.3l0,29.486" style="fill:none;fill-rule:nonzero;stroke:#212121;stroke-width:7.37px;"/><path d="M1159.67,3299.3l0,29.486" style="fill:none;fill-rule:nonzero;stroke:#212121;stroke-width:7.37px;"/><path d="M1560.32,3299.3l0,29.486" style="fill:none;fill-rule:nonzero;stroke:#212121;stroke-width:7.37px;"/><path d="M1760.65,3299.3l-0,29.486" style="fill:none;fill-rule:nonzero;stroke:#212121;stroke-width:7.37px;"/><path d="M1960.98,3299.3l0,29.486" style="fill:none;fill-rule:nonzero;stroke:#212121;stroke-width:7.37px;"/><path d="M2361.63,3299.3l0,29.486" style="fill:none;fill-rule:nonzero;stroke:#212121;stroke-width:7.37px;"/><path d="M2561.96,3299.3l0,29.486" style="fill:none;fill-rule:nonzero;stroke:#212121;stroke-width:7.37px;"/><path d="M2762.29,3299.3l-0,29.486" style="fill:none;fill-rule:nonzero;stroke:#212121;stroke-width:7.37px;"/><path d="M3162.94,3299.3l-0,29.486" style="fill:none;fill-rule:nonzero;stroke:#212121;stroke-width:7.37px;"/><path d="M3363.27,3299.3l0,29.486" style="fill:none;fill-rule:nonzero;stroke:#212121;stroke-width:7.37px;"/><path d="M3563.6,3299.3l-0,29.486" style="fill:none;fill-rule:nonzero;stroke:#212121;stroke-width:7.37px;"/><path d="M3964.25,3299.3l-0,29.486" style="fill:none;fill-rule:nonzero;stroke:#212121;stroke-width:7.37px;"/><path d="M4164.58,3299.3l-0,29.486" style="fill:none;fill-rule:nonzero;stroke:#212121;stroke-width:7.37px;"/><path d="M4364.91,3299.3l0,29.486" style="fill:none;fill-rule:nonzero;stroke:#212121;stroke-width:7.37px;"/><path d="M4765.56,3299.3l0,29.486" style="fill:none;fill-rule:nonzero;stroke:#212121;stroke-width:7.37px;"/><path d="M4965.89,3299.3l-0,29.486" style="fill:none;fill-rule:nonzero;stroke:#212121;stroke-width:7.37px;"/><path d="M5166.22,3299.3l0,29.486" style="fill:none;fill-rule:nonzero;stroke:#212121;stroke-width:7.37px;"/><path d="M5566.87,3299.3l0,29.486" style="fill:none;fill-rule:nonzero;stroke:#212121;stroke-width:7.37px;"/><path d="M5767.2,3299.3l0,29.486" style="fill:none;fill-rule:nonzero;stroke:#212121;stroke-width:7.37px;"/><path d="M5967.53,3299.3l0,29.486" style="fill:none;fill-rule:nonzero;stroke:#212121;stroke-width:7.37px;"/><path d="M558.685,3299.3l-44.23,-0" style="fill:none;fill-rule:nonzero;stroke:#212121;stroke-width:9.21px;"/><path d="M558.685,2776.62l-44.23,-0" style="fill:none;fill-rule:nonzero;stroke:#212121;stroke-width:9.21px;"/><path d="M558.685,2253.93l-44.23,0" style="fill:none;fill-rule:nonzero;stroke:#212121;stroke-width:9.21px;"/><path d="M558.685,1731.25l-44.23,0" style="fill:none;fill-rule:nonzero;stroke:#212121;stroke-width:9.21px;"/><path d="M558.685,1208.57l-44.23,-0" style="fill:none;fill-rule:nonzero;stroke:#212121;stroke-width:9.21px;"/><path d="M558.685,685.885l-44.23,-0" style="fill:none;fill-rule:nonzero;stroke:#212121;stroke-width:9.21px;"/><path d="M558.685,3168.63l-29.486,-0" style="fill:none;fill-rule:nonzero;stroke:#212121;stroke-width:7.37px;"/><path d="M558.685,3037.96l-29.486,0" style="fill:none;fill-rule:nonzero;stroke:#212121;stroke-width:7.37px;"/><path d="M558.685,2907.29l-29.486,0" style="fill:none;fill-rule:nonzero;stroke:#212121;stroke-width:7.37px;"/><path d="M558.685,2645.95l-29.486,-0" style="fill:none;fill-rule:nonzero;stroke:#212121;stroke-width:7.37px;"/><path d="M558.685,2515.28l-29.486,-0" style="fill:none;fill-rule:nonzero;stroke:#212121;stroke-width:7.37px;"/><path d="M558.685,2384.61l-29.486,0" style="fill:none;fill-rule:nonzero;stroke:#212121;stroke-width:7.37px;"/><path d="M558.685,2123.26l-29.486,0" style="fill:none;fill-rule:nonzero;stroke:#212121;stroke-width:7.37px;"/><path d="M558.685,1992.59l-29.486,-0" style="fill:none;fill-rule:nonzero;stroke:#212121;stroke-width:7.37px;"/><path d="M558.685,1861.92l-29.486,-0" style="fill:none;fill-rule:nonzero;stroke:#212121;stroke-width:7.37px;"/><path d="M558.685,1600.58l-29.486,0" style="fill:none;fill-rule:nonzero;stroke:#212121;stroke-width:7.37px;"/><path d="M558.685,1469.91l-29.486,0" style="fill:none;fill-rule:nonzero;stroke:#212121;stroke-width:7.37px;"/><path d="M558.685,1339.24l-29.486,-0" style="fill:none;fill-rule:nonzero;stroke:#212121;stroke-width:7.37px;"/><path d="M558.685,1077.9l-29.486,0" style="fill:none;fill-rule:nonzero;stroke:#212121;stroke-width:7.37px;"/><path d="M558.685,947.226l-29.486,0" style="fill:none;fill-rule:nonzero;stroke:#212121;stroke-width:7.37px;"/><path d="M558.685,816.555l-29.486,0" style="fill:none;fill-rule:nonzero;stroke:#212121;stroke-width:7.37px;"/><path d="M558.685,555.214l-29.486,-0" style="fill:none;fill-rule:nonzero;stroke:#212121;stroke-width:7.37px;"/><path d="M558.685,424.543l-29.486,-0" style="fill:none;fill-rule:nonzero;stroke:#212121;stroke-width:7.37px;"/><g><clipPath id="_clip1"><rect x="558.685" y="293.872" width="5609.17" height="3005.43" clip-rule="nonzero"/></clipPath><g clip-path="url(#_clip1)"><path d="M963.632,3299.3l-0,-387.67" style="fill:none;fill-rule:nonzero;stroke:#1b1b1b;stroke-width:11.06px;stroke-linecap:round;"/><clipPath id="_clip2"><path d="M558.685,3299.3l5609.17,-0l-0,-3005.43l-5609.17,0l0,3005.43Z" clip-rule="nonzero"/></clipPath><g clip-path="url(#_clip2)"><path d="M1039.8,3299.3l-0,-320.3" style="fill:none;fill-rule:nonzero;stroke:#1b1b1b;stroke-width:11.06px;stroke-linecap:round;"/></g><clipPath id="_clip3"><path d="M558.685,3299.3l5609.17,-0l-0,-3005.43l-5609.17,0l0,3005.43Z" clip-rule="nonzero"/></clipPath><g clip-path="url(#_clip3)"><path d="M1075.94,3299.3l-0,-321.673" style="fill:none;fill-rule:nonzero;stroke:#1b1b1b;stroke-width:11.06px;stroke-linecap:round;"/></g><clipPath id="_clip4"><path d="M558.685,3299.3l5609.17,-0l-0,-3005.43l-5609.17,0l0,3005.43Z" clip-rule="nonzero"/></clipPath><g clip-path="url(#_clip4)"><path d="M1079.8,3299.3l0,-425.785" style="fill:none;fill-rule:nonzero;stroke:#1b1b1b;stroke-width:11.06px;stroke-linecap:round;"/></g><clipPath id="_clip5"><path d="M558.685,3299.3l5609.17,-0l-0,-3005.43l-5609.17,0l0,3005.43Z" clip-rule="nonzero"/></clipPath><g clip-path="url(#_clip5)"><path d="M1087.87,3299.3l-0,-199.703" style="fill:none;fill-rule:nonzero;stroke:#1b1b1b;stroke-width:11.06px;stroke-linecap:round;"/></g><clipPath id="_clip6"><path d="M558.685,3299.3l5609.17,-0l-0,-3005.43l-5609.17,0l0,3005.43Z" clip-rule="nonzero"/></clipPath><g clip-path="url(#_clip6)"><path d="M1103.88,3299.3l0,-148.735" style="fill:none;fill-rule:nonzero;stroke:#1b1b1b;stroke-width:11.06px;stroke-linecap:round;"/></g><clipPath id="_clip7"><path d="M558.685,3299.3l5609.17,-0l-0,-3005.43l-5609.17,0l0,3005.43Z" clip-rule="nonzero"/></clipPath><g clip-path="url(#_clip7)"><path d="M1200.11,3299.3l-0,-141.71" style="fill:none;fill-rule:nonzero;stroke:#1b1b1b;stroke-width:11.06px;stroke-linecap:round;"/></g><clipPath id="_clip8"><path d="M558.685,3299.3l5609.17,-0l-0,-3005.43l-5609.17,0l0,3005.43Z" clip-rule="nonzero"/></clipPath><g clip-path="url(#_clip8)"><path d="M1240.04,3299.3l0,-854.291" style="fill:none;fill-rule:nonzero;stroke:#1b1b1b;stroke-width:11.06px;stroke-linecap:round;"/></g><clipPath id="_clip9"><path d="M558.685,3299.3l5609.17,-0l-0,-3005.43l-5609.17,0l0,3005.43Z" clip-rule="nonzero"/></clipPath><g clip-path="url(#_clip9)"><path d="M1304.4,3299.3l0,-148.746" style="fill:none;fill-rule:nonzero;stroke:#1b1b1b;stroke-width:11.06px;stroke-linecap:round;"/></g><clipPath id="_clip10"><path d="M558.685,3299.3l5609.17,-0l-0,-3005.43l-5609.17,0l0,3005.43Z" clip-rule="nonzero"/></clipPath><g clip-path="url(#_clip10)"><path d="M1348.49,3299.3l-0,-196.281" style="fill:none;fill-rule:nonzero;stroke:#1b1b1b;stroke-width:11.06px;stroke-linecap:round;"/></g><clipPath id="_clip11"><path d="M558.685,3299.3l5609.17,-0l-0,-3005.43l-5609.17,0l0,3005.43Z" clip-rule="nonzero"/></clipPath><g clip-path="url(#_clip11)"><path d="M1416.48,3299.3l-0,-595.14" style="fill:none;fill-rule:nonzero;stroke:#1b1b1b;stroke-width:11.06px;stroke-linecap:round;"/></g><clipPath id="_clip12"><path d="M558.685,3299.3l5609.17,-0l-0,-3005.43l-5609.17,0l0,3005.43Z" clip-rule="nonzero"/></clipPath><g clip-path="url(#_clip12)"><path d="M1416.7,3299.3l-0,-216.998" style="fill:none;fill-rule:nonzero;stroke:#1b1b1b;stroke-width:11.06px;stroke-linecap:round;"/></g><clipPath id="_clip13"><path d="M558.685,3299.3l5609.17,-0l-0,-3005.43l-5609.17,0l0,3005.43Z" clip-rule="nonzero"/></clipPath><g clip-path="url(#_clip13)"><path d="M1492.87,3299.3l-0,-200.055" style="fill:none;fill-rule:nonzero;stroke:#1b1b1b;stroke-width:11.06px;stroke-linecap:round;"/></g><clipPath id="_clip14"><path d="M558.685,3299.3l5609.17,-0l-0,-3005.43l-5609.17,0l0,3005.43Z" clip-rule="nonzero"/></clipPath><g clip-path="url(#_clip14)"><path d="M1528.87,3299.3l-0,-292.595" style="fill:none;fill-rule:nonzero;stroke:#1b1b1b;stroke-width:11.06px;stroke-linecap:round;"/></g><clipPath id="_clip15"><path d="M558.685,3299.3l5609.17,-0l-0,-3005.43l-5609.17,0l0,3005.43Z" clip-rule="nonzero"/></clipPath><g clip-path="url(#_clip15)"><path d="M1532.71,3299.3l0,-343.085" style="fill:none;fill-rule:nonzero;stroke:#1b1b1b;stroke-width:11.06px;stroke-linecap:round;"/></g><clipPath id="_clip16"><path d="M558.685,3299.3l5609.17,-0l-0,-3005.43l-5609.17,0l0,3005.43Z" clip-rule="nonzero"/></clipPath><g clip-path="url(#_clip16)"><path d="M1605.03,3299.3l-0,-168.603" style="fill:none;fill-rule:nonzero;stroke:#1b1b1b;stroke-width:11.06px;stroke-linecap:round;"/></g><clipPath id="_clip17"><path d="M558.685,3299.3l5609.17,-0l-0,-3005.43l-5609.17,0l0,3005.43Z" clip-rule="nonzero"/></clipPath><g clip-path="url(#_clip17)"><path d="M1696.96,3299.3l0,-1676.56" style="fill:none;fill-rule:nonzero;stroke:#1b1b1b;stroke-width:11.06px;stroke-linecap:round;"/></g><clipPath id="_clip18"><path d="M558.685,3299.3l5609.17,-0l-0,-3005.43l-5609.17,0l0,3005.43Z" clip-rule="nonzero"/></clipPath><g clip-path="url(#_clip18)"><path d="M1700.98,3299.3l-0,-202.612" style="fill:none;fill-rule:nonzero;stroke:#1b1b1b;stroke-width:11.06px;stroke-linecap:round;"/></g><clipPath id="_clip19"><path d="M558.685,3299.3l5609.17,-0l-0,-3005.43l-5609.17,0l0,3005.43Z" clip-rule="nonzero"/></clipPath><g clip-path="url(#_clip19)"><path d="M1833.39,3299.3l-0,-161.163" style="fill:none;fill-rule:nonzero;stroke:#1b1b1b;stroke-width:11.06px;stroke-linecap:round;"/></g><clipPath id="_clip20"><path d="M558.685,3299.3l5609.17,-0l-0,-3005.43l-5609.17,0l0,3005.43Z" clip-rule="nonzero"/></clipPath><g clip-path="url(#_clip20)"><path d="M1937.71,3299.3l-0,-265.763" style="fill:none;fill-rule:nonzero;stroke:#1b1b1b;stroke-width:11.06px;stroke-linecap:round;"/></g><clipPath id="_clip21"><path d="M558.685,3299.3l5609.17,-0l-0,-3005.43l-5609.17,0l0,3005.43Z" clip-rule="nonzero"/></clipPath><g clip-path="url(#_clip21)"><path d="M1949.64,3299.3l0,-172.24" style="fill:none;fill-rule:nonzero;stroke:#1b1b1b;stroke-width:11.06px;stroke-linecap:round;"/></g><clipPath id="_clip22"><path d="M558.685,3299.3l5609.17,-0l-0,-3005.43l-5609.17,0l0,3005.43Z" clip-rule="nonzero"/></clipPath><g clip-path="url(#_clip22)"><path d="M1973.73,3299.3l-0,-377.062" style="fill:none;fill-rule:nonzero;stroke:#1b1b1b;stroke-width:11.06px;stroke-linecap:round;"/></g><clipPath id="_clip23"><path d="M558.685,3299.3l5609.17,-0l-0,-3005.43l-5609.17,0l0,3005.43Z" clip-rule="nonzero"/></clipPath><g clip-path="url(#_clip23)"><path d="M1985.79,3299.3l-0,-184.913" style="fill:none;fill-rule:nonzero;stroke:#1b1b1b;stroke-width:11.06px;stroke-linecap:round;"/></g><clipPath id="_clip24"><path d="M558.685,3299.3l5609.17,-0l-0,-3005.43l-5609.17,0l0,3005.43Z" clip-rule="nonzero"/></clipPath><g clip-path="url(#_clip24)"><path d="M2013.89,3299.3l-0,-237.392" style="fill:none;fill-rule:nonzero;stroke:#1b1b1b;stroke-width:11.06px;stroke-linecap:round;"/></g><clipPath id="_clip25"><path d="M558.685,3299.3l5609.17,-0l-0,-3005.43l-5609.17,0l0,3005.43Z" clip-rule="nonzero"/></clipPath><g clip-path="url(#_clip25)"><path d="M2029.67,3299.3l-0,-145.957" style="fill:none;fill-rule:nonzero;stroke:#1b1b1b;stroke-width:11.06px;stroke-linecap:round;"/></g><clipPath id="_clip26"><path d="M558.685,3299.3l5609.17,-0l-0,-3005.43l-5609.17,0l0,3005.43Z" clip-rule="nonzero"/></clipPath><g clip-path="url(#_clip26)"><path d="M2041.95,3299.3l0,-131.692" style="fill:none;fill-rule:nonzero;stroke:#1b1b1b;stroke-width:11.06px;stroke-linecap:round;"/></g><clipPath id="_clip27"><path d="M558.685,3299.3l5609.17,-0l-0,-3005.43l-5609.17,0l0,3005.43Z" clip-rule="nonzero"/></clipPath><g clip-path="url(#_clip27)"><path d="M2141.81,3299.3l-0,-510.039" style="fill:none;fill-rule:nonzero;stroke:#1b1b1b;stroke-width:11.06px;stroke-linecap:round;"/></g><clipPath id="_clip28"><path d="M558.685,3299.3l5609.17,-0l-0,-3005.43l-5609.17,0l0,3005.43Z" clip-rule="nonzero"/></clipPath><g clip-path="url(#_clip28)"><path d="M2210.03,3299.3l0,-699.019" style="fill:none;fill-rule:nonzero;stroke:#1b1b1b;stroke-width:11.06px;stroke-linecap:round;"/></g><clipPath id="_clip29"><path d="M558.685,3299.3l5609.17,-0l-0,-3005.43l-5609.17,0l0,3005.43Z" clip-rule="nonzero"/></clipPath><g clip-path="url(#_clip29)"><path d="M2258.33,3299.3l0,-218.941" style="fill:none;fill-rule:nonzero;stroke:#1b1b1b;stroke-width:11.06px;stroke-linecap:round;"/></g><clipPath id="_clip30"><path d="M558.685,3299.3l5609.17,-0l-0,-3005.43l-5609.17,0l0,3005.43Z" clip-rule="nonzero"/></clipPath><g clip-path="url(#_clip30)"><path d="M2414.51,3299.3l-0,-193.449" style="fill:none;fill-rule:nonzero;stroke:#1b1b1b;stroke-width:11.06px;stroke-linecap:round;"/></g><clipPath id="_clip31"><path d="M558.685,3299.3l5609.17,-0l-0,-3005.43l-5609.17,0l0,3005.43Z" clip-rule="nonzero"/></clipPath><g clip-path="url(#_clip31)"><path d="M2482.73,3299.3l0,-358.981" style="fill:none;fill-rule:nonzero;stroke:#1b1b1b;stroke-width:11.06px;stroke-linecap:round;"/></g><clipPath id="_clip32"><path d="M558.685,3299.3l5609.17,-0l-0,-3005.43l-5609.17,0l0,3005.43Z" clip-rule="nonzero"/></clipPath><g clip-path="url(#_clip32)"><path d="M2550.94,3299.3l-0,-241.731" style="fill:none;fill-rule:nonzero;stroke:#1b1b1b;stroke-width:11.06px;stroke-linecap:round;"/></g><clipPath id="_clip33"><path d="M558.685,3299.3l5609.17,-0l-0,-3005.43l-5609.17,0l0,3005.43Z" clip-rule="nonzero"/></clipPath><g clip-path="url(#_clip33)"><path d="M2554.96,3299.3l0,-176.317" style="fill:none;fill-rule:nonzero;stroke:#1b1b1b;stroke-width:11.06px;stroke-linecap:round;"/></g><clipPath id="_clip34"><path d="M558.685,3299.3l5609.17,-0l-0,-3005.43l-5609.17,0l0,3005.43Z" clip-rule="nonzero"/></clipPath><g clip-path="url(#_clip34)"><path d="M2663.1,3299.3l0,-251.141" style="fill:none;fill-rule:nonzero;stroke:#1b1b1b;stroke-width:11.06px;stroke-linecap:round;"/></g><clipPath id="_clip35"><path d="M558.685,3299.3l5609.17,-0l-0,-3005.43l-5609.17,0l0,3005.43Z" clip-rule="nonzero"/></clipPath><g clip-path="url(#_clip35)"><path d="M2683.23,3299.3l-0,-149.145" style="fill:none;fill-rule:nonzero;stroke:#1b1b1b;stroke-width:11.06px;stroke-linecap:round;"/></g><clipPath id="_clip36"><path d="M558.685,3299.3l5609.17,-0l-0,-3005.43l-5609.17,0l0,3005.43Z" clip-rule="nonzero"/></clipPath><g clip-path="url(#_clip36)"><path d="M2759.43,3299.3l-0,-383.531" style="fill:none;fill-rule:nonzero;stroke:#1b1b1b;stroke-width:11.06px;stroke-linecap:round;"/></g><clipPath id="_clip37"><path d="M558.685,3299.3l5609.17,-0l-0,-3005.43l-5609.17,0l0,3005.43Z" clip-rule="nonzero"/></clipPath><g clip-path="url(#_clip37)"><path d="M2799.53,3299.3l0,-320.281" style="fill:none;fill-rule:nonzero;stroke:#1b1b1b;stroke-width:11.06px;stroke-linecap:round;"/></g><clipPath id="_clip38"><path d="M558.685,3299.3l5609.17,-0l-0,-3005.43l-5609.17,0l0,3005.43Z" clip-rule="nonzero"/></clipPath><g clip-path="url(#_clip38)"><path d="M2801.53,3299.3l0,-166.904" style="fill:none;fill-rule:nonzero;stroke:#1b1b1b;stroke-width:11.06px;stroke-linecap:round;"/></g><clipPath id="_clip39"><path d="M558.685,3299.3l5609.17,-0l-0,-3005.43l-5609.17,0l0,3005.43Z" clip-rule="nonzero"/></clipPath><g clip-path="url(#_clip39)"><path d="M3348.65,3299.3l0,-343.27" style="fill:none;fill-rule:nonzero;stroke:#1b1b1b;stroke-width:11.06px;stroke-linecap:round;"/></g><clipPath id="_clip40"><path d="M558.685,3299.3l5609.17,-0l-0,-3005.43l-5609.17,0l0,3005.43Z" clip-rule="nonzero"/></clipPath><g clip-path="url(#_clip40)"><path d="M3404.72,3299.3l0,-172.196" style="fill:none;fill-rule:nonzero;stroke:#1b1b1b;stroke-width:11.06px;stroke-linecap:round;"/></g><clipPath id="_clip41"><path d="M558.685,3299.3l5609.17,-0l-0,-3005.43l-5609.17,0l0,3005.43Z" clip-rule="nonzero"/></clipPath><g clip-path="url(#_clip41)"><path d="M3436.94,3299.3l-0,-857.96" style="fill:none;fill-rule:nonzero;stroke:#1b1b1b;stroke-width:11.06px;stroke-linecap:round;"/></g><clipPath id="_clip42"><path d="M558.685,3299.3l5609.17,-0l-0,-3005.43l-5609.17,0l0,3005.43Z" clip-rule="nonzero"/></clipPath><g clip-path="url(#_clip42)"><path d="M3633.28,3299.3l-0,-513.865" style="fill:none;fill-rule:nonzero;stroke:#1b1b1b;stroke-width:11.06px;stroke-linecap:round;"/></g><clipPath id="_clip43"><path d="M558.685,3299.3l5609.17,-0l-0,-3005.43l-5609.17,0l0,3005.43Z" clip-rule="nonzero"/></clipPath><g clip-path="url(#_clip43)"><path d="M4070.17,3299.3l-0,-358.863" style="fill:none;fill-rule:nonzero;stroke:#1b1b1b;stroke-width:11.06px;stroke-linecap:round;"/></g><clipPath id="_clip44"><path d="M558.685,3299.3l5609.17,-0l-0,-3005.43l-5609.17,0l0,3005.43Z" clip-rule="nonzero"/></clipPath><g clip-path="url(#_clip44)"><path d="M4074.11,3299.3l0,-814.441" style="fill:none;fill-rule:nonzero;stroke:#1b1b1b;stroke-width:11.06px;stroke-linecap:round;"/></g><clipPath id="_clip45"><path d="M558.685,3299.3l5609.17,-0l-0,-3005.43l-5609.17,0l0,3005.43Z" clip-rule="nonzero"/></clipPath><g clip-path="url(#_clip45)"><path d="M4078.09,3299.3l0,-300.823" style="fill:none;fill-rule:nonzero;stroke:#1b1b1b;stroke-width:11.06px;stroke-linecap:round;"/></g><clipPath id="_clip46"><path d="M558.685,3299.3l5609.17,-0l-0,-3005.43l-5609.17,0l0,3005.43Z" clip-rule="nonzero"/></clipPath><g clip-path="url(#_clip46)"><path d="M4146.34,3299.3l-0,-552.509" style="fill:none;fill-rule:nonzero;stroke:#1b1b1b;stroke-width:11.06px;stroke-linecap:round;"/></g><clipPath id="_clip47"><path d="M558.685,3299.3l5609.17,-0l-0,-3005.43l-5609.17,0l0,3005.43Z" clip-rule="nonzero"/></clipPath><g clip-path="url(#_clip47)"><path d="M4599.42,3299.3l-0,-652.043" style="fill:none;fill-rule:nonzero;stroke:#1b1b1b;stroke-width:11.06px;stroke-linecap:round;"/></g><clipPath id="_clip48"><path d="M558.685,3299.3l5609.17,-0l-0,-3005.43l-5609.17,0l0,3005.43Z" clip-rule="nonzero"/></clipPath><g clip-path="url(#_clip48)"><path d="M5040.31,3299.3l0,-402.625" style="fill:none;fill-rule:nonzero;stroke:#1b1b1b;stroke-width:11.06px;stroke-linecap:round;"/></g><clipPath id="_clip49"><path d="M558.685,3299.3l5609.17,-0l-0,-3005.43l-5609.17,0l0,3005.43Z" clip-rule="nonzero"/></clipPath><g clip-path="url(#_clip49)"><path d="M5044.25,3299.3l0,-199.897" style="fill:none;fill-rule:nonzero;stroke:#1b1b1b;stroke-width:11.06px;stroke-linecap:round;"/></g><clipPath id="_clip50"><path d="M558.685,3299.3l5609.17,-0l-0,-3005.43l-5609.17,0l0,3005.43Z" clip-rule="nonzero"/></clipPath><g clip-path="url(#_clip50)"><path d="M5112.49,3299.3l-0,-389.062" style="fill:none;fill-rule:nonzero;stroke:#1b1b1b;stroke-width:11.06px;stroke-linecap:round;"/></g><clipPath id="_clip51"><path d="M558.685,3299.3l5609.17,-0l-0,-3005.43l-5609.17,0l0,3005.43Z" clip-rule="nonzero"/></clipPath><g clip-path="url(#_clip51)"><path d="M5569.39,3299.3l0,-293.97" style="fill:none;fill-rule:nonzero;stroke:#1b1b1b;stroke-width:11.06px;stroke-linecap:round;"/></g></g></g><path d="M558.685,3299.3l0,-3005.43" style="fill:none;fill-rule:nonzero;stroke:#212121;stroke-width:9.21px;stroke-linecap:square;stroke-linejoin:miter;"/><path d="M558.685,3299.3l5609.17,-0" style="fill:none;fill-rule:nonzero;stroke:#212121;stroke-width:9.21px;stroke-linecap:square;stroke-linejoin:miter;"/><text x="528.234px" y="3467.84px" style="font-family:'LucidaGrande', 'Lucida Grande', sans-serif;font-weight:500;font-size:95.795px;fill:#212121;">0</text><text x="1268.64px" y="3467.84px" style="font-family:'LucidaGrande', 'Lucida Grande', sans-serif;font-weight:500;font-size:95.795px;fill:#212121;">200</text><text x="2069.95px" y="3467.84px" style="font-family:'LucidaGrande', 'Lucida Grande', sans-serif;font-weight:500;font-size:95.795px;fill:#212121;">400</text><text x="2871.26px" y="3467.84px" style="font-family:'LucidaGrande', 'Lucida Grande', sans-serif;font-weight:500;font-size:95.795px;fill:#212121;">600</text><text x="3672.57px" y="3467.84px" style="font-family:'LucidaGrande', 'Lucida Grande', sans-serif;font-weight:500;font-size:95.795px;fill:#212121;">800</text><text x="4443.43px" y="3467.84px" style="font-family:'LucidaGrande', 'Lucida Grande', sans-serif;font-weight:500;font-size:95.795px;fill:#212121;">1000</text><text x="5244.74px" y="3467.84px" style="font-family:'LucidaGrande', 'Lucida Grande', sans-serif;font-weight:500;font-size:95.795px;fill:#212121;">1200</text><text x="3259.17px" y="3611.82px" style="font-family:'LucidaGrande', 'Lucida Grande', sans-serif;font-weight:500;font-size:114.998px;fill:#212121;">m<tspan x="3356.76px 3407.29px " y="3611.82px 3611.82px ">/z</tspan></text><text x="310.957px" y="3335.66px" style="font-family:'LucidaGrande', 'Lucida Grande', sans-serif;font-weight:500;font-size:95.795px;fill:#212121;">0%</text><text x="250.054px" y="2812.97px" style="font-family:'LucidaGrande', 'Lucida Grande', sans-serif;font-weight:500;font-size:95.795px;fill:#212121;">20%</text><text x="250.054px" y="2290.29px" style="font-family:'LucidaGrande', 'Lucida Grande', sans-serif;font-weight:500;font-size:95.795px;fill:#212121;">40%</text><text x="250.054px" y="1767.61px" style="font-family:'LucidaGrande', 'Lucida Grande', sans-serif;font-weight:500;font-size:95.795px;fill:#212121;">60%</text><text x="250.054px" y="1244.92px" style="font-family:'LucidaGrande', 'Lucida Grande', sans-serif;font-weight:500;font-size:95.795px;fill:#212121;">80%</text><text x="189.152px" y="722.239px" style="font-family:'LucidaGrande', 'Lucida Grande', sans-serif;font-weight:500;font-size:95.795px;fill:#212121;">100%</text><g transform="matrix(0,-1,1,0,5.02285,-3094.92)"><text x="-5148.73px" y="121.786px" style="font-family:'LucidaGrande', 'Lucida Grande', sans-serif;font-weight:500;font-size:114.998px;fill:#212121;">I<tspan x="-5111.57px -5036.18px -4989.14px -4921.05px -4845.66px -4783.01px -4745.74px -4698.71px " y="121.786px 121.786px 121.786px 121.786px 121.786px 121.786px 121.786px 121.786px ">ntensity</tspan></text></g><g><clipPath id="_clip52"><rect x="558.685" y="293.872" width="5609.17" height="3005.43" clip-rule="nonzero"/></clipPath><g clip-path="url(#_clip52)"><path d="M1196.09,3299.3l-0,-2613.42" style="fill:none;fill-rule:nonzero;stroke:#388e3c;stroke-width:11.06px;stroke-linecap:round;"/><g transform="matrix(0,-1,1,0,5.02285,-3094.92)"><text x="-3728.54px" y="1222.75px" style="font-family:'LucidaGrande', 'Lucida Grande', sans-serif;font-weight:500;font-size:114.998px;fill:#388e3c;">a1+</text></g></g></g><text x="2704.07px" y="238.585px" style="font-family:'LucidaGrande-Bold', 'Lucida Grande', sans-serif;font-weight:600;font-size:114.998px;fill:#212121;">W<tspan x="2818.93px 2918.24px 3023.89px 3101.69px 3207.34px 3302.94px 3379.9px 3494.76px 3591.43px 3681.7px 3778.36px 3870.93px 3946.88px " y="238.585px 238.585px 238.585px 238.585px 238.585px 238.585px 238.585px 238.585px 238.585px 238.585px 238.585px 238.585px 238.585px ">NQLQAFWGTGK/2</tspan></text><g><clipPath id="_clip53"><rect x="558.685" y="293.872" width="5609.17" height="3005.43" clip-rule="nonzero"/></clipPath><g clip-path="url(#_clip53)"><path d="M1148.1,3299.3l0,-238.293" style="fill:none;fill-rule:nonzero;stroke:#d32f2f;stroke-width:11.06px;stroke-linecap:round;"/><clipPath id="_clip54"><path d="M558.685,3299.3l5609.17,-0l-0,-3005.43l-5609.17,0l0,3005.43Z" clip-rule="nonzero"/></clipPath><g clip-path="url(#_clip54)"><path d="M1308.26,3299.3l0,-300.659" style="fill:none;fill-rule:nonzero;stroke:#1976d2;stroke-width:11.06px;stroke-linecap:round;"/></g><clipPath id="_clip55"><path d="M558.685,3299.3l5609.17,-0l-0,-3005.43l-5609.17,0l0,3005.43Z" clip-rule="nonzero"/></clipPath><g clip-path="url(#_clip55)"><path d="M1376.56,3299.3l-0,-576.181" style="fill:none;fill-rule:nonzero;stroke:#d32f2f;stroke-width:11.06px;stroke-linecap:round;"/></g><clipPath id="_clip56"><path d="M558.685,3299.3l5609.17,-0l-0,-3005.43l-5609.17,0l0,3005.43Z" clip-rule="nonzero"/></clipPath><g clip-path="url(#_clip56)"><path d="M1765.17,3299.3l0,-1063.68" style="fill:none;fill-rule:nonzero;stroke:#1976d2;stroke-width:11.06px;stroke-linecap:round;"/></g><clipPath id="_clip57"><path d="M558.685,3299.3l5609.17,-0l-0,-3005.43l-5609.17,0l0,3005.43Z" clip-rule="nonzero"/></clipPath><g clip-path="url(#_clip57)"><path d="M1781.41,3299.3l-0,-557.944" style="fill:none;fill-rule:nonzero;stroke:#d32f2f;stroke-width:11.06px;stroke-linecap:round;"/></g><clipPath id="_clip58"><path d="M558.685,3299.3l5609.17,-0l-0,-3005.43l-5609.17,0l0,3005.43Z" clip-rule="nonzero"/></clipPath><g clip-path="url(#_clip58)"><path d="M2009.87,3299.3l0,-1536.9" style="fill:none;fill-rule:nonzero;stroke:#d32f2f;stroke-width:11.06px;stroke-linecap:round;"/></g><clipPath id="_clip59"><path d="M558.685,3299.3l5609.17,-0l-0,-3005.43l-5609.17,0l0,3005.43Z" clip-rule="nonzero"/></clipPath><g clip-path="url(#_clip59)"><path d="M2278.25,3299.3l0,-798.627" style="fill:none;fill-rule:nonzero;stroke:#1976d2;stroke-width:11.06px;stroke-linecap:round;"/></g><clipPath id="_clip60"><path d="M558.685,3299.3l5609.17,-0l-0,-3005.43l-5609.17,0l0,3005.43Z" clip-rule="nonzero"/></clipPath><g clip-path="url(#_clip60)"><path d="M2731.33,3299.3l0,-201.905" style="fill:none;fill-rule:nonzero;stroke:#1976d2;stroke-width:11.06px;stroke-linecap:round;"/></g><clipPath id="_clip61"><path d="M558.685,3299.3l5609.17,-0l-0,-3005.43l-5609.17,0l0,3005.43Z" clip-rule="nonzero"/></clipPath><g clip-path="url(#_clip61)"><path d="M2755.4,3299.3l-0,-1657.03" style="fill:none;fill-rule:nonzero;stroke:#d32f2f;stroke-width:11.06px;stroke-linecap:round;"/></g><clipPath id="_clip62"><path d="M558.685,3299.3l5609.17,-0l-0,-3005.43l-5609.17,0l0,3005.43Z" clip-rule="nonzero"/></clipPath><g clip-path="url(#_clip62)"><path d="M3344.64,3299.3l0,-1164.11" style="fill:none;fill-rule:nonzero;stroke:#d32f2f;stroke-width:11.06px;stroke-linecap:round;"/></g><clipPath id="_clip63"><path d="M558.685,3299.3l5609.17,-0l-0,-3005.43l-5609.17,0l0,3005.43Z" clip-rule="nonzero"/></clipPath><g clip-path="url(#_clip63)"><path d="M3629.25,3299.3l-0,-1529.9" style="fill:none;fill-rule:nonzero;stroke:#d32f2f;stroke-width:11.06px;stroke-linecap:round;"/></g><clipPath id="_clip64"><path d="M558.685,3299.3l5609.17,-0l-0,-3005.43l-5609.17,0l0,3005.43Z" clip-rule="nonzero"/></clipPath><g clip-path="url(#_clip64)"><path d="M4142.32,3299.3l0,-1151.62" style="fill:none;fill-rule:nonzero;stroke:#d32f2f;stroke-width:11.06px;stroke-linecap:round;"/></g><clipPath id="_clip65"><path d="M558.685,3299.3l5609.17,-0l-0,-3005.43l-5609.17,0l0,3005.43Z" clip-rule="nonzero"/></clipPath><g clip-path="url(#_clip65)"><path d="M4595.41,3299.3l0,-1161.42" style="fill:none;fill-rule:nonzero;stroke:#d32f2f;stroke-width:11.06px;stroke-linecap:round;"/></g><clipPath id="_clip66"><path d="M558.685,3299.3l5609.17,-0l-0,-3005.43l-5609.17,0l0,3005.43Z" clip-rule="nonzero"/></clipPath><g clip-path="url(#_clip66)"><path d="M5108.45,3299.3l0,-633.011" style="fill:none;fill-rule:nonzero;stroke:#d32f2f;stroke-width:11.06px;stroke-linecap:round;"/></g><clipPath id="_clip67"><path d="M558.685,3299.3l5609.17,-0l-0,-3005.43l-5609.17,0l0,3005.43Z" clip-rule="nonzero"/></clipPath><g clip-path="url(#_clip67)"><path d="M5565.39,3299.3l0,-359.788" style="fill:none;fill-rule:nonzero;stroke:#d32f2f;stroke-width:11.06px;stroke-linecap:round;"/></g><g transform="matrix(0,-26.0417,26.0417,0,-1544.95,-1549.97)"><text x="-175.055px" y="104.569px" style="font-family:'LucidaGrande', 'Lucida Grande', sans-serif;font-weight:500;font-size:4.416px;fill:#d32f2f;">y1+</text><text x="-172.66px" y="110.781px" style="font-family:'LucidaGrande', 'Lucida Grande', sans-serif;font-weight:500;font-size:4.416px;fill:#1976d2;">b1+</text><text x="-162.08px" y="113.343px" style="font-family:'LucidaGrande', 'Lucida Grande', sans-serif;font-weight:500;font-size:4.416px;fill:#d32f2f;">y2+</text><text x="-143.36px" y="128.328px" style="font-family:'LucidaGrande', 'Lucida Grande', sans-serif;font-weight:500;font-size:4.416px;fill:#1976d2;">b2+</text><text x="-162.78px" y="128.891px" style="font-family:'LucidaGrande', 'Lucida Grande', sans-serif;font-weight:500;font-size:4.416px;fill:#d32f2f;">y3+</text></g><g transform="matrix(0,-1,1,0,5.02285,-3094.92)"><text x="-4805.06px" y="2034.94px" style="font-family:'LucidaGrande', 'Lucida Grande', sans-serif;font-weight:500;font-size:114.998px;fill:#d32f2f;">y4+</text></g><g transform="matrix(0,-1,1,0,5.02285,-3094.92)"><text x="-5543.33px" y="2304.9px" style="font-family:'LucidaGrande', 'Lucida Grande', sans-serif;font-weight:500;font-size:114.998px;fill:#1976d2;">b3+</text></g><g transform="matrix(0,-1,1,0,5.02285,-3094.92)"><text x="-6140.05px" y="2757.98px" style="font-family:'LucidaGrande', 'Lucida Grande', sans-serif;font-weight:500;font-size:114.998px;fill:#1976d2;">b4+</text></g><g transform="matrix(0,-1,1,0,5.02285,-3094.92)"><text x="-4684.93px" y="2780.47px" style="font-family:'LucidaGrande', 'Lucida Grande', sans-serif;font-weight:500;font-size:114.998px;fill:#d32f2f;">y5+</text></g><g transform="matrix(0,-1,1,0,5.02285,-3094.92)"><text x="-5177.84px" y="3369.71px" style="font-family:'LucidaGrande', 'Lucida Grande', sans-serif;font-weight:500;font-size:114.998px;fill:#d32f2f;">y6+</text></g><g transform="matrix(0,-1,1,0,5.02285,-3094.92)"><text x="-4812.05px" y="3654.32px" style="font-family:'LucidaGrande', 'Lucida Grande', sans-serif;font-weight:500;font-size:114.998px;fill:#d32f2f;">y7+</text></g><g transform="matrix(0,-26.0417,26.0417,0,-1544.95,-1549.97)"><text x="-139.983px" y="219.547px" style="font-family:'LucidaGrande', 'Lucida Grande', sans-serif;font-weight:500;font-size:4.416px;fill:#d32f2f;">y8+</text><text x="-139.607px" y="236.943px" style="font-family:'LucidaGrande', 'Lucida Grande', sans-serif;font-weight:500;font-size:4.416px;fill:#d32f2f;">y9+</text></g><g transform="matrix(0,-1,1,0,5.02285,-3094.92)"><text x="-5708.95px" y="5133.52px" style="font-family:'LucidaGrande', 'Lucida Grande', sans-serif;font-weight:500;font-size:114.998px;fill:#d32f2f;">y10+</text></g><g transform="matrix(0,-1,1,0,5.02285,-3094.92)"><text x="-5982.17px" y="5590.46px" style="font-family:'LucidaGrande', 'Lucida Grande', sans-serif;font-weight:500;font-size:114.998px;fill:#d32f2f;">y11+</text></g></g></g></svg>