<?xml version="1.0" encoding="UTF-8" standalone="no"?>
<!DOCTYPE svg PUBLIC "-//W3C//DTD SVG 1.1//EN" "http://www.w3.org/Graphics/SVG/1.1/DTD/svg11.dtd">
<svg width="100%" height="100%" viewBox="0 0 944 249" version="1.1" xmlns="http://www.w3.org/2000/svg" xmlns:xlink="http://www.w3.org/1999/xlink" xml:space="preserve" xmlns:serif="http://www.serif.com/" style="fill-rule:evenodd;clip-rule:evenodd;stroke-linecap:round;stroke-linejoin:round;stroke-miterlimit:1.5;">
    <g transform="matrix(0.444244,0,0,0.444244,-14.9891,-50.7233)">
        <g>
            <g transform="matrix(1,0,0,1,-104,114)">
                <path d="M513.54,485.62L230.14,485.62C227.679,485.706 225.288,484.788 223.519,483.077C221.745,481.366 220.745,479.011 220.745,476.546C220.745,474.085 221.745,471.729 223.519,470.018C225.288,468.308 227.679,467.39 230.14,467.475L504.46,467.475L504.46,27.335L230.14,27.335C227.679,27.421 225.288,26.503 223.519,24.792C221.745,23.082 220.745,20.726 220.745,18.261C220.745,15.8 221.745,13.445 223.519,11.734C225.288,10.023 227.679,9.105 230.14,9.191L513.54,9.191C518.548,9.191 522.606,13.25 522.606,18.257L522.606,476.537C522.61,478.944 521.653,481.252 519.954,482.955C518.255,484.659 515.946,485.616 513.54,485.616L513.54,485.62Z" style="fill-rule:nonzero;"/>
            </g>
            <g transform="matrix(1,0,0,1,-104,114)">
                <path d="M553.16,550.78L179.37,550.78C164.499,550.78 150.757,542.843 143.319,529.964C135.881,517.085 135.881,501.218 143.319,488.335C150.756,475.456 164.499,467.523 179.37,467.523L230.108,467.523C234.999,467.691 238.874,471.703 238.874,476.597C238.874,481.488 234.999,485.499 230.108,485.667L179.37,485.667C170.975,485.667 163.222,490.148 159.022,497.413C154.827,504.683 154.827,513.64 159.022,520.909C163.221,528.179 170.975,532.655 179.37,532.655L544.08,532.655L544.08,79.105L513.533,79.105C508.517,79.105 504.455,75.039 504.455,70.027C504.455,65.012 508.517,60.949 513.533,60.949L553.158,60.949C558.17,60.953 562.228,65.016 562.236,70.027L562.236,541.717C562.228,546.729 558.166,550.788 553.158,550.788L553.16,550.78Z" style="fill-rule:nonzero;"/>
            </g>
            <g transform="matrix(1,0,0,1,-104,114)">
                <path d="M146.84,518.23C141.828,518.222 137.77,514.164 137.762,509.152L137.762,51.402C137.774,40.207 142.227,29.472 150.145,21.558C158.063,13.644 168.797,9.191 179.993,9.183L230.141,9.183C235.028,9.351 238.903,13.363 238.903,18.257C238.903,23.148 235.028,27.159 230.141,27.327L179.993,27.327C173.61,27.327 167.489,29.863 162.977,34.374C158.465,38.89 155.93,45.007 155.93,51.39L155.93,509.15C155.922,514.166 151.856,518.228 146.84,518.228L146.84,518.23Z" style="fill-rule:nonzero;"/>
            </g>
            <g transform="matrix(0.632293,0.518194,-0.518194,0.632293,150.314,3.29574)">
                <path d="M408.64,395.88C403.785,392.06 396.745,392.892 392.913,397.755C389.085,402.614 389.929,409.653 394.784,413.482C400.214,417.751 404.436,423.037 407.327,429.177C410.069,434.982 411.511,441.482 411.511,447.966C411.511,454.15 416.526,459.165 422.71,459.165C428.893,459.165 433.909,454.149 433.909,447.966C433.909,438.204 431.729,428.404 427.592,419.626C423.202,410.313 416.826,402.325 408.639,395.88L408.64,395.88Z" style="fill-rule:nonzero;"/>
            </g>
            <g transform="matrix(0.632293,0.518194,-0.518194,0.632293,150.314,3.29574)">
                <path d="M408.64,227.92C403.785,224.1 396.745,224.932 392.913,229.795C389.085,234.654 389.929,241.693 394.784,245.522C400.214,249.795 404.436,255.077 407.327,261.217C410.069,267.022 411.511,273.522 411.511,280.006C411.511,286.49 410.065,292.994 407.327,298.795C404.437,304.939 400.214,310.221 394.784,314.49L291.354,395.896C291.139,396.064 290.96,396.259 290.745,396.435C290.596,396.568 290.432,396.689 290.296,396.833C282.639,403.119 276.589,410.759 272.398,419.653C268.261,428.427 266.081,438.227 266.081,447.993C266.081,450.966 267.261,453.814 269.362,455.915C271.46,458.017 274.312,459.197 277.28,459.197L277.284,459.197L366.714,459.165C372.898,459.161 377.909,454.146 377.909,447.962C377.909,441.779 372.894,436.767 366.71,436.767L366.706,436.767L289.917,436.791C290.601,434.177 291.519,431.631 292.66,429.205C295.046,424.135 298.39,419.689 302.523,415.873L345.711,415.877C351.894,415.877 356.91,410.861 356.91,404.678C356.91,398.494 351.894,393.479 345.711,393.479L330.66,393.479L408.637,332.104C416.824,325.658 423.199,317.67 427.594,308.35C431.731,299.576 433.91,289.776 433.91,280.01C433.91,270.244 431.723,260.448 427.594,251.674C423.203,242.361 416.828,234.369 408.641,227.92L408.64,227.92Z" style="fill-rule:nonzero;"/>
            </g>
            <g transform="matrix(0.632293,0.518194,-0.518194,0.632293,150.314,3.29574)">
                <path d="M291.36,164.12C293.415,165.737 295.852,166.518 298.286,166.518C301.602,166.518 304.88,165.054 307.091,162.245C310.919,157.386 310.075,150.347 305.219,146.518C299.79,142.245 295.567,136.963 292.676,130.823C289.934,125.018 288.493,118.518 288.493,112.034C288.493,105.85 283.477,100.835 277.294,100.835C271.11,100.835 266.095,105.851 266.095,112.034C266.095,121.8 268.282,131.596 272.411,140.37C276.798,149.683 283.173,157.671 291.36,164.12L291.36,164.12Z" style="fill-rule:nonzero;"/>
            </g>
            <g transform="matrix(0.632293,0.518194,-0.518194,0.632293,150.314,3.29574)">
                <path d="M433.91,112C433.91,105.816 428.894,100.805 422.711,100.805L422.707,100.805L333.277,100.836C327.093,100.84 322.082,105.856 322.082,112.039C322.082,118.223 327.098,123.234 333.281,123.234L333.285,123.234L410.008,123.211C409.328,125.82 408.469,128.375 407.324,130.793C404.942,135.851 401.614,140.285 397.496,144.094L354.281,144.094C348.098,144.094 343.082,149.109 343.082,155.293C343.082,161.476 348.098,166.492 354.281,166.492L369.371,166.492L291.351,227.898C283.164,234.347 276.789,242.336 272.394,251.652C268.265,260.425 266.078,270.222 266.078,279.988L266.078,280.019C266.078,280.035 266.082,280.042 266.082,280.054C266.094,289.796 268.269,299.574 272.394,308.327C276.586,317.222 282.636,324.862 290.292,331.147C290.433,331.292 290.593,331.409 290.742,331.546C290.952,331.718 291.132,331.913 291.351,332.085C291.39,332.116 291.437,332.124 291.476,332.151C292.406,332.87 293.445,333.432 294.574,333.835C294.66,333.866 294.745,333.889 294.835,333.917C295.929,334.272 297.07,334.514 298.281,334.514L345.711,334.507C351.894,334.507 356.91,329.491 356.91,323.308C356.91,317.124 351.894,312.109 345.711,312.109L302.523,312.109C298.394,308.296 295.05,303.847 292.659,298.777C291.523,296.366 290.663,293.816 289.984,291.218L366.707,291.218C372.89,291.218 377.906,286.202 377.906,280.019C377.906,273.836 372.89,268.82 366.707,268.82L289.973,268.816C290.656,266.195 291.519,263.629 292.668,261.199C295.043,256.152 298.359,251.73 302.461,247.929L345.711,247.929C351.894,247.929 356.91,242.913 356.91,236.73C356.91,230.546 351.894,225.531 345.711,225.531L330.586,225.531L408.641,164.097C416.828,157.648 423.203,149.659 427.598,140.343C431.723,131.566 433.91,121.769 433.91,111.999L433.91,112Z" style="fill-rule:nonzero;"/>
            </g>
        </g>
    </g>
    <g transform="matrix(1,0,0,1,-20.7407,-100.183)">
        <g transform="matrix(0.97206,0,0,1.03804,59.6568,-13.1156)">
            <path d="M550,131.167C550,121.14 541.307,113 530.6,113L375.4,113C364.693,113 356,121.14 356,131.167L356,326.621C356,336.647 364.693,344.788 375.4,344.788L530.6,344.788C541.307,344.788 550,336.647 550,326.621L550,131.167Z" style="fill:none;stroke:black;stroke-width:7.96px;"/>
        </g>
        <g transform="matrix(1,0,0,1,0,17)">
            <g transform="matrix(1,0,0,1,-3,57.1978)">
                <path d="M434,167.288C532.199,167.288 510,167.288 510,167.288" style="fill:none;stroke:black;stroke-width:8px;"/>
            </g>
            <g transform="matrix(0.513768,0,0,0.513768,304.025,138.538)">
                <path d="M434,167.288C532.199,167.288 510,167.288 510,167.288" style="fill:none;stroke:black;stroke-width:15.57px;"/>
            </g>
            <g transform="matrix(1,0,0,1,55.924,79.1978)">
                <path d="M434,167.288C532.199,167.288 510,167.288 510,167.288" style="fill:none;stroke:black;stroke-width:8px;"/>
            </g>
            <g transform="matrix(0.513768,0,0,0.513768,208.949,160.538)">
                <path d="M434,167.288C532.199,167.288 510,167.288 510,167.288" style="fill:none;stroke:black;stroke-width:15.57px;"/>
            </g>
            <g transform="matrix(1,0,0,1,-2.07599,101.198)">
                <path d="M434,167.288C532.199,167.288 510,167.288 510,167.288" style="fill:none;stroke:black;stroke-width:8px;"/>
            </g>
            <g transform="matrix(0.513768,0,0,0.513768,304.949,182.538)">
                <path d="M434,167.288C532.199,167.288 510,167.288 510,167.288" style="fill:none;stroke:black;stroke-width:15.57px;"/>
            </g>
            <g transform="matrix(0.742144,0,0,1,109.834,123.198)">
                <path d="M434,167.288C532.199,167.288 510,167.288 510,167.288" style="fill:none;stroke:black;stroke-width:9.09px;"/>
            </g>
            <g transform="matrix(0.871072,0,0,0.513768,121.955,204.538)">
                <path d="M434,167.288C532.199,167.288 510,167.288 510,167.288" style="fill:none;stroke:black;stroke-width:11.19px;"/>
            </g>
        </g>
        <g transform="matrix(1,0,0,1.24357,0,-44.125)">
            <path d="M568.076,156C568.076,144.962 556.932,136 543.205,136L456.795,136C443.068,136 431.924,144.962 431.924,156L431.924,196C431.924,207.038 443.068,216 456.795,216L543.205,216C556.932,216 568.076,207.038 568.076,196L568.076,156Z" style="fill:none;stroke:black;stroke-width:3.54px;"/>
        </g>
        <g transform="matrix(0.15837,0,0,0.15837,444.316,130.312)">
            <path d="M532.89,311.19C537.581,310.819 541.199,306.905 541.199,302.202C541.199,297.499 537.581,293.585 532.89,293.213C530.386,293.018 527.91,293.874 526.062,295.581C524.214,297.288 523.167,299.686 523.167,302.202C523.167,304.717 524.214,307.116 526.062,308.823C527.91,310.53 530.386,311.389 532.89,311.19Z" style="fill-rule:nonzero;"/>
        </g>
        <g transform="matrix(0.15837,0,0,0.15837,444.316,130.312)">
            <path d="M228.43,294.67C228.43,291.018 226.227,287.729 222.848,286.334C219.473,284.944 215.59,285.725 213.016,288.315C210.442,290.904 209.684,294.791 211.098,298.158C212.512,301.526 215.817,303.709 219.469,303.686C221.856,303.686 224.141,302.736 225.825,301.041C227.504,299.35 228.442,297.057 228.43,294.67L228.43,294.67Z" style="fill-rule:nonzero;"/>
        </g>
        <g transform="matrix(0.15837,0,0,0.15837,444.316,130.312)">
            <path d="M190.18,424.09C186.528,424.09 183.239,426.289 181.844,429.668C180.454,433.043 181.235,436.926 183.825,439.5C186.414,442.074 190.301,442.832 193.668,441.418C197.036,440.004 199.219,436.699 199.196,433.047C199.196,430.66 198.246,428.375 196.551,426.691C194.86,425.012 192.567,424.074 190.18,424.09L190.18,424.09Z" style="fill-rule:nonzero;"/>
        </g>
        <g transform="matrix(0.15837,0,0,0.15837,444.316,130.312)">
            <path d="M360.64,222.71C364.285,222.71 367.574,220.515 368.968,217.144C370.363,213.776 369.593,209.898 367.015,207.319C364.437,204.741 360.558,203.972 357.191,205.366C353.82,206.761 351.624,210.05 351.624,213.694C351.624,218.675 355.66,222.71 360.64,222.71Z" style="fill-rule:nonzero;"/>
        </g>
        <g transform="matrix(0.15837,0,0,0.15837,444.316,130.312)">
            <path d="M403.43,90.328C277.2,12.266 180.49,32.48 176.4,33.601C174.295,34.07 172.427,35.285 171.138,37.015C170.131,38.414 161.17,51.238 159.376,78.902C158.759,88.367 162.622,105.672 173.712,113.343L131.603,520.803C131.291,524.061 132.767,527.233 135.467,529.092C136.947,530.116 138.705,530.662 140.506,530.659C141.924,530.651 143.318,530.323 144.596,529.705L502.606,344.905C507.695,346.784 513.083,347.714 518.508,347.652C524.324,347.605 530.106,346.777 535.699,345.187C549.812,341.351 562.101,332.617 570.363,320.546C571.238,319.116 571.683,317.464 571.652,315.788C571.37,311.081 567.62,191.968 403.432,90.328L403.43,90.328ZM150.93,506.298L191.418,115.588C211.746,113.291 279.004,110.717 361.488,161.733C471.978,230.163 490.008,309.183 492.638,330.403L150.93,506.298ZM530.72,328.278C524.22,330.372 517.279,330.68 510.618,329.173C508.044,305.935 490.513,220.583 370.618,146.553C274.856,87.248 199.258,96.155 183.858,98.506C179.936,96.209 176.522,86.24 176.913,79.858C177.413,69.682 179.827,59.686 184.026,50.401C202.561,47.658 287.566,39.874 394.026,105.784C535.766,193.315 551.616,295.624 553.346,313.604C547.491,320.701 539.592,325.823 530.721,328.276L530.72,328.278Z" style="fill-rule:nonzero;"/>
        </g>
        <g transform="matrix(0.15837,0,0,0.15837,444.316,130.312)">
            <path d="M262.81,154.79C247.779,154.79 233.365,160.759 222.736,171.388C212.107,182.017 206.138,196.431 206.138,211.462C206.138,226.493 212.107,240.907 222.736,251.532C233.365,262.161 247.779,268.134 262.81,268.134C277.841,268.134 292.255,262.161 302.884,251.532C313.509,240.907 319.482,226.493 319.482,211.462C319.466,196.435 313.49,182.028 302.865,171.403C292.24,160.778 277.834,154.801 262.81,154.79ZM262.81,249.989C252.517,249.989 242.646,245.899 235.369,238.622C228.092,231.345 224.002,221.474 224.002,211.181C224.002,200.888 228.092,191.017 235.369,183.74C242.646,176.463 252.517,172.373 262.81,172.373C273.103,172.373 282.974,176.463 290.251,183.74C297.528,191.017 301.618,200.888 301.618,211.181C301.677,221.517 297.614,231.451 290.333,238.786C283.052,246.121 273.145,250.255 262.81,250.27L262.81,249.989Z" style="fill-rule:nonzero;"/>
        </g>
        <g transform="matrix(0.15837,0,0,0.15837,444.316,130.312)">
            <path d="M386.96,260.06C376.163,260.06 365.808,264.349 358.171,271.986C350.538,279.623 346.245,289.974 346.245,300.775C346.245,311.572 350.538,321.927 358.171,329.56C365.808,337.197 376.163,341.486 386.96,341.486C397.757,341.486 408.112,337.197 415.745,329.56C423.382,321.927 427.671,311.572 427.671,300.775C427.655,289.982 423.362,279.634 415.73,272.002C408.097,264.369 397.753,260.076 386.96,260.061L386.96,260.06ZM386.96,323.619L386.96,323.623C380.898,323.639 375.077,321.24 370.78,316.963C366.483,312.685 364.065,306.873 364.053,300.811C364.046,294.748 366.444,288.932 370.725,284.639C375.01,280.346 380.823,277.932 386.885,277.928C392.948,277.92 398.764,280.326 403.053,284.611C407.342,288.897 409.753,294.713 409.753,300.775C409.753,306.822 407.35,312.627 403.077,316.912C398.807,321.194 393.011,323.608 386.96,323.623L386.96,323.619Z" style="fill-rule:nonzero;"/>
        </g>
        <g transform="matrix(0.15837,0,0,0.15837,444.316,130.312)">
            <path d="M252.62,318.53C239.788,318.546 227.491,323.655 218.429,332.733C209.367,341.815 204.281,354.124 204.292,366.952C204.3,379.78 209.405,392.081 218.483,401.147C227.557,410.213 239.866,415.303 252.694,415.299C265.522,415.295 277.823,410.193 286.893,401.119C295.963,392.045 301.057,379.744 301.057,366.912C301.045,354.076 295.932,341.771 286.85,332.697C277.768,323.627 265.455,318.529 252.62,318.529L252.62,318.53ZM252.62,397.432L252.62,397.436C244.526,397.436 236.761,394.217 231.038,388.495C225.315,382.772 222.101,375.011 222.101,366.913C222.101,358.819 225.315,351.058 231.038,345.335C236.761,339.612 244.526,336.393 252.62,336.393C260.714,336.393 268.475,339.612 274.198,345.335C279.925,351.057 283.139,358.819 283.139,366.913C283.167,375.034 279.967,382.831 274.241,388.589C268.518,394.346 260.737,397.589 252.62,397.604L252.62,397.432Z" style="fill-rule:nonzero;"/>
        </g>
    </g>
    <g transform="matrix(1,0,0,1,17.2593,-101.746)">
        <g transform="matrix(0.382271,0,0,0.382271,707.27,118.803)">
            <path d="M532.89,311.19C537.581,310.819 541.199,306.905 541.199,302.202C541.199,297.499 537.581,293.585 532.89,293.213C530.386,293.018 527.91,293.874 526.062,295.581C524.214,297.288 523.167,299.686 523.167,302.202C523.167,304.717 524.214,307.116 526.062,308.823C527.91,310.53 530.386,311.389 532.89,311.19Z" style="fill-rule:nonzero;"/>
        </g>
        <g transform="matrix(0.382271,0,0,0.382271,707.27,118.803)">
            <path d="M228.43,294.67C228.43,291.018 226.227,287.729 222.848,286.334C219.473,284.944 215.59,285.725 213.016,288.315C210.442,290.904 209.684,294.791 211.098,298.158C212.512,301.526 215.817,303.709 219.469,303.686C221.856,303.686 224.141,302.736 225.825,301.041C227.504,299.35 228.442,297.057 228.43,294.67L228.43,294.67Z" style="fill-rule:nonzero;"/>
        </g>
        <g transform="matrix(0.382271,0,0,0.382271,707.27,118.803)">
            <path d="M190.18,424.09C186.528,424.09 183.239,426.289 181.844,429.668C180.454,433.043 181.235,436.926 183.825,439.5C186.414,442.074 190.301,442.832 193.668,441.418C197.036,440.004 199.219,436.699 199.196,433.047C199.196,430.66 198.246,428.375 196.551,426.691C194.86,425.012 192.567,424.074 190.18,424.09L190.18,424.09Z" style="fill-rule:nonzero;"/>
        </g>
        <g transform="matrix(0.382271,0,0,0.382271,707.27,118.803)">
            <path d="M360.64,222.71C364.285,222.71 367.574,220.515 368.968,217.144C370.363,213.776 369.593,209.898 367.015,207.319C364.437,204.741 360.558,203.972 357.191,205.366C353.82,206.761 351.624,210.05 351.624,213.694C351.624,218.675 355.66,222.71 360.64,222.71Z" style="fill-rule:nonzero;"/>
        </g>
        <g transform="matrix(0.382271,0,0,0.382271,707.27,118.803)">
            <path d="M403.43,90.328C277.2,12.266 180.49,32.48 176.4,33.601C174.295,34.07 172.427,35.285 171.138,37.015C170.131,38.414 161.17,51.238 159.376,78.902C158.759,88.367 162.622,105.672 173.712,113.343L131.603,520.803C131.291,524.061 132.767,527.233 135.467,529.092C136.947,530.116 138.705,530.662 140.506,530.659C141.924,530.651 143.318,530.323 144.596,529.705L502.606,344.905C507.695,346.784 513.083,347.714 518.508,347.652C524.324,347.605 530.106,346.777 535.699,345.187C549.812,341.351 562.101,332.617 570.363,320.546C571.238,319.116 571.683,317.464 571.652,315.788C571.37,311.081 567.62,191.968 403.432,90.328L403.43,90.328ZM150.93,506.298L191.418,115.588C211.746,113.291 279.004,110.717 361.488,161.733C471.978,230.163 490.008,309.183 492.638,330.403L150.93,506.298ZM530.72,328.278C524.22,330.372 517.279,330.68 510.618,329.173C508.044,305.935 490.513,220.583 370.618,146.553C274.856,87.248 199.258,96.155 183.858,98.506C179.936,96.209 176.522,86.24 176.913,79.858C177.413,69.682 179.827,59.686 184.026,50.401C202.561,47.658 287.566,39.874 394.026,105.784C535.766,193.315 551.616,295.624 553.346,313.604C547.491,320.701 539.592,325.823 530.721,328.276L530.72,328.278Z" style="fill-rule:nonzero;"/>
        </g>
        <g transform="matrix(0.382271,0,0,0.382271,707.27,118.803)">
            <path d="M262.81,154.79C247.779,154.79 233.365,160.759 222.736,171.388C212.107,182.017 206.138,196.431 206.138,211.462C206.138,226.493 212.107,240.907 222.736,251.532C233.365,262.161 247.779,268.134 262.81,268.134C277.841,268.134 292.255,262.161 302.884,251.532C313.509,240.907 319.482,226.493 319.482,211.462C319.466,196.435 313.49,182.028 302.865,171.403C292.24,160.778 277.834,154.801 262.81,154.79ZM262.81,249.989C252.517,249.989 242.646,245.899 235.369,238.622C228.092,231.345 224.002,221.474 224.002,211.181C224.002,200.888 228.092,191.017 235.369,183.74C242.646,176.463 252.517,172.373 262.81,172.373C273.103,172.373 282.974,176.463 290.251,183.74C297.528,191.017 301.618,200.888 301.618,211.181C301.677,221.517 297.614,231.451 290.333,238.786C283.052,246.121 273.145,250.255 262.81,250.27L262.81,249.989Z" style="fill-rule:nonzero;"/>
        </g>
        <g transform="matrix(0.382271,0,0,0.382271,707.27,118.803)">
            <path d="M386.96,260.06C376.163,260.06 365.808,264.349 358.171,271.986C350.538,279.623 346.245,289.974 346.245,300.775C346.245,311.572 350.538,321.927 358.171,329.56C365.808,337.197 376.163,341.486 386.96,341.486C397.757,341.486 408.112,337.197 415.745,329.56C423.382,321.927 427.671,311.572 427.671,300.775C427.655,289.982 423.362,279.634 415.73,272.002C408.097,264.369 397.753,260.076 386.96,260.061L386.96,260.06ZM386.96,323.619L386.96,323.623C380.898,323.639 375.077,321.24 370.78,316.963C366.483,312.685 364.065,306.873 364.053,300.811C364.046,294.748 366.444,288.932 370.725,284.639C375.01,280.346 380.823,277.932 386.885,277.928C392.948,277.92 398.764,280.326 403.053,284.611C407.342,288.897 409.753,294.713 409.753,300.775C409.753,306.822 407.35,312.627 403.077,316.912C398.807,321.194 393.011,323.608 386.96,323.623L386.96,323.619Z" style="fill-rule:nonzero;"/>
        </g>
        <g transform="matrix(0.382271,0,0,0.382271,707.27,118.803)">
            <path d="M252.62,318.53C239.788,318.546 227.491,323.655 218.429,332.733C209.367,341.815 204.281,354.124 204.292,366.952C204.3,379.78 209.405,392.081 218.483,401.147C227.557,410.213 239.866,415.303 252.694,415.299C265.522,415.295 277.823,410.193 286.893,401.119C295.963,392.045 301.057,379.744 301.057,366.912C301.045,354.076 295.932,341.771 286.85,332.697C277.768,323.627 265.455,318.529 252.62,318.529L252.62,318.53ZM252.62,397.432L252.62,397.436C244.526,397.436 236.761,394.217 231.038,388.495C225.315,382.772 222.101,375.011 222.101,366.913C222.101,358.819 225.315,351.058 231.038,345.335C236.761,339.612 244.526,336.393 252.62,336.393C260.714,336.393 268.475,339.612 274.198,345.335C279.925,351.057 283.139,358.819 283.139,366.913C283.167,375.034 279.967,382.831 274.241,388.589C268.518,394.346 260.737,397.589 252.62,397.604L252.62,397.432Z" style="fill-rule:nonzero;"/>
        </g>
    </g>
    <g transform="matrix(0.744792,0,0,0.930233,64.8114,-300.814)">
        <path d="M202,472.05L202,441.95L340.294,441.95L340.294,414L394,457L340.294,500L340.294,472.05L202,472.05Z" style="fill:none;stroke:black;stroke-width:4.75px;"/>
    </g>
    <g transform="matrix(0.744792,0,0,0.930233,452.373,-300.814)">
        <path d="M202,472.05L202,441.95L340.294,441.95L340.294,414L394,457L340.294,500L340.294,472.05L202,472.05Z" style="fill:none;stroke:black;stroke-width:4.75px;"/>
    </g>
    <g transform="matrix(1,0,0,1,-61.5354,-81.1829)">
        <text x="274.23px" y="277.464px" style="font-family:'ArialMT', 'Arial', sans-serif;font-size:26px;">T<tspan x="289.147px 297.805px " y="277.464px 277.464px ">ra</tspan>nscription</text>
    </g>
    <g transform="matrix(1,0,0,1,336.465,-81.1829)">
        <text x="274.23px" y="277.464px" style="font-family:'ArialMT', 'Arial', sans-serif;font-size:26px;">T<tspan x="289.147px 297.805px " y="277.464px 277.464px ">ra</tspan>nslation</text>
    </g>
</svg>
