<?xml version="1.0" encoding="UTF-8" standalone="no"?>
<!DOCTYPE svg PUBLIC "-//W3C//DTD SVG 1.1//EN" "http://www.w3.org/Graphics/SVG/1.1/DTD/svg11.dtd">
<svg width="100%" height="100%" viewBox="0 0 984 279" version="1.1" xmlns="http://www.w3.org/2000/svg" xmlns:xlink="http://www.w3.org/1999/xlink" xml:space="preserve" xmlns:serif="http://www.serif.com/" style="fill-rule:evenodd;clip-rule:evenodd;stroke-linecap:round;stroke-linejoin:round;stroke-miterlimit:1.5;">
    <g id="Input-sample" serif:id="Input sample" transform="matrix(1,0,0,1,-54.5007,-81.0338)">
        <g id="Protein-2" serif:id="Protein 2" transform="matrix(0.444667,0,0,0.444667,60.5373,-16.3336)">
            <g transform="matrix(1,0,0,1,0,482)">
                <circle cx="120.5" cy="138.5" r="38.5" style="fill:rgb(124,179,66);"/>
            </g>
            <g transform="matrix(1,0,0,1,65,443.5)">
                <circle cx="120.5" cy="138.5" r="38.5" style="fill:rgb(124,179,66);"/>
            </g>
            <g transform="matrix(1,0,0,1,135,428)">
                <circle cx="120.5" cy="138.5" r="38.5" style="fill:rgb(124,179,66);"/>
            </g>
            <g transform="matrix(1,0,0,1,200,400)">
                <circle cx="120.5" cy="138.5" r="38.5" style="fill:rgb(124,179,66);"/>
            </g>
            <g transform="matrix(1,0,0,1,269,428)">
                <circle cx="120.5" cy="138.5" r="38.5" style="fill:rgb(124,179,66);"/>
            </g>
        </g>
        <g id="Protein-1" serif:id="Protein 1" transform="matrix(0.181285,-0.409014,0.409014,0.181285,22.8176,225.895)">
            <g transform="matrix(0.840554,0.541727,-0.541727,0.840554,85.8947,-51.8328)">
                <path d="M124.006,85.988C125.33,83.339 128.038,81.666 131,81.666C133.962,81.666 136.67,83.339 137.994,85.988C146.76,103.521 161.752,133.504 170.976,151.952C172.695,155.389 172.511,159.472 170.491,162.741C168.47,166.01 164.901,168 161.058,168C143.343,168 116.489,168 99.349,168C95.847,168 92.595,166.187 90.754,163.208C88.913,160.229 88.745,156.509 90.311,153.377C99.458,135.083 115.01,103.98 124.006,85.988Z" style="fill:rgb(229,57,53);"/>
            </g>
            <g transform="matrix(0.743085,0.669197,-0.669197,0.743085,192.959,2.19581)">
                <path d="M124.006,85.988C125.33,83.339 128.038,81.666 131,81.666C133.962,81.666 136.67,83.339 137.994,85.988C146.76,103.521 161.752,133.504 170.976,151.952C172.695,155.389 172.511,159.472 170.491,162.741C168.47,166.01 164.901,168 161.058,168C143.343,168 116.489,168 99.349,168C95.847,168 92.595,166.187 90.754,163.208C88.913,160.229 88.745,156.509 90.311,153.377C99.458,135.083 115.01,103.98 124.006,85.988Z" style="fill:rgb(229,57,53);"/>
            </g>
            <g transform="matrix(0.280559,0.959837,-0.959837,0.280559,348.427,114.691)">
                <path d="M124.006,85.988C125.33,83.339 128.038,81.666 131,81.666C133.962,81.666 136.67,83.339 137.994,85.988C146.76,103.521 161.752,133.504 170.976,151.952C172.695,155.389 172.511,159.472 170.491,162.741C168.47,166.01 164.901,168 161.058,168C143.343,168 116.489,168 99.349,168C95.847,168 92.595,166.187 90.754,163.208C88.913,160.229 88.745,156.509 90.311,153.377C99.458,135.083 115.01,103.98 124.006,85.988Z" style="fill:rgb(229,57,53);"/>
            </g>
            <g transform="matrix(0.592233,0.805767,-0.805767,0.592233,322.145,165.407)">
                <path d="M124.006,85.988C125.33,83.339 128.038,81.666 131,81.666C133.962,81.666 136.67,83.339 137.994,85.988C146.76,103.521 161.752,133.504 170.976,151.952C172.695,155.389 172.511,159.472 170.491,162.741C168.47,166.01 164.901,168 161.058,168C143.343,168 116.489,168 99.349,168C95.847,168 92.595,166.187 90.754,163.208C88.913,160.229 88.745,156.509 90.311,153.377C99.458,135.083 115.01,103.98 124.006,85.988Z" style="fill:rgb(229,57,53);"/>
            </g>
            <g transform="matrix(0.823686,0.567047,-0.567047,0.823686,317.253,220.321)">
                <path d="M124.006,85.988C125.33,83.339 128.038,81.666 131,81.666C133.962,81.666 136.67,83.339 137.994,85.988C146.76,103.521 161.752,133.504 170.976,151.952C172.695,155.389 172.511,159.472 170.491,162.741C168.47,166.01 164.901,168 161.058,168C143.343,168 116.489,168 99.349,168C95.847,168 92.595,166.187 90.754,163.208C88.913,160.229 88.745,156.509 90.311,153.377C99.458,135.083 115.01,103.98 124.006,85.988Z" style="fill:rgb(229,57,53);"/>
            </g>
        </g>
        <g id="Protein-3" serif:id="Protein 3">
            <g transform="matrix(0.355165,-0.097167,0.097167,0.355165,134.436,213.833)">
                <path d="M195,217.5C195,205.634 185.366,196 173.5,196L130.5,196C118.634,196 109,205.634 109,217.5L109,260.5C109,272.366 118.634,282 130.5,282L173.5,282C185.366,282 195,272.366 195,260.5L195,217.5Z" style="fill:rgb(0,172,193);"/>
            </g>
            <g transform="matrix(0.355165,-0.097167,0.097167,0.355165,167.604,215.066)">
                <path d="M195,217.5C195,205.634 185.366,196 173.5,196L130.5,196C118.634,196 109,205.634 109,217.5L109,260.5C109,272.366 118.634,282 130.5,282L173.5,282C185.366,282 195,272.366 195,260.5L195,217.5Z" style="fill:rgb(0,172,193);"/>
            </g>
            <g transform="matrix(0.355165,-0.097167,0.097167,0.355165,196.205,199.607)">
                <path d="M195,217.5C195,205.634 185.366,196 173.5,196L130.5,196C118.634,196 109,205.634 109,217.5L109,260.5C109,272.366 118.634,282 130.5,282L173.5,282C185.366,282 195,272.366 195,260.5L195,217.5Z" style="fill:rgb(0,172,193);"/>
            </g>
        </g>
        <g transform="matrix(1,0,0,1,0.500693,-31.9662)">
            <circle cx="193.5" cy="252.5" r="135.5" style="fill:rgb(235,235,235);fill-opacity:0;stroke:rgb(84,110,122);stroke-width:8px;"/>
        </g>
    </g>
    <g id="Digested-sample" serif:id="Digested sample" transform="matrix(1,0,0,1,1,-81.0338)">
        <g id="_-Ellipse-" serif:id="(Ellipse)" transform="matrix(1,0,0,1,342.501,-31.9662)">
            <circle cx="193.5" cy="252.5" r="135.5" style="fill:rgb(235,235,235);fill-opacity:0;stroke:rgb(84,110,122);stroke-width:8px;"/>
        </g>
        <g transform="matrix(0.444667,0,0,0.444667,440.702,186.711)">
            <circle cx="120.5" cy="138.5" r="38.5" style="fill:rgb(124,179,66);"/>
        </g>
        <g transform="matrix(0.444667,0,0,0.444667,588.605,158.947)">
            <circle cx="120.5" cy="138.5" r="38.5" style="fill:rgb(124,179,66);"/>
        </g>
        <g transform="matrix(0.444667,0,0,0.444667,525.732,80.6991)">
            <circle cx="120.5" cy="138.5" r="38.5" style="fill:rgb(124,179,66);"/>
        </g>
        <g transform="matrix(0.444667,0,0,0.444667,529.635,233.248)">
            <circle cx="120.5" cy="138.5" r="38.5" style="fill:rgb(124,179,66);"/>
        </g>
        <g transform="matrix(0.444667,0,0,0.444667,412.298,84.6991)">
            <circle cx="120.5" cy="138.5" r="38.5" style="fill:rgb(124,179,66);"/>
        </g>
        <g transform="matrix(0.373954,-0.245592,0.245592,0.373954,380.285,187.34)">
            <path d="M124.006,85.988C125.33,83.339 128.038,81.666 131,81.666C133.962,81.666 136.67,83.339 137.994,85.988C146.76,103.521 161.752,133.504 170.976,151.952C172.695,155.389 172.511,159.472 170.491,162.741C168.47,166.01 164.901,168 161.058,168C143.343,168 116.489,168 99.349,168C95.847,168 92.595,166.187 90.754,163.208C88.913,160.229 88.745,156.509 90.311,153.377C99.458,135.083 115.01,103.98 124.006,85.988Z" style="fill:rgb(229,57,53);"/>
        </g>
        <g transform="matrix(0.408421,-0.182617,0.182617,0.408421,525.598,153.188)">
            <path d="M124.006,85.988C125.33,83.339 128.038,81.666 131,81.666C133.962,81.666 136.67,83.339 137.994,85.988C146.76,103.521 161.752,133.504 170.976,151.952C172.695,155.389 172.511,159.472 170.491,162.741C168.47,166.01 164.901,168 161.058,168C143.343,168 116.489,168 99.349,168C95.847,168 92.595,166.187 90.754,163.208C88.913,160.229 88.745,156.509 90.311,153.377C99.458,135.083 115.01,103.98 124.006,85.988Z" style="fill:rgb(229,57,53);"/>
        </g>
        <g transform="matrix(0.443448,0.0592514,-0.0592514,0.443448,474.794,241.948)">
            <path d="M124.006,85.988C125.33,83.339 128.038,81.666 131,81.666C133.962,81.666 136.67,83.339 137.994,85.988C146.76,103.521 161.752,133.504 170.976,151.952C172.695,155.389 172.511,159.472 170.491,162.741C168.47,166.01 164.901,168 161.058,168C143.343,168 116.489,168 99.349,168C95.847,168 92.595,166.187 90.754,163.208C88.913,160.229 88.745,156.509 90.311,153.377C99.458,135.083 115.01,103.98 124.006,85.988Z" style="fill:rgb(229,57,53);"/>
        </g>
        <g transform="matrix(0.436933,-0.0961584,0.0961584,0.436933,558.773,221.937)">
            <path d="M124.006,85.988C125.33,83.339 128.038,81.666 131,81.666C133.962,81.666 136.67,83.339 137.994,85.988C146.76,103.521 161.752,133.504 170.976,151.952C172.695,155.389 172.511,159.472 170.491,162.741C168.47,166.01 164.901,168 161.058,168C143.343,168 116.489,168 99.349,168C95.847,168 92.595,166.187 90.754,163.208C88.913,160.229 88.745,156.509 90.311,153.377C99.458,135.083 115.01,103.98 124.006,85.988Z" style="fill:rgb(229,57,53);"/>
        </g>
        <g transform="matrix(0.381252,-0.234102,0.234102,0.381252,440.755,108.46)">
            <path d="M124.006,85.988C125.33,83.339 128.038,81.666 131,81.666C133.962,81.666 136.67,83.339 137.994,85.988C146.76,103.521 161.752,133.504 170.976,151.952C172.695,155.389 172.511,159.472 170.491,162.741C168.47,166.01 164.901,168 161.058,168C143.343,168 116.489,168 99.349,168C95.847,168 92.595,166.187 90.754,163.208C88.913,160.229 88.745,156.509 90.311,153.377C99.458,135.083 115.01,103.98 124.006,85.988Z" style="fill:rgb(229,57,53);"/>
        </g>
        <g transform="matrix(0.355165,-0.097167,0.097167,0.355165,458.005,174.035)">
            <path d="M195,217.5C195,205.634 185.366,196 173.5,196L130.5,196C118.634,196 109,205.634 109,217.5L109,260.5C109,272.366 118.634,282 130.5,282L173.5,282C185.366,282 195,272.366 195,260.5L195,217.5Z" style="fill:rgb(0,172,193);"/>
        </g>
        <g transform="matrix(0.355165,-0.097167,0.097167,0.355165,376.173,207.336)">
            <path d="M195,217.5C195,205.634 185.366,196 173.5,196L130.5,196C118.634,196 109,205.634 109,217.5L109,260.5C109,272.366 118.634,282 130.5,282L173.5,282C185.366,282 195,272.366 195,260.5L195,217.5Z" style="fill:rgb(0,172,193);"/>
        </g>
        <g transform="matrix(0.355165,-0.097167,0.097167,0.355165,475.649,115.656)">
            <path d="M195,217.5C195,205.634 185.366,196 173.5,196L130.5,196C118.634,196 109,205.634 109,217.5L109,260.5C109,272.366 118.634,282 130.5,282L173.5,282C185.366,282 195,272.366 195,260.5L195,217.5Z" style="fill:rgb(0,172,193);"/>
        </g>
    </g>
    <g transform="matrix(0.14944,0,0,0.14944,799.644,17.2091)">
        <path d="M472.66,534.83C468.641,534.83 465.375,531.572 465.375,527.549L465.191,199.339C465.191,195.319 468.449,192.054 472.472,192.054L472.476,192.054C476.496,192.054 479.762,195.311 479.762,199.335L479.945,527.545C479.945,531.572 476.687,534.834 472.66,534.834L472.66,534.83Z" style="fill:rgb(84,110,122);fill-rule:nonzero;"/>
        <path d="M491.4,534.83C487.373,534.83 484.115,531.572 484.115,527.545L484.115,515.873C484.115,511.845 487.373,508.588 491.4,508.588C495.427,508.588 498.685,511.845 498.685,515.873L498.685,527.545C498.689,531.572 495.427,534.83 491.4,534.83Z" style="fill:rgb(84,110,122);fill-rule:nonzero;"/>
        <path d="M510.15,534.83C506.123,534.83 502.865,531.572 502.865,527.545L502.865,450.166C502.865,446.138 506.123,442.881 510.15,442.881C514.177,442.881 517.435,446.138 517.435,450.166L517.435,527.545C517.435,531.572 514.177,534.83 510.15,534.83Z" style="fill:rgb(84,110,122);fill-rule:nonzero;"/>
        <path d="M528.59,534.83C524.563,534.83 521.305,531.572 521.305,527.545L521.305,513.479C521.305,509.451 524.563,506.194 528.59,506.194C532.617,506.194 535.875,509.451 535.875,513.479L535.875,527.545C535.875,531.572 532.617,534.83 528.59,534.83Z" style="fill:rgb(84,110,122);fill-rule:nonzero;"/>
        <path d="M103.04,539.95C97.849,539.95 93.638,535.743 93.638,530.548L93.638,26.148C93.638,20.956 97.849,16.745 103.04,16.745C108.231,16.745 112.442,20.956 112.442,26.148L112.442,530.548C112.442,535.747 108.231,539.95 103.04,539.95Z" style="fill:rgb(84,110,122);fill-rule:nonzero;"/>
        <path d="M596.96,539.95L103.04,539.95C97.849,539.95 93.638,535.739 93.638,530.544C93.638,525.349 97.849,521.138 103.04,521.138L596.96,521.138C602.155,521.138 606.362,525.349 606.362,530.544C606.362,535.739 602.155,539.95 596.96,539.95Z" style="fill:rgb(84,110,122);fill-rule:nonzero;"/>
        <path d="M135.23,534.83C131.211,534.83 127.945,531.572 127.945,527.545L127.941,499.404C127.941,495.376 131.206,492.119 135.226,492.119C139.246,492.119 142.511,495.376 142.511,499.404L142.511,527.545C142.515,531.572 139.25,534.83 135.23,534.83L135.23,534.83Z" style="fill:rgb(84,110,122);fill-rule:nonzero;"/>
        <path d="M153.98,534.83C149.961,534.83 146.695,531.572 146.695,527.545L146.695,513.479C146.695,509.451 149.96,506.194 153.98,506.194C158,506.194 161.265,509.451 161.265,513.479L161.265,527.545C161.257,531.572 158,534.83 153.98,534.83Z" style="fill:rgb(84,110,122);fill-rule:nonzero;"/>
        <path d="M172.72,534.83C168.701,534.83 165.435,531.572 165.435,527.545L165.431,328.225C165.431,324.198 168.696,320.94 172.716,320.94C176.736,320.94 180.001,324.197 180.001,328.225L180.001,527.555C180.005,531.574 176.74,534.832 172.72,534.832L172.72,534.83Z" style="fill:rgb(84,110,122);fill-rule:nonzero;"/>
        <path d="M191.51,534.83C187.491,534.83 184.225,531.572 184.225,527.545L184.225,239.025C184.225,235.005 187.49,231.74 191.51,231.74C195.529,231.74 198.795,235.005 198.795,239.025L198.795,527.545C198.795,531.564 195.537,534.822 191.51,534.822L191.51,534.83Z" style="fill:rgb(84,110,122);fill-rule:nonzero;"/>
        <path d="M210.26,534.83C206.241,534.83 202.975,531.572 202.975,527.545L202.975,477.693C202.975,473.666 206.24,470.408 210.26,470.408C214.28,470.408 217.545,473.665 217.545,477.693L217.545,527.545C217.545,531.572 214.284,534.83 210.26,534.83Z" style="fill:rgb(84,110,122);fill-rule:nonzero;"/>
        <path d="M229.04,534.83C225.021,534.83 221.755,531.572 221.755,527.545L221.755,478.291C221.755,474.263 225.02,471.006 229.04,471.006C233.059,471.006 236.325,474.263 236.325,478.291L236.325,527.545C236.325,531.572 233.06,534.83 229.04,534.83Z" style="fill:rgb(84,110,122);fill-rule:nonzero;"/>
        <path d="M247.78,534.83C243.761,534.83 240.495,531.572 240.495,527.545L240.495,502.943C240.495,498.916 243.76,495.658 247.78,495.658C251.8,495.658 255.065,498.915 255.065,502.943L255.065,527.545C255.069,531.572 251.804,534.83 247.78,534.83Z" style="fill:rgb(84,110,122);fill-rule:nonzero;"/>
        <path d="M266.55,534.83C262.531,534.83 259.265,531.572 259.265,527.545L259.265,502.943C259.265,498.916 262.53,495.658 266.55,495.658C270.57,495.658 273.835,498.915 273.835,502.943L273.835,527.545C273.831,531.572 270.573,534.83 266.55,534.83Z" style="fill:rgb(84,110,122);fill-rule:nonzero;"/>
        <path d="M285.29,534.83C281.271,534.83 278.005,531.572 278.005,527.545L278.005,513.479C278.005,509.451 281.27,506.194 285.29,506.194C289.31,506.194 292.575,509.451 292.575,513.479L292.575,527.545C292.575,531.572 289.313,534.83 285.29,534.83Z" style="fill:rgb(84,110,122);fill-rule:nonzero;"/>
        <path d="M304.07,534.83C300.051,534.83 296.785,531.572 296.785,527.545L296.785,502.943C296.785,498.916 300.05,495.658 304.07,495.658C308.09,495.658 311.355,498.915 311.355,502.943L311.355,527.545C311.355,531.572 308.09,534.83 304.07,534.83Z" style="fill:rgb(84,110,122);fill-rule:nonzero;"/>
        <path d="M323.16,534.83C319.141,534.83 315.875,531.572 315.875,527.545L315.875,70.055C315.875,66.035 319.14,62.77 323.16,62.77C327.18,62.77 330.445,66.035 330.445,70.055L330.445,527.555C330.445,531.578 327.18,534.836 323.16,534.836L323.16,534.83Z" style="fill:rgb(84,110,122);fill-rule:nonzero;"/>
        <path d="M341.92,534.83C337.932,534.83 334.678,531.615 334.639,527.619L334.447,508.26C334.408,504.233 337.639,500.94 341.658,500.909C345.748,501.065 348.979,504.1 349.01,508.119L349.201,527.478C349.24,531.506 346.01,534.799 341.99,534.83L341.92,534.83Z" style="fill:rgb(84,110,122);fill-rule:nonzero;"/>
        <path d="M360.67,534.83C356.651,534.83 353.385,531.572 353.385,527.545L353.385,203.695C353.385,199.675 356.65,196.41 360.67,196.41C364.697,196.41 367.955,199.675 367.955,203.695L367.955,527.555C367.955,531.574 364.697,534.832 360.67,534.832L360.67,534.83Z" style="fill:rgb(84,110,122);fill-rule:nonzero;"/>
        <path d="M379.43,534.83C375.403,534.83 372.145,531.572 372.145,527.545L372.145,450.166C372.145,446.138 375.403,442.881 379.43,442.881C383.457,442.881 386.715,446.138 386.715,450.166L386.715,527.545C386.715,531.572 383.457,534.83 379.43,534.83Z" style="fill:rgb(84,110,122);fill-rule:nonzero;"/>
        <path d="M435.37,534.83C431.343,534.83 428.085,531.572 428.085,527.545L428.085,502.943C428.085,498.916 431.343,495.658 435.37,495.658C439.397,495.658 442.655,498.915 442.655,502.943L442.655,527.545C442.651,531.572 439.393,534.83 435.37,534.83Z" style="fill:rgb(84,110,122);fill-rule:nonzero;"/>
        <path d="M397.86,534.83C393.833,534.83 390.575,531.572 390.575,527.545L390.575,513.479C390.575,509.451 393.833,506.194 397.86,506.194C401.887,506.194 405.145,509.451 405.145,513.479L405.145,527.545C405.145,531.572 401.887,534.83 397.86,534.83Z" style="fill:rgb(84,110,122);fill-rule:nonzero;"/>
        <path d="M453.9,534.83C449.873,534.83 446.615,531.572 446.615,527.545L446.611,345.145C446.611,341.118 449.869,337.86 453.896,337.86C457.923,337.86 461.181,341.117 461.181,345.145L461.181,527.545C461.185,531.572 457.923,534.83 453.9,534.83L453.9,534.83Z" style="fill:rgb(84,110,122);fill-rule:nonzero;"/>
        <path d="M416.64,534.83C412.613,534.83 409.355,531.572 409.355,527.545L409.355,513.479C409.355,509.451 412.613,506.194 416.64,506.194C420.667,506.194 423.925,509.451 423.925,513.479L423.925,527.545C423.925,531.572 420.667,534.83 416.64,534.83Z" style="fill:rgb(84,110,122);fill-rule:nonzero;"/>
    </g>
    <g transform="matrix(0.14944,0,0,0.14944,874.531,107.209)">
        <path d="M472.66,534.83C468.641,534.83 465.375,531.572 465.375,527.549L465.191,199.339C465.191,195.319 468.449,192.054 472.472,192.054L472.476,192.054C476.496,192.054 479.762,195.311 479.762,199.335L479.945,527.545C479.945,531.572 476.687,534.834 472.66,534.834L472.66,534.83Z" style="fill:rgb(84,110,122);fill-rule:nonzero;"/>
        <path d="M491.4,534.83C487.373,534.83 484.115,531.572 484.115,527.545L484.115,515.873C484.115,511.845 487.373,508.588 491.4,508.588C495.427,508.588 498.685,511.845 498.685,515.873L498.685,527.545C498.689,531.572 495.427,534.83 491.4,534.83Z" style="fill:rgb(84,110,122);fill-rule:nonzero;"/>
        <path d="M510.15,534.83C506.123,534.83 502.865,531.572 502.865,527.545L502.865,450.166C502.865,446.138 506.123,442.881 510.15,442.881C514.177,442.881 517.435,446.138 517.435,450.166L517.435,527.545C517.435,531.572 514.177,534.83 510.15,534.83Z" style="fill:rgb(84,110,122);fill-rule:nonzero;"/>
        <path d="M528.59,534.83C524.563,534.83 521.305,531.572 521.305,527.545L521.305,513.479C521.305,509.451 524.563,506.194 528.59,506.194C532.617,506.194 535.875,509.451 535.875,513.479L535.875,527.545C535.875,531.572 532.617,534.83 528.59,534.83Z" style="fill:rgb(84,110,122);fill-rule:nonzero;"/>
        <path d="M103.04,539.95C97.849,539.95 93.638,535.743 93.638,530.548L93.638,26.148C93.638,20.956 97.849,16.745 103.04,16.745C108.231,16.745 112.442,20.956 112.442,26.148L112.442,530.548C112.442,535.747 108.231,539.95 103.04,539.95Z" style="fill:rgb(84,110,122);fill-rule:nonzero;"/>
        <path d="M596.96,539.95L103.04,539.95C97.849,539.95 93.638,535.739 93.638,530.544C93.638,525.349 97.849,521.138 103.04,521.138L596.96,521.138C602.155,521.138 606.362,525.349 606.362,530.544C606.362,535.739 602.155,539.95 596.96,539.95Z" style="fill:rgb(84,110,122);fill-rule:nonzero;"/>
        <path d="M135.23,534.83C131.211,534.83 127.945,531.572 127.945,527.545L127.941,499.404C127.941,495.376 131.206,492.119 135.226,492.119C139.246,492.119 142.511,495.376 142.511,499.404L142.511,527.545C142.515,531.572 139.25,534.83 135.23,534.83L135.23,534.83Z" style="fill:rgb(84,110,122);fill-rule:nonzero;"/>
        <path d="M153.98,534.83C149.961,534.83 146.695,531.572 146.695,527.545L146.695,513.479C146.695,509.451 149.96,506.194 153.98,506.194C158,506.194 161.265,509.451 161.265,513.479L161.265,527.545C161.257,531.572 158,534.83 153.98,534.83Z" style="fill:rgb(84,110,122);fill-rule:nonzero;"/>
        <path d="M172.72,534.83C168.701,534.83 165.435,531.572 165.435,527.545L165.431,328.225C165.431,324.198 168.696,320.94 172.716,320.94C176.736,320.94 180.001,324.197 180.001,328.225L180.001,527.555C180.005,531.574 176.74,534.832 172.72,534.832L172.72,534.83Z" style="fill:rgb(84,110,122);fill-rule:nonzero;"/>
        <path d="M191.51,534.83C187.491,534.83 184.225,531.572 184.225,527.545L184.225,239.025C184.225,235.005 187.49,231.74 191.51,231.74C195.529,231.74 198.795,235.005 198.795,239.025L198.795,527.545C198.795,531.564 195.537,534.822 191.51,534.822L191.51,534.83Z" style="fill:rgb(84,110,122);fill-rule:nonzero;"/>
        <path d="M210.26,534.83C206.241,534.83 202.975,531.572 202.975,527.545L202.975,477.693C202.975,473.666 206.24,470.408 210.26,470.408C214.28,470.408 217.545,473.665 217.545,477.693L217.545,527.545C217.545,531.572 214.284,534.83 210.26,534.83Z" style="fill:rgb(84,110,122);fill-rule:nonzero;"/>
        <path d="M229.04,534.83C225.021,534.83 221.755,531.572 221.755,527.545L221.755,478.291C221.755,474.263 225.02,471.006 229.04,471.006C233.059,471.006 236.325,474.263 236.325,478.291L236.325,527.545C236.325,531.572 233.06,534.83 229.04,534.83Z" style="fill:rgb(84,110,122);fill-rule:nonzero;"/>
        <path d="M247.78,534.83C243.761,534.83 240.495,531.572 240.495,527.545L240.495,502.943C240.495,498.916 243.76,495.658 247.78,495.658C251.8,495.658 255.065,498.915 255.065,502.943L255.065,527.545C255.069,531.572 251.804,534.83 247.78,534.83Z" style="fill:rgb(84,110,122);fill-rule:nonzero;"/>
        <path d="M266.55,534.83C262.531,534.83 259.265,531.572 259.265,527.545L259.265,502.943C259.265,498.916 262.53,495.658 266.55,495.658C270.57,495.658 273.835,498.915 273.835,502.943L273.835,527.545C273.831,531.572 270.573,534.83 266.55,534.83Z" style="fill:rgb(84,110,122);fill-rule:nonzero;"/>
        <path d="M285.29,534.83C281.271,534.83 278.005,531.572 278.005,527.545L278.005,513.479C278.005,509.451 281.27,506.194 285.29,506.194C289.31,506.194 292.575,509.451 292.575,513.479L292.575,527.545C292.575,531.572 289.313,534.83 285.29,534.83Z" style="fill:rgb(84,110,122);fill-rule:nonzero;"/>
        <path d="M304.07,534.83C300.051,534.83 296.785,531.572 296.785,527.545L296.785,502.943C296.785,498.916 300.05,495.658 304.07,495.658C308.09,495.658 311.355,498.915 311.355,502.943L311.355,527.545C311.355,531.572 308.09,534.83 304.07,534.83Z" style="fill:rgb(84,110,122);fill-rule:nonzero;"/>
        <path d="M323.16,534.83C319.141,534.83 315.875,531.572 315.875,527.545L315.875,70.055C315.875,66.035 319.14,62.77 323.16,62.77C327.18,62.77 330.445,66.035 330.445,70.055L330.445,527.555C330.445,531.578 327.18,534.836 323.16,534.836L323.16,534.83Z" style="fill:rgb(84,110,122);fill-rule:nonzero;"/>
        <path d="M341.92,534.83C337.932,534.83 334.678,531.615 334.639,527.619L334.447,508.26C334.408,504.233 337.639,500.94 341.658,500.909C345.748,501.065 348.979,504.1 349.01,508.119L349.201,527.478C349.24,531.506 346.01,534.799 341.99,534.83L341.92,534.83Z" style="fill:rgb(84,110,122);fill-rule:nonzero;"/>
        <path d="M360.67,534.83C356.651,534.83 353.385,531.572 353.385,527.545L353.385,203.695C353.385,199.675 356.65,196.41 360.67,196.41C364.697,196.41 367.955,199.675 367.955,203.695L367.955,527.555C367.955,531.574 364.697,534.832 360.67,534.832L360.67,534.83Z" style="fill:rgb(84,110,122);fill-rule:nonzero;"/>
        <path d="M379.43,534.83C375.403,534.83 372.145,531.572 372.145,527.545L372.145,450.166C372.145,446.138 375.403,442.881 379.43,442.881C383.457,442.881 386.715,446.138 386.715,450.166L386.715,527.545C386.715,531.572 383.457,534.83 379.43,534.83Z" style="fill:rgb(84,110,122);fill-rule:nonzero;"/>
        <path d="M435.37,534.83C431.343,534.83 428.085,531.572 428.085,527.545L428.085,502.943C428.085,498.916 431.343,495.658 435.37,495.658C439.397,495.658 442.655,498.915 442.655,502.943L442.655,527.545C442.651,531.572 439.393,534.83 435.37,534.83Z" style="fill:rgb(84,110,122);fill-rule:nonzero;"/>
        <path d="M397.86,534.83C393.833,534.83 390.575,531.572 390.575,527.545L390.575,513.479C390.575,509.451 393.833,506.194 397.86,506.194C401.887,506.194 405.145,509.451 405.145,513.479L405.145,527.545C405.145,531.572 401.887,534.83 397.86,534.83Z" style="fill:rgb(84,110,122);fill-rule:nonzero;"/>
        <path d="M453.9,534.83C449.873,534.83 446.615,531.572 446.615,527.545L446.611,345.145C446.611,341.118 449.869,337.86 453.896,337.86C457.923,337.86 461.181,341.117 461.181,345.145L461.181,527.545C461.185,531.572 457.923,534.83 453.9,534.83L453.9,534.83Z" style="fill:rgb(84,110,122);fill-rule:nonzero;"/>
        <path d="M416.64,534.83C412.613,534.83 409.355,531.572 409.355,527.545L409.355,513.479C409.355,509.451 412.613,506.194 416.64,506.194C420.667,506.194 423.925,509.451 423.925,513.479L423.925,527.545C423.925,531.572 420.667,534.83 416.64,534.83Z" style="fill:rgb(84,110,122);fill-rule:nonzero;"/>
    </g>
    <g transform="matrix(0.14944,0,0,0.14944,799.644,174.209)">
        <path d="M472.66,534.83C468.641,534.83 465.375,531.572 465.375,527.549L465.191,199.339C465.191,195.319 468.449,192.054 472.472,192.054L472.476,192.054C476.496,192.054 479.762,195.311 479.762,199.335L479.945,527.545C479.945,531.572 476.687,534.834 472.66,534.834L472.66,534.83Z" style="fill:rgb(84,110,122);fill-rule:nonzero;"/>
        <path d="M491.4,534.83C487.373,534.83 484.115,531.572 484.115,527.545L484.115,515.873C484.115,511.845 487.373,508.588 491.4,508.588C495.427,508.588 498.685,511.845 498.685,515.873L498.685,527.545C498.689,531.572 495.427,534.83 491.4,534.83Z" style="fill:rgb(84,110,122);fill-rule:nonzero;"/>
        <path d="M510.15,534.83C506.123,534.83 502.865,531.572 502.865,527.545L502.865,450.166C502.865,446.138 506.123,442.881 510.15,442.881C514.177,442.881 517.435,446.138 517.435,450.166L517.435,527.545C517.435,531.572 514.177,534.83 510.15,534.83Z" style="fill:rgb(84,110,122);fill-rule:nonzero;"/>
        <path d="M528.59,534.83C524.563,534.83 521.305,531.572 521.305,527.545L521.305,513.479C521.305,509.451 524.563,506.194 528.59,506.194C532.617,506.194 535.875,509.451 535.875,513.479L535.875,527.545C535.875,531.572 532.617,534.83 528.59,534.83Z" style="fill:rgb(84,110,122);fill-rule:nonzero;"/>
        <path d="M103.04,539.95C97.849,539.95 93.638,535.743 93.638,530.548L93.638,26.148C93.638,20.956 97.849,16.745 103.04,16.745C108.231,16.745 112.442,20.956 112.442,26.148L112.442,530.548C112.442,535.747 108.231,539.95 103.04,539.95Z" style="fill:rgb(84,110,122);fill-rule:nonzero;"/>
        <path d="M596.96,539.95L103.04,539.95C97.849,539.95 93.638,535.739 93.638,530.544C93.638,525.349 97.849,521.138 103.04,521.138L596.96,521.138C602.155,521.138 606.362,525.349 606.362,530.544C606.362,535.739 602.155,539.95 596.96,539.95Z" style="fill:rgb(84,110,122);fill-rule:nonzero;"/>
        <path d="M135.23,534.83C131.211,534.83 127.945,531.572 127.945,527.545L127.941,499.404C127.941,495.376 131.206,492.119 135.226,492.119C139.246,492.119 142.511,495.376 142.511,499.404L142.511,527.545C142.515,531.572 139.25,534.83 135.23,534.83L135.23,534.83Z" style="fill:rgb(84,110,122);fill-rule:nonzero;"/>
        <path d="M153.98,534.83C149.961,534.83 146.695,531.572 146.695,527.545L146.695,513.479C146.695,509.451 149.96,506.194 153.98,506.194C158,506.194 161.265,509.451 161.265,513.479L161.265,527.545C161.257,531.572 158,534.83 153.98,534.83Z" style="fill:rgb(84,110,122);fill-rule:nonzero;"/>
        <path d="M172.72,534.83C168.701,534.83 165.435,531.572 165.435,527.545L165.431,328.225C165.431,324.198 168.696,320.94 172.716,320.94C176.736,320.94 180.001,324.197 180.001,328.225L180.001,527.555C180.005,531.574 176.74,534.832 172.72,534.832L172.72,534.83Z" style="fill:rgb(84,110,122);fill-rule:nonzero;"/>
        <path d="M191.51,534.83C187.491,534.83 184.225,531.572 184.225,527.545L184.225,239.025C184.225,235.005 187.49,231.74 191.51,231.74C195.529,231.74 198.795,235.005 198.795,239.025L198.795,527.545C198.795,531.564 195.537,534.822 191.51,534.822L191.51,534.83Z" style="fill:rgb(84,110,122);fill-rule:nonzero;"/>
        <path d="M210.26,534.83C206.241,534.83 202.975,531.572 202.975,527.545L202.975,477.693C202.975,473.666 206.24,470.408 210.26,470.408C214.28,470.408 217.545,473.665 217.545,477.693L217.545,527.545C217.545,531.572 214.284,534.83 210.26,534.83Z" style="fill:rgb(84,110,122);fill-rule:nonzero;"/>
        <path d="M229.04,534.83C225.021,534.83 221.755,531.572 221.755,527.545L221.755,478.291C221.755,474.263 225.02,471.006 229.04,471.006C233.059,471.006 236.325,474.263 236.325,478.291L236.325,527.545C236.325,531.572 233.06,534.83 229.04,534.83Z" style="fill:rgb(84,110,122);fill-rule:nonzero;"/>
        <path d="M247.78,534.83C243.761,534.83 240.495,531.572 240.495,527.545L240.495,502.943C240.495,498.916 243.76,495.658 247.78,495.658C251.8,495.658 255.065,498.915 255.065,502.943L255.065,527.545C255.069,531.572 251.804,534.83 247.78,534.83Z" style="fill:rgb(84,110,122);fill-rule:nonzero;"/>
        <path d="M266.55,534.83C262.531,534.83 259.265,531.572 259.265,527.545L259.265,502.943C259.265,498.916 262.53,495.658 266.55,495.658C270.57,495.658 273.835,498.915 273.835,502.943L273.835,527.545C273.831,531.572 270.573,534.83 266.55,534.83Z" style="fill:rgb(84,110,122);fill-rule:nonzero;"/>
        <path d="M285.29,534.83C281.271,534.83 278.005,531.572 278.005,527.545L278.005,513.479C278.005,509.451 281.27,506.194 285.29,506.194C289.31,506.194 292.575,509.451 292.575,513.479L292.575,527.545C292.575,531.572 289.313,534.83 285.29,534.83Z" style="fill:rgb(84,110,122);fill-rule:nonzero;"/>
        <path d="M304.07,534.83C300.051,534.83 296.785,531.572 296.785,527.545L296.785,502.943C296.785,498.916 300.05,495.658 304.07,495.658C308.09,495.658 311.355,498.915 311.355,502.943L311.355,527.545C311.355,531.572 308.09,534.83 304.07,534.83Z" style="fill:rgb(84,110,122);fill-rule:nonzero;"/>
        <path d="M323.16,534.83C319.141,534.83 315.875,531.572 315.875,527.545L315.875,70.055C315.875,66.035 319.14,62.77 323.16,62.77C327.18,62.77 330.445,66.035 330.445,70.055L330.445,527.555C330.445,531.578 327.18,534.836 323.16,534.836L323.16,534.83Z" style="fill:rgb(84,110,122);fill-rule:nonzero;"/>
        <path d="M341.92,534.83C337.932,534.83 334.678,531.615 334.639,527.619L334.447,508.26C334.408,504.233 337.639,500.94 341.658,500.909C345.748,501.065 348.979,504.1 349.01,508.119L349.201,527.478C349.24,531.506 346.01,534.799 341.99,534.83L341.92,534.83Z" style="fill:rgb(84,110,122);fill-rule:nonzero;"/>
        <path d="M360.67,534.83C356.651,534.83 353.385,531.572 353.385,527.545L353.385,203.695C353.385,199.675 356.65,196.41 360.67,196.41C364.697,196.41 367.955,199.675 367.955,203.695L367.955,527.555C367.955,531.574 364.697,534.832 360.67,534.832L360.67,534.83Z" style="fill:rgb(84,110,122);fill-rule:nonzero;"/>
        <path d="M379.43,534.83C375.403,534.83 372.145,531.572 372.145,527.545L372.145,450.166C372.145,446.138 375.403,442.881 379.43,442.881C383.457,442.881 386.715,446.138 386.715,450.166L386.715,527.545C386.715,531.572 383.457,534.83 379.43,534.83Z" style="fill:rgb(84,110,122);fill-rule:nonzero;"/>
        <path d="M435.37,534.83C431.343,534.83 428.085,531.572 428.085,527.545L428.085,502.943C428.085,498.916 431.343,495.658 435.37,495.658C439.397,495.658 442.655,498.915 442.655,502.943L442.655,527.545C442.651,531.572 439.393,534.83 435.37,534.83Z" style="fill:rgb(84,110,122);fill-rule:nonzero;"/>
        <path d="M397.86,534.83C393.833,534.83 390.575,531.572 390.575,527.545L390.575,513.479C390.575,509.451 393.833,506.194 397.86,506.194C401.887,506.194 405.145,509.451 405.145,513.479L405.145,527.545C405.145,531.572 401.887,534.83 397.86,534.83Z" style="fill:rgb(84,110,122);fill-rule:nonzero;"/>
        <path d="M453.9,534.83C449.873,534.83 446.615,531.572 446.615,527.545L446.611,345.145C446.611,341.118 449.869,337.86 453.896,337.86C457.923,337.86 461.181,341.117 461.181,345.145L461.181,527.545C461.185,531.572 457.923,534.83 453.9,534.83L453.9,534.83Z" style="fill:rgb(84,110,122);fill-rule:nonzero;"/>
        <path d="M416.64,534.83C412.613,534.83 409.355,531.572 409.355,527.545L409.355,513.479C409.355,509.451 412.613,506.194 416.64,506.194C420.667,506.194 423.925,509.451 423.925,513.479L423.925,527.545C423.925,531.572 420.667,534.83 416.64,534.83Z" style="fill:rgb(84,110,122);fill-rule:nonzero;"/>
    </g>
    <g transform="matrix(1,0,0,1,-54,-87.5)">
        <path d="M344,237.85L344,216.15L409,216.15L409,196L440,227L409,258L409,237.85L344,237.85Z" style="fill:rgb(84,110,122);stroke:rgb(84,110,122);stroke-width:4px;"/>
    </g>
    <g transform="matrix(1,0,0,1,344,-87.5)">
        <path d="M344,237.85L344,216.15L409,216.15L409,196L440,227L409,258L409,237.85L344,237.85Z" style="fill:rgb(84,110,122);stroke:rgb(84,110,122);stroke-width:4px;"/>
    </g>
    <g transform="matrix(0.119856,0,0,0.119856,278.213,67.6282)">
        <path d="M601.66,124C557.43,107.582 535.305,124 535.305,124L314.345,247.82L308.611,244.461C308.611,244.461 271.982,206.969 219.443,206.969C219.443,206.969 216.603,207.832 212.427,208.766C231.634,195.61 244.275,173.532 244.275,148.532C244.275,108.297 211.545,75.571 171.314,75.571C131.08,75.571 98.353,108.297 98.353,148.532C98.353,180.844 119.47,208.278 148.607,217.848C166.029,226.164 192.377,236.792 219.451,240.344C219.451,240.344 253.498,248.812 279.08,270.356C253.494,291.887 219.451,300.344 219.451,300.344C192.377,303.898 166.025,314.528 148.607,322.844C119.459,332.414 98.341,359.86 98.341,392.168C98.341,432.41 131.068,465.129 171.302,465.129C211.532,465.129 244.263,432.402 244.263,392.168C244.263,367.188 231.622,345.082 212.415,331.934C216.599,332.887 219.431,333.738 219.431,333.738C271.974,333.738 308.599,296.234 308.599,296.234L314.333,292.875L535.313,416.695C535.313,416.695 557.434,433.113 601.668,416.695L352.678,270.355L601.66,124ZM171.3,192.449C147.081,192.449 127.366,172.738 127.366,148.527C127.366,124.308 147.077,104.601 171.3,104.601C195.515,104.601 215.222,124.312 215.222,148.527C215.23,172.742 195.515,192.449 171.3,192.449ZM215.23,392.159C215.23,416.374 195.519,436.085 171.308,436.085C147.089,436.085 127.374,416.374 127.374,392.159C127.374,367.944 147.085,348.233 171.308,348.233C195.515,348.237 215.23,367.944 215.23,392.159ZM315.78,281.629C309.542,281.629 304.495,276.59 304.495,270.363C304.495,264.125 309.542,259.078 315.78,259.078C322.003,259.078 327.046,264.125 327.046,270.363C327.05,276.586 322.003,281.629 315.78,281.629Z" style="fill:rgb(84,110,122);fill-rule:nonzero;"/>
    </g>
    <g transform="matrix(1,0,0,1,4,-11.8348)">
        <text x="294.982px" y="208.335px" style="font-family:'Roboto-Regular', 'Roboto';font-size:24px;fill:rgb(84,110,122);">T<tspan x="308.424px 316.756px " y="208.335px 208.335px ">ry</tspan>psin</text>
    </g>
    <g transform="matrix(1,0,0,1,402,-11.8348)">
        <text x="304.621px" y="208.335px" style="font-family:'Roboto-Regular', 'Roboto';font-size:24px;fill:rgb(84,110,122);">Mass</text>
        <text x="308.441px" y="232.335px" style="font-family:'Roboto-Regular', 'Roboto';font-size:24px;fill:rgb(84,110,122);">spec</text>
    </g>
    <g transform="matrix(0.116283,0,0,0.116283,675.79,62.4863)">
        <path d="M367.5,297.5L507.5,297.5C517.172,297.5 525,289.672 525,280L525,70C525,60.328 517.172,52.5 507.5,52.5L367.5,52.5C357.836,52.5 350,60.328 350,70L350,280C350,289.672 357.836,297.5 367.5,297.5ZM437.5,280C427.836,280 420,272.164 420,262.5C420,252.836 427.836,245 437.5,245C447.164,245 455,252.836 455,262.5C455,272.164 447.164,280 437.5,280ZM490,280C480.336,280 472.5,272.164 472.5,262.5C472.5,252.836 480.336,245 490,245C499.664,245 507.5,252.836 507.5,262.5C507.5,272.164 499.664,280 490,280ZM367.5,175C367.5,165.328 375.328,157.5 385,157.5L490,157.5C499.672,157.5 507.5,165.328 507.5,175L507.5,210C507.5,219.672 499.672,227.5 490,227.5L385,227.5C375.328,227.5 367.5,219.672 367.5,210L367.5,175ZM385,245C394.664,245 402.5,252.836 402.5,262.5C402.5,272.164 394.664,280 385,280C375.336,280 367.5,272.164 367.5,262.5C367.5,252.836 375.336,245 385,245Z" style="fill:rgb(84,110,122);fill-rule:nonzero;"/>
    </g>
    <g transform="matrix(0.116283,0,0,0.116283,675.79,62.4863)">
        <path d="M577.5,140L542.5,140L542.5,297.5C542.5,307.164 534.664,315 525,315L350,315C340.336,315 332.5,307.164 332.5,297.5L332.5,140L122.5,140C112.836,140 105,147.836 105,157.5L105,490C105,499.664 112.836,507.5 122.5,507.5L140,507.5L140,350C140,340.336 147.836,332.5 157.5,332.5L315,332.5C324.664,332.5 332.5,340.336 332.5,350L332.5,507.5L577.5,507.5C587.164,507.5 595,499.664 595,490L595,157.5C595,147.836 587.164,140 577.5,140ZM455,420C455,400.707 470.707,385 490,385C496.469,385 502.461,386.887 507.664,389.961L459.961,437.664C456.887,432.461 455,426.469 455,420L455,420ZM490,455C483.531,455 477.539,453.113 472.336,450.039L520.039,402.336C523.113,407.539 525,413.531 525,420C525,439.293 509.293,455 490,455L490,455Z" style="fill:rgb(84,110,122);fill-rule:nonzero;"/>
    </g>
    <g transform="matrix(0.116283,0,0,0.116283,675.79,62.4863)">
        <path d="M297.5,350L175,350C165.336,350 157.5,357.828 157.5,367.5L157.5,507.5L315,507.5L315,367.5C315,357.828 307.164,350 297.5,350Z" style="fill:rgb(84,110,122);fill-rule:nonzero;"/>
    </g>
    <g transform="matrix(0.493634,0,0,0.569388,715.753,-19.9286)">
        <path d="M183.75,35C169.254,35 157.5,46.754 157.5,61.25L157.5,498.75C157.5,513.246 169.254,525 183.75,525L516.25,525C530.746,525 542.5,513.246 542.5,498.75L542.5,148.75C542.5,146.43 541.578,144.203 539.938,142.563L434.938,37.563C433.297,35.922 431.07,35 428.75,35L183.75,35ZM175,61.25C175,56.418 178.918,52.5 183.75,52.5L420,52.5L420,131.25C420,145.746 431.754,157.5 446.25,157.5L525,157.5L525,498.75C525,503.582 521.082,507.5 516.25,507.5L183.75,507.5C178.918,507.5 175,503.582 175,498.75L175,61.25ZM512.62,140L437.495,64.875L437.495,131.25C437.495,136.082 441.413,140 446.245,140L512.62,140Z" style="fill:rgb(84,110,122);"/>
    </g>
</svg>
