<?xml version="1.0" encoding="UTF-8" standalone="no"?>
<!DOCTYPE svg PUBLIC "-//W3C//DTD SVG 1.1//EN" "http://www.w3.org/Graphics/SVG/1.1/DTD/svg11.dtd">
<svg width="100%" height="100%" viewBox="0 0 943 532" version="1.1" xmlns="http://www.w3.org/2000/svg" xmlns:xlink="http://www.w3.org/1999/xlink" xml:space="preserve" xmlns:serif="http://www.serif.com/" style="fill-rule:evenodd;clip-rule:evenodd;stroke-linejoin:round;stroke-miterlimit:2;">
    <g transform="matrix(1,0,0,1,121.299,37.9854)">
        <g id="Protein-2" serif:id="Protein 2" transform="matrix(0.473442,0,0,0.473442,420.013,-261.784)">
            <g transform="matrix(0.973036,-0.230652,0.230652,0.973036,89.1166,560.898)">
                <path d="M124.391,85.218C125.642,82.715 128.201,81.134 131,81.134C133.799,81.134 136.358,82.715 137.609,85.218C146.454,102.908 162.104,134.207 171.418,152.835C173.042,156.083 172.868,159.941 170.959,163.03C169.05,166.12 165.677,168 162.045,168L98.449,168C95.14,168 92.067,166.287 90.327,163.472C88.587,160.657 88.429,157.142 89.909,154.182C99.125,135.75 115.329,103.342 124.391,85.218Z" style="fill:rgb(30,136,229);"/>
            </g>
            <g transform="matrix(0.995217,-0.0976867,0.0976867,0.995217,196.714,523.818)">
                <path d="M124.391,85.218C125.642,82.715 128.201,81.134 131,81.134C133.799,81.134 136.358,82.715 137.609,85.218C146.454,102.908 162.104,134.207 171.418,152.835C173.042,156.083 172.868,159.941 170.959,163.03C169.05,166.12 165.677,168 162.045,168L98.449,168C95.14,168 92.067,166.287 90.327,163.472C88.587,160.657 88.429,157.142 89.909,154.182C99.125,135.75 115.329,103.342 124.391,85.218Z" style="fill:rgb(30,136,229);"/>
            </g>
            <g transform="matrix(0.996352,0.0853418,-0.0853418,0.996352,316.245,499.75)">
                <path d="M124.391,85.218C125.642,82.715 128.201,81.134 131,81.134C133.799,81.134 136.358,82.715 137.609,85.218C146.454,102.908 162.104,134.207 171.418,152.835C173.042,156.083 172.868,159.941 170.959,163.03C169.05,166.12 165.677,168 162.045,168L98.449,168C95.14,168 92.067,166.287 90.327,163.472C88.587,160.657 88.429,157.142 89.909,154.182C99.125,135.75 115.329,103.342 124.391,85.218Z" style="fill:rgb(30,136,229);"/>
            </g>
        </g>
        <g id="Protein-3" serif:id="Protein 3" transform="matrix(0.467391,0,0,0.467391,403.141,-149.098)">
            <g transform="matrix(1,0,0,1,551,418)">
                <circle cx="120.5" cy="138.5" r="38.5" style="fill:rgb(30,136,229);"/>
            </g>
            <g transform="matrix(1,0,0,1,576,351)">
                <circle cx="120.5" cy="138.5" r="38.5" style="fill:rgb(30,136,229);"/>
            </g>
            <g transform="matrix(1,0,0,1,560,283)">
                <circle cx="120.5" cy="138.5" r="38.5" style="fill:rgb(30,136,229);"/>
            </g>
            <g transform="matrix(1,0,0,1,589.5,219)">
                <circle cx="120.5" cy="138.5" r="38.5" style="fill:rgb(30,136,229);"/>
            </g>
        </g>
        <g id="Protein-1" serif:id="Protein 1" transform="matrix(0.337209,0,0,0.337209,506.043,58.4439)">
            <g transform="matrix(1,0,0,1,-18,-83)">
                <path d="M195,217.5C195,205.634 185.366,196 173.5,196L130.5,196C118.634,196 109,205.634 109,217.5L109,260.5C109,272.366 118.634,282 130.5,282L173.5,282C185.366,282 195,272.366 195,260.5L195,217.5Z" style="fill:rgb(30,136,229);"/>
            </g>
            <g transform="matrix(1,0,0,1,68,-55)">
                <path d="M195,217.5C195,205.634 185.366,196 173.5,196L130.5,196C118.634,196 109,205.634 109,217.5L109,260.5C109,272.366 118.634,282 130.5,282L173.5,282C185.366,282 195,272.366 195,260.5L195,217.5Z" style="fill:rgb(30,136,229);"/>
            </g>
            <g transform="matrix(1,0,0,1,154,-25)">
                <path d="M195,217.5C195,205.634 185.366,196 173.5,196L130.5,196C118.634,196 109,205.634 109,217.5L109,260.5C109,272.366 118.634,282 130.5,282L173.5,282C185.366,282 195,272.366 195,260.5L195,217.5Z" style="fill:rgb(30,136,229);"/>
            </g>
            <g transform="matrix(1,0,0,1,240,-55)">
                <path d="M195,217.5C195,205.634 185.366,196 173.5,196L130.5,196C118.634,196 109,205.634 109,217.5L109,260.5C109,272.366 118.634,282 130.5,282L173.5,282C185.366,282 195,272.366 195,260.5L195,217.5Z" style="fill:rgb(30,136,229);"/>
            </g>
        </g>
    </g>
    <g id="Organism-1" serif:id="Organism 1" transform="matrix(0.624382,0,0,0.624382,-84.6657,40.5144)">
        <rect x="463.75" y="105" width="17.5" height="17.5" style="fill:rgb(30,136,229);fill-rule:nonzero;"/>
        <path d="M220.36,148.63C238.805,145.181 252.313,136.888 264.243,129.564C277.708,121.295 289.337,114.154 306.489,113.779C315.071,113.603 323.833,115.24 332.677,118.541C333.271,132.471 337.505,145.42 344.525,156.49L327.666,167.732L337.369,182.291L355.51,170.197C359.901,174.537 364.854,178.298 370.182,181.494L360.241,196.404L374.8,206.107L386.308,188.841C393.702,191.204 401.585,192.501 409.785,192.501L411.254,192.501L411.254,210.001L428.754,210.001L428.754,192.501L446.254,192.501L446.254,210.001L463.754,210.001L463.754,192.501L481.254,192.501L481.254,210.001L498.754,210.001L498.754,190.813C503.777,189.754 508.613,188.204 513.227,186.227L526.473,206.106L541.031,196.403L528.406,177.458C532.547,174.411 536.36,170.974 539.809,167.185L553.817,181.193L566.188,168.822L550.204,152.838C552.469,148.779 554.352,144.482 555.864,140.01L577.505,140.01L577.505,122.51L559.638,122.51C559.864,120.104 560.005,117.682 560.005,115.221L560.005,112.279C560.005,109.049 559.743,105.893 559.356,102.776L580.27,95.803L574.731,79.205L555.211,85.717C553.313,80.537 550.899,75.627 547.993,71.033L564.852,59.791L555.148,45.232L537.019,57.314C532.629,52.974 527.676,49.212 522.347,46.017L532.289,31.107L517.73,21.403L506.222,38.669C501.027,37.005 495.605,35.892 490.003,35.369L490.003,17.502L472.503,17.502L472.503,35.002L455.003,35.002L455.003,17.502L437.503,17.502L437.503,35.002L420.003,35.002L420.003,17.502L402.503,17.502L402.503,35.369C396.901,35.892 391.48,37.005 386.288,38.658L374.78,21.392L360.221,31.095L370.162,46.005C364.834,49.2 359.889,52.962 355.49,57.302L337.349,45.208L327.646,59.767L344.505,71.009C338.966,79.751 335.169,89.665 333.505,100.314C324.302,97.462 315.103,96.037 306.048,96.263C284.189,96.744 269.384,105.837 255.064,114.638C243.408,121.806 232.392,128.568 217.115,131.411C195.345,135.524 170.845,129.958 144.306,114.899L135.669,130.114C159.243,143.493 181.755,150.223 202.825,150.223C208.794,150.247 214.637,149.704 220.36,148.629L220.36,148.63ZM411.25,78.751L481.25,78.751C500.578,78.751 516.25,94.423 516.25,113.751C516.25,133.079 500.578,148.751 481.25,148.751L411.25,148.751C391.922,148.751 376.25,133.079 376.25,113.751C376.25,94.423 391.922,78.751 411.25,78.751Z" style="fill:rgb(30,136,229);fill-rule:nonzero;"/>
        <rect x="420" y="105" width="26.25" height="17.5" style="fill:rgb(30,136,229);fill-rule:nonzero;"/>
    </g>
    <g transform="matrix(1,0,0,1,-9.95605,-98.0146)">
        <g id="Organism-11" serif:id="Organism 1" transform="matrix(0.624382,0,0,0.624382,-74.7096,336.529)">
            <rect x="463.75" y="105" width="17.5" height="17.5" style="fill:rgb(30,136,229);fill-rule:nonzero;"/>
            <path d="M220.36,148.63C238.805,145.181 252.313,136.888 264.243,129.564C277.708,121.295 289.337,114.154 306.489,113.779C315.071,113.603 323.833,115.24 332.677,118.541C333.271,132.471 337.505,145.42 344.525,156.49L327.666,167.732L337.369,182.291L355.51,170.197C359.901,174.537 364.854,178.298 370.182,181.494L360.241,196.404L374.8,206.107L386.308,188.841C393.702,191.204 401.585,192.501 409.785,192.501L411.254,192.501L411.254,210.001L428.754,210.001L428.754,192.501L446.254,192.501L446.254,210.001L463.754,210.001L463.754,192.501L481.254,192.501L481.254,210.001L498.754,210.001L498.754,190.813C503.777,189.754 508.613,188.204 513.227,186.227L526.473,206.106L541.031,196.403L528.406,177.458C532.547,174.411 536.36,170.974 539.809,167.185L553.817,181.193L566.188,168.822L550.204,152.838C552.469,148.779 554.352,144.482 555.864,140.01L577.505,140.01L577.505,122.51L559.638,122.51C559.864,120.104 560.005,117.682 560.005,115.221L560.005,112.279C560.005,109.049 559.743,105.893 559.356,102.776L580.27,95.803L574.731,79.205L555.211,85.717C553.313,80.537 550.899,75.627 547.993,71.033L564.852,59.791L555.148,45.232L537.019,57.314C532.629,52.974 527.676,49.212 522.347,46.017L532.289,31.107L517.73,21.403L506.222,38.669C501.027,37.005 495.605,35.892 490.003,35.369L490.003,17.502L472.503,17.502L472.503,35.002L455.003,35.002L455.003,17.502L437.503,17.502L437.503,35.002L420.003,35.002L420.003,17.502L402.503,17.502L402.503,35.369C396.901,35.892 391.48,37.005 386.288,38.658L374.78,21.392L360.221,31.095L370.162,46.005C364.834,49.2 359.889,52.962 355.49,57.302L337.349,45.208L327.646,59.767L344.505,71.009C338.966,79.751 335.169,89.665 333.505,100.314C324.302,97.462 315.103,96.037 306.048,96.263C284.189,96.744 269.384,105.837 255.064,114.638C243.408,121.806 232.392,128.568 217.115,131.411C195.345,135.524 170.845,129.958 144.306,114.899L135.669,130.114C159.243,143.493 181.755,150.223 202.825,150.223C208.794,150.247 214.637,149.704 220.36,148.629L220.36,148.63ZM411.25,78.751L481.25,78.751C500.578,78.751 516.25,94.423 516.25,113.751C516.25,133.079 500.578,148.751 481.25,148.751L411.25,148.751C391.922,148.751 376.25,133.079 376.25,113.751C376.25,94.423 391.922,78.751 411.25,78.751Z" style="fill:rgb(30,136,229);fill-rule:nonzero;"/>
            <rect x="420" y="105" width="26.25" height="17.5" style="fill:rgb(30,136,229);fill-rule:nonzero;"/>
        </g>
        <g transform="matrix(0.433583,0,0,0.433583,1.86888,398.054)">
            <g id="Organism-2" serif:id="Organism 2">
                <path d="M113.75,437.5C127.172,437.5 138.117,427.387 139.684,414.391C143.665,412.579 147.692,410.864 151.786,409.352C152.091,409.239 153.485,408.477 155.454,407.368C164.974,438.079 188.259,462.669 218.052,474.157C217.353,475.004 216.747,475.914 215.986,476.739C213.72,479.196 211.158,481.395 208.443,483.442C204.767,481.481 200.63,480.258 196.166,480.258C181.666,480.258 169.916,492.008 169.916,506.508C169.916,521.008 181.666,532.758 196.166,532.758C210.666,532.758 222.416,521.008 222.416,506.508C222.416,502.93 221.689,499.516 220.384,496.41C223.412,494.012 226.24,491.422 228.818,488.613C231.478,485.742 233.834,482.609 235.994,479.328C242.412,480.551 249.01,481.25 255.764,481.25C285.69,481.25 312.631,468.668 331.756,448.578C332.842,449.558 333.916,450.519 334.994,451.625C339.334,456.07 342.869,461.074 345.947,466.324C343.002,470.566 341.252,475.695 341.252,481.25C341.252,495.75 353.002,507.5 367.502,507.5C382.002,507.5 393.752,495.75 393.752,481.25C393.752,466.75 382.002,455 367.502,455C365.045,455 362.705,455.445 360.451,456.078C356.81,450.093 352.498,444.492 347.51,439.39C345.963,437.808 344.385,436.378 342.811,434.98C353.811,418.714 360.284,399.175 360.67,378.148C369.287,374.882 377.232,370.257 384.428,364.316C388.1,366.284 392.236,367.499 396.694,367.499C411.194,367.499 422.944,355.749 422.944,341.249C422.944,326.749 411.194,314.999 396.694,314.999C382.194,314.999 370.444,326.749 370.444,341.249C370.444,344.87 371.178,348.327 372.51,351.468C368.424,354.749 364.065,357.566 359.35,359.808C355.018,332.359 340.116,308.507 318.873,292.476C322.338,285.335 324.666,277.898 325.682,270.296C325.697,270.155 325.69,270.015 325.709,269.886C335.912,266.288 343.26,256.656 343.26,245.23C343.26,230.73 331.51,218.98 317.01,218.98C302.51,218.98 290.76,230.73 290.76,245.23C290.76,256.542 297.952,266.097 307.99,269.792C307.221,274.307 305.908,278.753 303.99,283.058C289.549,275.554 273.17,271.249 255.763,271.249C228.376,271.249 203.517,281.827 184.818,299.003C184.408,298.362 184.076,297.683 183.646,297.05C180.943,293.061 177.713,289.386 174.256,285.902C176.217,277.378 173.951,268.078 167.306,261.437C157.052,251.183 140.435,251.183 130.181,261.437C119.927,271.691 119.927,288.308 130.181,298.562C139.56,307.941 154.208,308.632 164.49,300.863C166.178,302.781 167.737,304.792 169.155,306.874C170.381,308.687 171.483,310.542 172.506,312.441C158.928,330.136 150.764,352.214 150.764,376.25C150.764,380.828 151.159,385.297 151.717,389.715C148.592,391.457 146.241,392.742 145.725,392.933C142.366,394.176 139.022,395.523 135.725,396.957C131.041,389.769 122.967,385 113.752,385C99.252,385 87.502,396.75 87.502,411.25C87.502,425.75 99.252,437.5 113.752,437.5L113.75,437.5ZM298.04,327.65C310.446,346.259 317.009,367.927 317.009,390.298L317.009,393.747L299.509,393.747L299.509,390.29C299.509,371.38 293.97,353.075 283.478,337.345L298.04,327.65ZM220.759,314.998L238.259,314.998L238.259,332.498L220.759,332.498L220.759,314.998ZM227.497,368.853C246.825,368.853 262.497,384.525 262.497,403.853C262.497,423.181 246.825,438.853 227.497,438.853C208.169,438.853 192.497,423.181 192.497,403.853C192.497,384.525 208.169,368.853 227.497,368.853Z" style="fill:rgb(0,137,123);fill-rule:nonzero;"/>
            </g>
        </g>
    </g>
    <g transform="matrix(0.540885,0.298457,-0.298457,0.540885,113.956,58)">
        <g id="Organism-3" serif:id="Organism 3">
            <path d="M603.16,297.52L603.746,280.032C590.035,279.637 578.32,283.638 570.871,291.493C565.367,297.259 562.078,305.048 561.043,313.763C560.254,313.814 559.476,313.849 558.672,313.982C556.055,314.392 553.484,315.286 551.156,316.888C549.703,317.896 548.539,319.138 547.508,320.486C543.832,318.404 539.992,316.618 535.914,315.404C508.691,307.408 486.723,323.779 484.305,325.658L495.094,339.431C495.766,338.895 511.817,326.552 530.934,332.177C535.039,333.411 538.86,335.388 542.352,337.872C542.09,342.517 542.238,347.349 542.403,351.899C542.938,366.571 550.27,379.157 550.637,393.715C551.188,415.477 540.086,433.492 524.903,448.141C507.419,465 463.364,486.168 481.145,518.149C491.032,535.93 526.899,538.09 551.145,526.899C600.809,503.973 603.293,424.359 603.645,413.149C604.02,401.11 602.211,374.43 595.446,351.731C591.543,338.641 585.989,326.907 578.262,320.04C578.184,313.31 579.926,307.352 583.527,303.571C588.906,297.907 598.144,297.364 603.16,297.52L603.16,297.52ZM533.746,507.5L516.246,507.5L516.246,490L533.746,490L533.746,507.5ZM568.746,481.25L551.246,481.25L551.246,463.75L568.746,463.75L568.746,481.25Z" style="fill:rgb(229,57,53);fill-rule:nonzero;"/>
        </g>
    </g>
    <g transform="matrix(1,0,0,1,9.04395,-106.909)">
        <g transform="matrix(1,0,0,1,26,366)">
            <g id="Protein-21" serif:id="Protein 2" transform="matrix(0.473442,0,0,0.473442,420.013,-261.784)">
                <g transform="matrix(0.973036,-0.230652,0.230652,0.973036,89.1166,560.898)">
                    <path d="M124.391,85.218C125.642,82.715 128.201,81.134 131,81.134C133.799,81.134 136.358,82.715 137.609,85.218C146.454,102.908 162.104,134.207 171.418,152.835C173.042,156.083 172.868,159.941 170.959,163.03C169.05,166.12 165.677,168 162.045,168L98.449,168C95.14,168 92.067,166.287 90.327,163.472C88.587,160.657 88.429,157.142 89.909,154.182C99.125,135.75 115.329,103.342 124.391,85.218Z" style="fill:rgb(30,136,229);"/>
                </g>
                <g transform="matrix(0.995217,-0.0976867,0.0976867,0.995217,196.714,523.818)">
                    <path d="M124.391,85.218C125.642,82.715 128.201,81.134 131,81.134C133.799,81.134 136.358,82.715 137.609,85.218C146.454,102.908 162.104,134.207 171.418,152.835C173.042,156.083 172.868,159.941 170.959,163.03C169.05,166.12 165.677,168 162.045,168L98.449,168C95.14,168 92.067,166.287 90.327,163.472C88.587,160.657 88.429,157.142 89.909,154.182C99.125,135.75 115.329,103.342 124.391,85.218Z" style="fill:rgb(30,136,229);"/>
                </g>
                <g transform="matrix(0.996352,0.0853418,-0.0853418,0.996352,316.245,499.75)">
                    <path d="M124.391,85.218C125.642,82.715 128.201,81.134 131,81.134C133.799,81.134 136.358,82.715 137.609,85.218C146.454,102.908 162.104,134.207 171.418,152.835C173.042,156.083 172.868,159.941 170.959,163.03C169.05,166.12 165.677,168 162.045,168L98.449,168C95.14,168 92.067,166.287 90.327,163.472C88.587,160.657 88.429,157.142 89.909,154.182C99.125,135.75 115.329,103.342 124.391,85.218Z" style="fill:rgb(30,136,229);"/>
                </g>
            </g>
            <g id="Protein-31" serif:id="Protein 3" transform="matrix(0.467391,0,0,0.467391,403.141,-149.098)">
                <g transform="matrix(1,0,0,1,551,418)">
                    <circle cx="120.5" cy="138.5" r="38.5" style="fill:rgb(30,136,229);"/>
                </g>
                <g transform="matrix(1,0,0,1,576,351)">
                    <circle cx="120.5" cy="138.5" r="38.5" style="fill:rgb(30,136,229);"/>
                </g>
                <g transform="matrix(1,0,0,1,560,283)">
                    <circle cx="120.5" cy="138.5" r="38.5" style="fill:rgb(30,136,229);"/>
                </g>
                <g transform="matrix(1,0,0,1,589.5,219)">
                    <circle cx="120.5" cy="138.5" r="38.5" style="fill:rgb(30,136,229);"/>
                </g>
            </g>
            <g id="Protein-11" serif:id="Protein 1" transform="matrix(0.337209,0,0,0.337209,506.043,58.4439)">
                <g transform="matrix(1,0,0,1,-18,-83)">
                    <path d="M195,217.5C195,205.634 185.366,196 173.5,196L130.5,196C118.634,196 109,205.634 109,217.5L109,260.5C109,272.366 118.634,282 130.5,282L173.5,282C185.366,282 195,272.366 195,260.5L195,217.5Z" style="fill:rgb(30,136,229);"/>
                </g>
                <g transform="matrix(1,0,0,1,68,-55)">
                    <path d="M195,217.5C195,205.634 185.366,196 173.5,196L130.5,196C118.634,196 109,205.634 109,217.5L109,260.5C109,272.366 118.634,282 130.5,282L173.5,282C185.366,282 195,272.366 195,260.5L195,217.5Z" style="fill:rgb(30,136,229);"/>
                </g>
                <g transform="matrix(1,0,0,1,154,-25)">
                    <path d="M195,217.5C195,205.634 185.366,196 173.5,196L130.5,196C118.634,196 109,205.634 109,217.5L109,260.5C109,272.366 118.634,282 130.5,282L173.5,282C185.366,282 195,272.366 195,260.5L195,217.5Z" style="fill:rgb(30,136,229);"/>
                </g>
                <g transform="matrix(1,0,0,1,240,-55)">
                    <path d="M195,217.5C195,205.634 185.366,196 173.5,196L130.5,196C118.634,196 109,205.634 109,217.5L109,260.5C109,272.366 118.634,282 130.5,282L173.5,282C185.366,282 195,272.366 195,260.5L195,217.5Z" style="fill:rgb(30,136,229);"/>
                </g>
            </g>
        </g>
        <g id="Protein-32" serif:id="Protein 3" transform="matrix(0.39252,0.220615,-0.220615,0.39252,555.89,227.41)">
            <g transform="matrix(0.944589,-0.328255,0.328255,0.944589,560.883,327.955)">
                <path d="M124.051,85.899C125.367,83.267 128.057,81.604 131,81.604C133.943,81.604 136.633,83.267 137.949,85.899C146.726,103.451 161.792,133.584 171.027,152.055C172.735,155.47 172.553,159.526 170.545,162.775C168.537,166.023 164.991,168 161.173,168C143.423,168 116.416,168 99.244,168C95.765,168 92.533,166.198 90.704,163.239C88.875,160.279 88.709,156.583 90.265,153.471C99.42,135.159 115.046,103.907 124.051,85.899Z" style="fill:rgb(229,57,53);"/>
            </g>
            <g transform="matrix(0.999027,-0.0441023,0.0441023,0.999027,687.946,265.341)">
                <path d="M124.051,85.899C125.367,83.267 128.057,81.604 131,81.604C133.943,81.604 136.633,83.267 137.949,85.899C146.726,103.451 161.792,133.584 171.027,152.055C172.735,155.47 172.553,159.526 170.545,162.775C168.537,166.023 164.991,168 161.173,168C143.423,168 116.416,168 99.244,168C95.765,168 92.533,166.198 90.704,163.239C88.875,160.279 88.709,156.583 90.265,153.471C99.42,135.159 115.046,103.907 124.051,85.899Z" style="fill:rgb(229,57,53);"/>
            </g>
            <g transform="matrix(0.998237,-0.0593498,0.0593498,0.998237,775.567,262.433)">
                <path d="M124.051,85.899C125.367,83.267 128.057,81.604 131,81.604C133.943,81.604 136.633,83.267 137.949,85.899C146.726,103.451 161.792,133.584 171.027,152.055C172.735,155.47 172.553,159.526 170.545,162.775C168.537,166.023 164.991,168 161.173,168C143.423,168 116.416,168 99.244,168C95.765,168 92.533,166.198 90.704,163.239C88.875,160.279 88.709,156.583 90.265,153.471C99.42,135.159 115.046,103.907 124.051,85.899Z" style="fill:rgb(229,57,53);"/>
            </g>
            <g transform="matrix(0.839239,-0.543763,0.543763,0.839239,458.233,414.091)">
                <path d="M124.051,85.899C125.367,83.267 128.057,81.604 131,81.604C133.943,81.604 136.633,83.267 137.949,85.899C146.726,103.451 161.792,133.584 171.027,152.055C172.735,155.47 172.553,159.526 170.545,162.775C168.537,166.023 164.991,168 161.173,168C143.423,168 116.416,168 99.244,168C95.765,168 92.533,166.198 90.704,163.239C88.875,160.279 88.709,156.583 90.265,153.471C99.42,135.159 115.046,103.907 124.051,85.899Z" style="fill:rgb(229,57,53);"/>
            </g>
        </g>
        <g id="Protein-12" serif:id="Protein 1" transform="matrix(0.467153,0,0,0.467153,454.312,450.19)">
            <g transform="matrix(1,0,0,1,-47,-75)">
                <circle cx="120.5" cy="138.5" r="38.5" style="fill:rgb(0,137,123);"/>
            </g>
            <g transform="matrix(1,0,0,1,9,-26)">
                <circle cx="120.5" cy="138.5" r="38.5" style="fill:rgb(0,137,123);"/>
            </g>
            <g transform="matrix(1,0,0,1,47.5,37)">
                <circle cx="120.5" cy="138.5" r="38.5" style="fill:rgb(0,137,123);"/>
            </g>
            <g transform="matrix(1,0,0,1,86,101)">
                <circle cx="120.5" cy="138.5" r="38.5" style="fill:rgb(0,137,123);"/>
            </g>
            <g transform="matrix(1,0,0,1,156,114)">
                <circle cx="120.5" cy="138.5" r="38.5" style="fill:rgb(0,137,123);"/>
            </g>
            <g transform="matrix(1,0,0,1,220,75.5)">
                <circle cx="120.5" cy="138.5" r="38.5" style="fill:rgb(0,137,123);"/>
            </g>
            <g transform="matrix(1,0,0,1,287,91.5)">
                <circle cx="120.5" cy="138.5" r="38.5" style="fill:rgb(0,137,123);"/>
            </g>
        </g>
        <g id="Protein-33" serif:id="Protein 3" transform="matrix(0.383648,0,0,0.383648,645.264,179.579)">
            <g transform="matrix(1,0,0,1,348,548)">
                <path d="M195,217.5C195,205.634 185.366,196 173.5,196L130.5,196C118.634,196 109,205.634 109,217.5L109,260.5C109,272.366 118.634,282 130.5,282L173.5,282C185.366,282 195,272.366 195,260.5L195,217.5Z" style="fill:rgb(229,57,53);"/>
            </g>
            <g transform="matrix(1,0,0,1,383,462)">
                <path d="M195,217.5C195,205.634 185.366,196 173.5,196L130.5,196C118.634,196 109,205.634 109,217.5L109,260.5C109,272.366 118.634,282 130.5,282L173.5,282C185.366,282 195,272.366 195,260.5L195,217.5Z" style="fill:rgb(229,57,53);"/>
            </g>
            <g transform="matrix(1,0,0,1,323,634)">
                <path d="M195,217.5C195,205.634 185.366,196 173.5,196L130.5,196C118.634,196 109,205.634 109,217.5L109,260.5C109,272.366 118.634,282 130.5,282L173.5,282C185.366,282 195,272.366 195,260.5L195,217.5Z" style="fill:rgb(229,57,53);"/>
            </g>
            <g transform="matrix(1,0,0,1,469,430)">
                <path d="M195,217.5C195,205.634 185.366,196 173.5,196L130.5,196C118.634,196 109,205.634 109,217.5L109,260.5C109,272.366 118.634,282 130.5,282L173.5,282C185.366,282 195,272.366 195,260.5L195,217.5Z" style="fill:rgb(229,57,53);"/>
            </g>
            <g transform="matrix(1,0,0,1,555,462)">
                <path d="M195,217.5C195,205.634 185.366,196 173.5,196L130.5,196C118.634,196 109,205.634 109,217.5L109,260.5C109,272.366 118.634,282 130.5,282L173.5,282C185.366,282 195,272.366 195,260.5L195,217.5Z" style="fill:rgb(229,57,53);"/>
            </g>
        </g>
    </g>
    <g transform="matrix(1,0,0,1,-183.956,-21.0146)">
        <text x="184px" y="42.489px" style="font-family:'ArialMT', 'Arial', sans-serif;font-size:30px;">A. Proteome</text>
    </g>
    <g transform="matrix(1,0,0,1,-183.956,182.985)">
        <text x="184px" y="42.489px" style="font-family:'ArialMT', 'Arial', sans-serif;font-size:30px;">B. Metaproteome</text>
    </g>
</svg>
