<?xml version="1.0" encoding="UTF-8" standalone="no"?>
<!DOCTYPE svg PUBLIC "-//W3C//DTD SVG 1.1//EN" "http://www.w3.org/Graphics/SVG/1.1/DTD/svg11.dtd">
<svg width="100%" height="100%" viewBox="0 0 570 460" version="1.1" xmlns="http://www.w3.org/2000/svg" xmlns:xlink="http://www.w3.org/1999/xlink" xml:space="preserve" xmlns:serif="http://www.serif.com/" style="fill-rule:evenodd;clip-rule:evenodd;stroke-linecap:round;stroke-linejoin:round;stroke-miterlimit:1.5;">
    <g id="Proteome" transform="matrix(1,0,0,1,-10.3542,-7.36189)">
        <g id="Protein-2" serif:id="Protein 2" transform="matrix(0.309989,0,0,0.309989,374.309,-143.987)">
            <g transform="matrix(0.973036,-0.230652,0.230652,0.973036,103.164,561.134)">
                <path d="M120.906,92.188C122.817,88.365 126.725,85.95 131,85.95C135.275,85.95 139.183,88.365 141.094,92.188C148.785,107.57 159.384,128.768 167.419,144.839C169.9,149.8 169.635,155.692 166.719,160.41C163.803,165.128 158.652,168 153.105,168C138.618,168 120.693,168 106.595,168C101.541,168 96.847,165.383 94.19,161.084C91.533,156.785 91.292,151.416 93.552,146.896C101.693,130.614 112.882,108.236 120.906,92.188Z" style="fill:rgb(0,172,193);"/>
            </g>
            <g transform="matrix(0.995217,-0.0976867,0.0976867,0.995217,196.714,523.818)">
                <path d="M120.906,92.188C122.817,88.365 126.725,85.95 131,85.95C135.275,85.95 139.183,88.365 141.094,92.188C148.785,107.57 159.384,128.768 167.419,144.839C169.9,149.8 169.635,155.692 166.719,160.41C163.803,165.128 158.652,168 153.105,168C138.618,168 120.693,168 106.595,168C101.541,168 96.847,165.383 94.19,161.084C91.533,156.785 91.292,151.416 93.552,146.896C101.693,130.614 112.882,108.236 120.906,92.188Z" style="fill:rgb(0,172,193);"/>
            </g>
            <g transform="matrix(0.996352,0.0853418,-0.0853418,0.996352,301.408,500.159)">
                <path d="M120.906,92.188C122.817,88.365 126.725,85.95 131,85.95C135.275,85.95 139.183,88.365 141.094,92.188C148.785,107.57 159.384,128.768 167.419,144.839C169.9,149.8 169.635,155.692 166.719,160.41C163.803,165.128 158.652,168 153.105,168C138.618,168 120.693,168 106.595,168C101.541,168 96.847,165.383 94.19,161.084C91.533,156.785 91.292,151.416 93.552,146.896C101.693,130.614 112.882,108.236 120.906,92.188Z" style="fill:rgb(0,172,193);"/>
            </g>
        </g>
        <g id="Protein-3" serif:id="Protein 3" transform="matrix(0.246876,0.145453,-0.145453,0.246876,407.22,-73.945)">
            <g transform="matrix(1,0,0,1,551,418)">
                <circle cx="120.5" cy="138.5" r="38.5" style="fill:rgb(0,172,193);"/>
            </g>
            <g transform="matrix(1,0,0,1,576,351)">
                <circle cx="120.5" cy="138.5" r="38.5" style="fill:rgb(0,172,193);"/>
            </g>
            <g transform="matrix(1,0,0,1,560,283)">
                <circle cx="120.5" cy="138.5" r="38.5" style="fill:rgb(0,172,193);"/>
            </g>
            <g transform="matrix(1,0,0,1,589.5,219)">
                <circle cx="120.5" cy="138.5" r="38.5" style="fill:rgb(0,172,193);"/>
            </g>
        </g>
        <g id="Protein-1" serif:id="Protein 1" transform="matrix(0.266724,0,0,0.266724,383.425,61.7628)">
            <g transform="matrix(1,0,0,1,-18,-83)">
                <path d="M195,217.5C195,205.634 185.366,196 173.5,196L130.5,196C118.634,196 109,205.634 109,217.5L109,260.5C109,272.366 118.634,282 130.5,282L173.5,282C185.366,282 195,272.366 195,260.5L195,217.5Z" style="fill:rgb(0,172,193);"/>
            </g>
            <g transform="matrix(1,0,0,1,68,-55)">
                <path d="M195,217.5C195,205.634 185.366,196 173.5,196L130.5,196C118.634,196 109,205.634 109,217.5L109,260.5C109,272.366 118.634,282 130.5,282L173.5,282C185.366,282 195,272.366 195,260.5L195,217.5Z" style="fill:rgb(0,172,193);"/>
            </g>
            <g transform="matrix(1,0,0,1,154,-25)">
                <path d="M195,217.5C195,205.634 185.366,196 173.5,196L130.5,196C118.634,196 109,205.634 109,217.5L109,260.5C109,272.366 118.634,282 130.5,282L173.5,282C185.366,282 195,272.366 195,260.5L195,217.5Z" style="fill:rgb(0,172,193);"/>
            </g>
            <g transform="matrix(1,0,0,1,240,-55)">
                <path d="M195,217.5C195,205.634 185.366,196 173.5,196L130.5,196C118.634,196 109,205.634 109,217.5L109,260.5C109,272.366 118.634,282 130.5,282L173.5,282C185.366,282 195,272.366 195,260.5L195,217.5Z" style="fill:rgb(0,172,193);"/>
            </g>
        </g>
        <g id="_-Ellipse-" serif:id="(Ellipse)" transform="matrix(0.70252,0,0,0.70252,345.083,-70.8329)">
            <circle cx="193.5" cy="252.5" r="135.5" style="fill:rgb(235,235,235);fill-opacity:0;stroke:rgb(84,110,122);stroke-width:11.39px;"/>
        </g>
    </g>
    <g id="Single-organism" serif:id="Single organism" transform="matrix(1,0,0,1,-10.3542,-7.36189)">
        <g id="Organism-1" serif:id="Organism 1" transform="matrix(0.304009,0,0,0.304009,0.719691,71.972)">
            <rect x="463.75" y="105" width="17.5" height="17.5" style="fill:rgb(0,172,193);fill-rule:nonzero;"/>
            <path d="M220.36,148.63C238.805,145.181 252.313,136.888 264.243,129.564C277.708,121.295 289.337,114.154 306.489,113.779C315.071,113.603 323.833,115.24 332.677,118.541C333.271,132.471 337.505,145.42 344.525,156.49L327.666,167.732L337.369,182.291L355.51,170.197C359.901,174.537 364.854,178.298 370.182,181.494L360.241,196.404L374.8,206.107L386.308,188.841C393.702,191.204 401.585,192.501 409.785,192.501L411.254,192.501L411.254,210.001L428.754,210.001L428.754,192.501L446.254,192.501L446.254,210.001L463.754,210.001L463.754,192.501L481.254,192.501L481.254,210.001L498.754,210.001L498.754,190.813C503.777,189.754 508.613,188.204 513.227,186.227L526.473,206.106L541.031,196.403L528.406,177.458C532.547,174.411 536.36,170.974 539.809,167.185L553.817,181.193L566.188,168.822L550.204,152.838C552.469,148.779 554.352,144.482 555.864,140.01L577.505,140.01L577.505,122.51L559.638,122.51C559.864,120.104 560.005,117.682 560.005,115.221L560.005,112.279C560.005,109.049 559.743,105.893 559.356,102.776L580.27,95.803L574.731,79.205L555.211,85.717C553.313,80.537 550.899,75.627 547.993,71.033L564.852,59.791L555.148,45.232L537.019,57.314C532.629,52.974 527.676,49.212 522.347,46.017L532.289,31.107L517.73,21.403L506.222,38.669C501.027,37.005 495.605,35.892 490.003,35.369L490.003,17.502L472.503,17.502L472.503,35.002L455.003,35.002L455.003,17.502L437.503,17.502L437.503,35.002L420.003,35.002L420.003,17.502L402.503,17.502L402.503,35.369C396.901,35.892 391.48,37.005 386.288,38.658L374.78,21.392L360.221,31.095L370.162,46.005C364.834,49.2 359.889,52.962 355.49,57.302L337.349,45.208L327.646,59.767L344.505,71.009C338.966,79.751 335.169,89.665 333.505,100.314C324.302,97.462 315.103,96.037 306.048,96.263C284.189,96.744 269.384,105.837 255.064,114.638C243.408,121.806 232.392,128.568 217.115,131.411C195.345,135.524 170.845,129.958 144.306,114.899L135.669,130.114C159.243,143.493 181.755,150.223 202.825,150.223C208.794,150.247 214.637,149.704 220.36,148.629L220.36,148.63ZM411.25,78.751L481.25,78.751C500.578,78.751 516.25,94.423 516.25,113.751C516.25,133.079 500.578,148.751 481.25,148.751L411.25,148.751C391.922,148.751 376.25,133.079 376.25,113.751C376.25,94.423 391.922,78.751 411.25,78.751Z" style="fill:rgb(0,172,193);fill-rule:nonzero;"/>
            <rect x="420" y="105" width="26.25" height="17.5" style="fill:rgb(0,172,193);fill-rule:nonzero;"/>
        </g>
        <g id="_-Ellipse-1" serif:id="(Ellipse)" transform="matrix(0.70252,0,0,0.70252,-26.392,-70.8329)">
            <circle cx="193.5" cy="252.5" r="135.5" style="fill:rgb(235,235,235);fill-opacity:0;stroke:rgb(84,110,122);stroke-width:11.39px;"/>
        </g>
    </g>
    <g id="Multiple-organisms" serif:id="Multiple organisms" transform="matrix(1,0,0,1,-10.3542,-7.36189)">
        <g id="_-Ellipse-2" serif:id="(Ellipse)" transform="matrix(0.70252,0,0,0.70252,-26.392,190.126)">
            <circle cx="193.5" cy="252.5" r="135.5" style="fill:rgb(235,235,235);fill-opacity:0;stroke:rgb(84,110,122);stroke-width:11.39px;"/>
        </g>
        <g id="Organism-11" serif:id="Organism 1" transform="matrix(0.258021,0,0,0.258021,0.800493,304.813)">
            <rect x="463.75" y="105" width="17.5" height="17.5" style="fill:rgb(0,172,193);fill-rule:nonzero;"/>
            <path d="M220.36,148.63C238.805,145.181 252.313,136.888 264.243,129.564C277.708,121.295 289.337,114.154 306.489,113.779C315.071,113.603 323.833,115.24 332.677,118.541C333.271,132.471 337.505,145.42 344.525,156.49L327.666,167.732L337.369,182.291L355.51,170.197C359.901,174.537 364.854,178.298 370.182,181.494L360.241,196.404L374.8,206.107L386.308,188.841C393.702,191.204 401.585,192.501 409.785,192.501L411.254,192.501L411.254,210.001L428.754,210.001L428.754,192.501L446.254,192.501L446.254,210.001L463.754,210.001L463.754,192.501L481.254,192.501L481.254,210.001L498.754,210.001L498.754,190.813C503.777,189.754 508.613,188.204 513.227,186.227L526.473,206.106L541.031,196.403L528.406,177.458C532.547,174.411 536.36,170.974 539.809,167.185L553.817,181.193L566.188,168.822L550.204,152.838C552.469,148.779 554.352,144.482 555.864,140.01L577.505,140.01L577.505,122.51L559.638,122.51C559.864,120.104 560.005,117.682 560.005,115.221L560.005,112.279C560.005,109.049 559.743,105.893 559.356,102.776L580.27,95.803L574.731,79.205L555.211,85.717C553.313,80.537 550.899,75.627 547.993,71.033L564.852,59.791L555.148,45.232L537.019,57.314C532.629,52.974 527.676,49.212 522.347,46.017L532.289,31.107L517.73,21.403L506.222,38.669C501.027,37.005 495.605,35.892 490.003,35.369L490.003,17.502L472.503,17.502L472.503,35.002L455.003,35.002L455.003,17.502L437.503,17.502L437.503,35.002L420.003,35.002L420.003,17.502L402.503,17.502L402.503,35.369C396.901,35.892 391.48,37.005 386.288,38.658L374.78,21.392L360.221,31.095L370.162,46.005C364.834,49.2 359.889,52.962 355.49,57.302L337.349,45.208L327.646,59.767L344.505,71.009C338.966,79.751 335.169,89.665 333.505,100.314C324.302,97.462 315.103,96.037 306.048,96.263C284.189,96.744 269.384,105.837 255.064,114.638C243.408,121.806 232.392,128.568 217.115,131.411C195.345,135.524 170.845,129.958 144.306,114.899L135.669,130.114C159.243,143.493 181.755,150.223 202.825,150.223C208.794,150.247 214.637,149.704 220.36,148.629L220.36,148.63ZM411.25,78.751L481.25,78.751C500.578,78.751 516.25,94.423 516.25,113.751C516.25,133.079 500.578,148.751 481.25,148.751L411.25,148.751C391.922,148.751 376.25,133.079 376.25,113.751C376.25,94.423 391.922,78.751 411.25,78.751Z" style="fill:rgb(0,172,193);fill-rule:nonzero;"/>
            <rect x="420" y="105" width="26.25" height="17.5" style="fill:rgb(0,172,193);fill-rule:nonzero;"/>
        </g>
        <g transform="matrix(0.179174,0,0,0.179174,32.4459,330.238)">
            <g id="Organism-2" serif:id="Organism 2">
                <path d="M113.75,437.5C127.172,437.5 138.117,427.387 139.684,414.391C143.665,412.579 147.692,410.864 151.786,409.352C152.091,409.239 153.485,408.477 155.454,407.368C164.974,438.079 188.259,462.669 218.052,474.157C217.353,475.004 216.747,475.914 215.986,476.739C213.72,479.196 211.158,481.395 208.443,483.442C204.767,481.481 200.63,480.258 196.166,480.258C181.666,480.258 169.916,492.008 169.916,506.508C169.916,521.008 181.666,532.758 196.166,532.758C210.666,532.758 222.416,521.008 222.416,506.508C222.416,502.93 221.689,499.516 220.384,496.41C223.412,494.012 226.24,491.422 228.818,488.613C231.478,485.742 233.834,482.609 235.994,479.328C242.412,480.551 249.01,481.25 255.764,481.25C285.69,481.25 312.631,468.668 331.756,448.578C332.842,449.558 333.916,450.519 334.994,451.625C339.334,456.07 342.869,461.074 345.947,466.324C343.002,470.566 341.252,475.695 341.252,481.25C341.252,495.75 353.002,507.5 367.502,507.5C382.002,507.5 393.752,495.75 393.752,481.25C393.752,466.75 382.002,455 367.502,455C365.045,455 362.705,455.445 360.451,456.078C356.81,450.093 352.498,444.492 347.51,439.39C345.963,437.808 344.385,436.378 342.811,434.98C353.811,418.714 360.284,399.175 360.67,378.148C369.287,374.882 377.232,370.257 384.428,364.316C388.1,366.284 392.236,367.499 396.694,367.499C411.194,367.499 422.944,355.749 422.944,341.249C422.944,326.749 411.194,314.999 396.694,314.999C382.194,314.999 370.444,326.749 370.444,341.249C370.444,344.87 371.178,348.327 372.51,351.468C368.424,354.749 364.065,357.566 359.35,359.808C355.018,332.359 340.116,308.507 318.873,292.476C322.338,285.335 324.666,277.898 325.682,270.296C325.697,270.155 325.69,270.015 325.709,269.886C335.912,266.288 343.26,256.656 343.26,245.23C343.26,230.73 331.51,218.98 317.01,218.98C302.51,218.98 290.76,230.73 290.76,245.23C290.76,256.542 297.952,266.097 307.99,269.792C307.221,274.307 305.908,278.753 303.99,283.058C289.549,275.554 273.17,271.249 255.763,271.249C228.376,271.249 203.517,281.827 184.818,299.003C184.408,298.362 184.076,297.683 183.646,297.05C180.943,293.061 177.713,289.386 174.256,285.902C176.217,277.378 173.951,268.078 167.306,261.437C157.052,251.183 140.435,251.183 130.181,261.437C119.927,271.691 119.927,288.308 130.181,298.562C139.56,307.941 154.208,308.632 164.49,300.863C166.178,302.781 167.737,304.792 169.155,306.874C170.381,308.687 171.483,310.542 172.506,312.441C158.928,330.136 150.764,352.214 150.764,376.25C150.764,380.828 151.159,385.297 151.717,389.715C148.592,391.457 146.241,392.742 145.725,392.933C142.366,394.176 139.022,395.523 135.725,396.957C131.041,389.769 122.967,385 113.752,385C99.252,385 87.502,396.75 87.502,411.25C87.502,425.75 99.252,437.5 113.752,437.5L113.75,437.5ZM298.04,327.65C310.446,346.259 317.009,367.927 317.009,390.298L317.009,393.747L299.509,393.747L299.509,390.29C299.509,371.38 293.97,353.075 283.478,337.345L298.04,327.65ZM220.759,314.998L238.259,314.998L238.259,332.498L220.759,332.498L220.759,314.998ZM227.497,368.853C246.825,368.853 262.497,384.525 262.497,403.853C262.497,423.181 246.825,438.853 227.497,438.853C208.169,438.853 192.497,423.181 192.497,403.853C192.497,384.525 208.169,368.853 227.497,368.853Z" style="fill:rgb(124,179,66);fill-rule:nonzero;"/>
            </g>
        </g>
        <g transform="matrix(0.223516,0.123335,-0.123335,0.223516,82.8794,230.217)">
            <g id="Organism-3" serif:id="Organism 3">
                <path d="M603.16,297.52L603.746,280.032C590.035,279.637 578.32,283.638 570.871,291.493C565.367,297.259 562.078,305.048 561.043,313.763C560.254,313.814 559.476,313.849 558.672,313.982C556.055,314.392 553.484,315.286 551.156,316.888C549.703,317.896 548.539,319.138 547.508,320.486C543.832,318.404 539.992,316.618 535.914,315.404C508.691,307.408 486.723,323.779 484.305,325.658L495.094,339.431C495.766,338.895 511.817,326.552 530.934,332.177C535.039,333.411 538.86,335.388 542.352,337.872C542.09,342.517 542.238,347.349 542.403,351.899C542.938,366.571 550.27,379.157 550.637,393.715C551.188,415.477 540.086,433.492 524.903,448.141C507.419,465 463.364,486.168 481.145,518.149C491.032,535.93 526.899,538.09 551.145,526.899C600.809,503.973 603.293,424.359 603.645,413.149C604.02,401.11 602.211,374.43 595.446,351.731C591.543,338.641 585.989,326.907 578.262,320.04C578.184,313.31 579.926,307.352 583.527,303.571C588.906,297.907 598.144,297.364 603.16,297.52L603.16,297.52ZM533.746,507.5L516.246,507.5L516.246,490L533.746,490L533.746,507.5ZM568.746,481.25L551.246,481.25L551.246,463.75L568.746,463.75L568.746,481.25Z" style="fill:rgb(229,57,53);fill-rule:nonzero;"/>
            </g>
        </g>
    </g>
    <g id="Metaproteome" transform="matrix(1,0,0,1,-10.3542,-7.36189)">
        <g id="_-Ellipse-3" serif:id="(Ellipse)" transform="matrix(0.70252,0,0,0.70252,345.083,190.126)">
            <circle cx="193.5" cy="252.5" r="135.5" style="fill:rgb(235,235,235);fill-opacity:0;stroke:rgb(84,110,122);stroke-width:11.39px;"/>
        </g>
        <g id="Protein-11" serif:id="Protein 1" transform="matrix(0.204523,0,0,0.204523,402.798,316.149)">
            <g transform="matrix(1,0,0,1,-18,-83)">
                <path d="M195,217.5C195,205.634 185.366,196 173.5,196L130.5,196C118.634,196 109,205.634 109,217.5L109,260.5C109,272.366 118.634,282 130.5,282L173.5,282C185.366,282 195,272.366 195,260.5L195,217.5Z" style="fill:rgb(0,172,193);"/>
            </g>
            <g transform="matrix(1,0,0,1,68,-55)">
                <path d="M195,217.5C195,205.634 185.366,196 173.5,196L130.5,196C118.634,196 109,205.634 109,217.5L109,260.5C109,272.366 118.634,282 130.5,282L173.5,282C185.366,282 195,272.366 195,260.5L195,217.5Z" style="fill:rgb(0,172,193);"/>
            </g>
            <g transform="matrix(1,0,0,1,154,-25)">
                <path d="M195,217.5C195,205.634 185.366,196 173.5,196L130.5,196C118.634,196 109,205.634 109,217.5L109,260.5C109,272.366 118.634,282 130.5,282L173.5,282C185.366,282 195,272.366 195,260.5L195,217.5Z" style="fill:rgb(0,172,193);"/>
            </g>
            <g transform="matrix(1,0,0,1,240,-55)">
                <path d="M195,217.5C195,205.634 185.366,196 173.5,196L130.5,196C118.634,196 109,205.634 109,217.5L109,260.5C109,272.366 118.634,282 130.5,282L173.5,282C185.366,282 195,272.366 195,260.5L195,217.5Z" style="fill:rgb(0,172,193);"/>
            </g>
        </g>
        <g id="Protein-21" serif:id="Protein 2" transform="matrix(0.232996,0,0,0.232996,394.604,162.659)">
            <g transform="matrix(0.973036,-0.230652,0.230652,0.973036,109.892,556.864)">
                <path d="M117.57,98.86C120.114,93.773 125.313,90.56 131,90.56C136.687,90.56 141.886,93.773 144.43,98.86C150.385,110.77 157.425,124.85 163.593,137.185C166.893,143.786 166.54,151.624 162.661,157.902C158.781,164.179 151.928,168 144.548,168C134.708,168 124.039,168 114.392,168C107.668,168 101.423,164.518 97.888,158.799C94.353,153.079 94.032,145.936 97.039,139.922C103.516,126.968 111.17,111.661 117.57,98.86Z" style="fill:rgb(0,172,193);"/>
            </g>
            <g transform="matrix(0.995217,-0.0976867,0.0976867,0.995217,196.714,523.818)">
                <path d="M117.57,98.86C120.114,93.773 125.313,90.56 131,90.56C136.687,90.56 141.886,93.773 144.43,98.86C150.385,110.77 157.425,124.85 163.593,137.185C166.893,143.786 166.54,151.624 162.661,157.902C158.781,164.179 151.928,168 144.548,168C134.708,168 124.039,168 114.392,168C107.668,168 101.423,164.518 97.888,158.799C94.353,153.079 94.032,145.936 97.039,139.922C103.516,126.968 111.17,111.661 117.57,98.86Z" style="fill:rgb(0,172,193);"/>
            </g>
            <g transform="matrix(0.996352,0.0853418,-0.0853418,0.996352,294.303,500.132)">
                <path d="M117.57,98.86C120.114,93.773 125.313,90.56 131,90.56C136.687,90.56 141.886,93.773 144.43,98.86C150.385,110.77 157.425,124.85 163.593,137.185C166.893,143.786 166.54,151.624 162.661,157.902C158.781,164.179 151.928,168 144.548,168C134.708,168 124.039,168 114.392,168C107.668,168 101.423,164.518 97.888,158.799C94.353,153.079 94.032,145.936 97.039,139.922C103.516,126.968 111.17,111.661 117.57,98.86Z" style="fill:rgb(0,172,193);"/>
            </g>
        </g>
        <g id="Protein-31" serif:id="Protein 3" transform="matrix(0.198313,0.116841,-0.116841,0.198313,432.482,238.512)">
            <g transform="matrix(1,0,0,1,551,418)">
                <circle cx="120.5" cy="138.5" r="38.5" style="fill:rgb(0,172,193);"/>
            </g>
            <g transform="matrix(1,0,0,1,576,351)">
                <circle cx="120.5" cy="138.5" r="38.5" style="fill:rgb(0,172,193);"/>
            </g>
            <g transform="matrix(1,0,0,1,560,283)">
                <circle cx="120.5" cy="138.5" r="38.5" style="fill:rgb(0,172,193);"/>
            </g>
            <g transform="matrix(1,0,0,1,589.5,219)">
                <circle cx="120.5" cy="138.5" r="38.5" style="fill:rgb(0,172,193);"/>
            </g>
        </g>
        <g id="Protein-32" serif:id="Protein 3" transform="matrix(-0.190845,0.117633,-0.117633,-0.190845,718.458,342.017)">
            <g transform="matrix(0.944589,-0.328255,0.328255,0.944589,575.438,330.134)">
                <path d="M117.042,99.915C119.686,94.628 125.089,91.289 131,91.289C136.911,91.289 142.314,94.628 144.958,99.915C150.602,111.204 157.15,124.301 162.987,135.974C166.417,142.834 166.051,150.981 162.018,157.505C157.986,164.029 150.864,168 143.194,168C134.155,168 124.499,168 115.626,168C108.637,168 102.147,164.382 98.473,158.437C94.799,152.492 94.465,145.069 97.591,138.819C103.769,126.463 110.935,112.13 117.042,99.915Z" style="fill:rgb(229,57,53);"/>
            </g>
            <g transform="matrix(0.999027,-0.0441023,0.0441023,0.999027,679.072,270.328)">
                <path d="M117.042,99.915C119.686,94.628 125.089,91.289 131,91.289C136.911,91.289 142.314,94.628 144.958,99.915C150.602,111.204 157.15,124.301 162.987,135.974C166.417,142.834 166.051,150.981 162.018,157.505C157.986,164.029 150.864,168 143.194,168C134.155,168 124.499,168 115.626,168C108.637,168 102.147,164.382 98.473,158.437C94.799,152.492 94.465,145.069 97.591,138.819C103.769,126.463 110.935,112.13 117.042,99.915Z" style="fill:rgb(229,57,53);"/>
            </g>
            <g transform="matrix(0.998237,-0.0593498,0.0593498,0.998237,747.885,271.524)">
                <path d="M117.042,99.915C119.686,94.628 125.089,91.289 131,91.289C136.911,91.289 142.314,94.628 144.958,99.915C150.602,111.204 157.15,124.301 162.987,135.974C166.417,142.834 166.051,150.981 162.018,157.505C157.986,164.029 150.864,168 143.194,168C134.155,168 124.499,168 115.626,168C108.637,168 102.147,164.382 98.473,158.437C94.799,152.492 94.465,145.069 97.591,138.819C103.769,126.463 110.935,112.13 117.042,99.915Z" style="fill:rgb(229,57,53);"/>
            </g>
            <g transform="matrix(0.839239,-0.543763,0.543763,0.839239,494.642,405.598)">
                <path d="M117.042,99.915C119.686,94.628 125.089,91.289 131,91.289C136.911,91.289 142.314,94.628 144.958,99.915C150.602,111.204 157.15,124.301 162.987,135.974C166.417,142.834 166.051,150.981 162.018,157.505C157.986,164.029 150.864,168 143.194,168C134.155,168 124.499,168 115.626,168C108.637,168 102.147,164.382 98.473,158.437C94.799,152.492 94.465,145.069 97.591,138.819C103.769,126.463 110.935,112.13 117.042,99.915Z" style="fill:rgb(229,57,53);"/>
            </g>
        </g>
        <g id="Protein-12" serif:id="Protein 1" transform="matrix(0.193822,0,0,0.193822,394.576,370.888)">
            <g transform="matrix(1,0,0,1,-47,-75)">
                <circle cx="120.5" cy="138.5" r="38.5" style="fill:rgb(124,179,66);"/>
            </g>
            <g transform="matrix(1,0,0,1,9,-26)">
                <circle cx="120.5" cy="138.5" r="38.5" style="fill:rgb(124,179,66);"/>
            </g>
            <g transform="matrix(1,0,0,1,47.5,37)">
                <circle cx="120.5" cy="138.5" r="38.5" style="fill:rgb(124,179,66);"/>
            </g>
            <g transform="matrix(1,0,0,1,86,101)">
                <circle cx="120.5" cy="138.5" r="38.5" style="fill:rgb(124,179,66);"/>
            </g>
            <g transform="matrix(1,0,0,1,156,114)">
                <circle cx="120.5" cy="138.5" r="38.5" style="fill:rgb(124,179,66);"/>
            </g>
            <g transform="matrix(1,0,0,1,220,75.5)">
                <circle cx="120.5" cy="138.5" r="38.5" style="fill:rgb(124,179,66);"/>
            </g>
            <g transform="matrix(1,0,0,1,287,91.5)">
                <circle cx="120.5" cy="138.5" r="38.5" style="fill:rgb(124,179,66);"/>
            </g>
        </g>
    </g>
    <g transform="matrix(1,0,0,1,-10.3542,21.3251)">
        <text x="237.113px" y="144.767px" style="font-family:'Roboto-Regular', 'Roboto';font-size:26.667px;fill:rgb(84,110,122);">Pr<tspan x="262.699px " y="144.767px ">o</tspan>teome</text>
    </g>
    <g transform="matrix(1,0,0,1,-10.3542,277.719)">
        <text x="261.292px" y="144.767px" style="font-family:'Roboto-Regular', 'Roboto';font-size:26.667px;fill:rgb(84,110,122);">Meta-</text>
        <text x="238.044px" y="171.434px" style="font-family:'Roboto-Regular', 'Roboto';font-size:26.667px;fill:rgb(84,110,122);">pr<tspan x="261.768px " y="171.434px ">o</tspan>teome</text>
    </g>
    <g transform="matrix(1,0,0,1,-118.082,-17.2552)">
        <path d="M335,132.9L335,109.1L437.022,109.1L437.022,87L471.022,121L437.022,155L437.022,132.9L335,132.9Z" style="fill:rgb(84,110,122);"/>
    </g>
    <g transform="matrix(1,0,0,1,-118.082,239.15)">
        <path d="M335,132.9L335,109.1L437.022,109.1L437.022,87L471.022,121L437.022,155L437.022,132.9L335,132.9Z" style="fill:rgb(84,110,122);"/>
    </g>
    <path d="M99.191,229.671L470.667,229.671" style="fill:none;stroke:rgb(84,110,122);stroke-width:5.33px;"/>
</svg>
