<?xml version="1.0" encoding="UTF-8" standalone="no"?>
<!DOCTYPE svg PUBLIC "-//W3C//DTD SVG 1.1//EN" "http://www.w3.org/Graphics/SVG/1.1/DTD/svg11.dtd">
<svg width="100%" height="100%" viewBox="0 0 926 279" version="1.1" xmlns="http://www.w3.org/2000/svg" xmlns:xlink="http://www.w3.org/1999/xlink" xml:space="preserve" xmlns:serif="http://www.serif.com/" style="fill-rule:evenodd;clip-rule:evenodd;stroke-linecap:round;stroke-linejoin:round;stroke-miterlimit:1.5;">
    <g>
        <g transform="matrix(0.14944,0,0,0.14944,6.14447,17.2091)">
            <path d="M472.66,534.83C468.641,534.83 465.375,531.572 465.375,527.549L465.191,199.339C465.191,195.319 468.449,192.054 472.472,192.054L472.476,192.054C476.496,192.054 479.762,195.311 479.762,199.335L479.945,527.545C479.945,531.572 476.687,534.834 472.66,534.834L472.66,534.83Z" style="fill:rgb(84,110,122);fill-rule:nonzero;"/>
            <path d="M491.4,534.83C487.373,534.83 484.115,531.572 484.115,527.545L484.115,515.873C484.115,511.845 487.373,508.588 491.4,508.588C495.427,508.588 498.685,511.845 498.685,515.873L498.685,527.545C498.689,531.572 495.427,534.83 491.4,534.83Z" style="fill:rgb(84,110,122);fill-rule:nonzero;"/>
            <path d="M510.15,534.83C506.123,534.83 502.865,531.572 502.865,527.545L502.865,450.166C502.865,446.138 506.123,442.881 510.15,442.881C514.177,442.881 517.435,446.138 517.435,450.166L517.435,527.545C517.435,531.572 514.177,534.83 510.15,534.83Z" style="fill:rgb(84,110,122);fill-rule:nonzero;"/>
            <path d="M528.59,534.83C524.563,534.83 521.305,531.572 521.305,527.545L521.305,513.479C521.305,509.451 524.563,506.194 528.59,506.194C532.617,506.194 535.875,509.451 535.875,513.479L535.875,527.545C535.875,531.572 532.617,534.83 528.59,534.83Z" style="fill:rgb(84,110,122);fill-rule:nonzero;"/>
            <path d="M103.04,539.95C97.849,539.95 93.638,535.743 93.638,530.548L93.638,26.148C93.638,20.956 97.849,16.745 103.04,16.745C108.231,16.745 112.442,20.956 112.442,26.148L112.442,530.548C112.442,535.747 108.231,539.95 103.04,539.95Z" style="fill:rgb(84,110,122);fill-rule:nonzero;"/>
            <path d="M596.96,539.95L103.04,539.95C97.849,539.95 93.638,535.739 93.638,530.544C93.638,525.349 97.849,521.138 103.04,521.138L596.96,521.138C602.155,521.138 606.362,525.349 606.362,530.544C606.362,535.739 602.155,539.95 596.96,539.95Z" style="fill:rgb(84,110,122);fill-rule:nonzero;"/>
            <path d="M135.23,534.83C131.211,534.83 127.945,531.572 127.945,527.545L127.941,499.404C127.941,495.376 131.206,492.119 135.226,492.119C139.246,492.119 142.511,495.376 142.511,499.404L142.511,527.545C142.515,531.572 139.25,534.83 135.23,534.83L135.23,534.83Z" style="fill:rgb(84,110,122);fill-rule:nonzero;"/>
            <path d="M153.98,534.83C149.961,534.83 146.695,531.572 146.695,527.545L146.695,513.479C146.695,509.451 149.96,506.194 153.98,506.194C158,506.194 161.265,509.451 161.265,513.479L161.265,527.545C161.257,531.572 158,534.83 153.98,534.83Z" style="fill:rgb(84,110,122);fill-rule:nonzero;"/>
            <path d="M172.72,534.83C168.701,534.83 165.435,531.572 165.435,527.545L165.431,328.225C165.431,324.198 168.696,320.94 172.716,320.94C176.736,320.94 180.001,324.197 180.001,328.225L180.001,527.555C180.005,531.574 176.74,534.832 172.72,534.832L172.72,534.83Z" style="fill:rgb(84,110,122);fill-rule:nonzero;"/>
            <path d="M191.51,534.83C187.491,534.83 184.225,531.572 184.225,527.545L184.225,239.025C184.225,235.005 187.49,231.74 191.51,231.74C195.529,231.74 198.795,235.005 198.795,239.025L198.795,527.545C198.795,531.564 195.537,534.822 191.51,534.822L191.51,534.83Z" style="fill:rgb(84,110,122);fill-rule:nonzero;"/>
            <path d="M210.26,534.83C206.241,534.83 202.975,531.572 202.975,527.545L202.975,477.693C202.975,473.666 206.24,470.408 210.26,470.408C214.28,470.408 217.545,473.665 217.545,477.693L217.545,527.545C217.545,531.572 214.284,534.83 210.26,534.83Z" style="fill:rgb(84,110,122);fill-rule:nonzero;"/>
            <path d="M229.04,534.83C225.021,534.83 221.755,531.572 221.755,527.545L221.755,478.291C221.755,474.263 225.02,471.006 229.04,471.006C233.059,471.006 236.325,474.263 236.325,478.291L236.325,527.545C236.325,531.572 233.06,534.83 229.04,534.83Z" style="fill:rgb(84,110,122);fill-rule:nonzero;"/>
            <path d="M247.78,534.83C243.761,534.83 240.495,531.572 240.495,527.545L240.495,502.943C240.495,498.916 243.76,495.658 247.78,495.658C251.8,495.658 255.065,498.915 255.065,502.943L255.065,527.545C255.069,531.572 251.804,534.83 247.78,534.83Z" style="fill:rgb(84,110,122);fill-rule:nonzero;"/>
            <path d="M266.55,534.83C262.531,534.83 259.265,531.572 259.265,527.545L259.265,502.943C259.265,498.916 262.53,495.658 266.55,495.658C270.57,495.658 273.835,498.915 273.835,502.943L273.835,527.545C273.831,531.572 270.573,534.83 266.55,534.83Z" style="fill:rgb(84,110,122);fill-rule:nonzero;"/>
            <path d="M285.29,534.83C281.271,534.83 278.005,531.572 278.005,527.545L278.005,513.479C278.005,509.451 281.27,506.194 285.29,506.194C289.31,506.194 292.575,509.451 292.575,513.479L292.575,527.545C292.575,531.572 289.313,534.83 285.29,534.83Z" style="fill:rgb(84,110,122);fill-rule:nonzero;"/>
            <path d="M304.07,534.83C300.051,534.83 296.785,531.572 296.785,527.545L296.785,502.943C296.785,498.916 300.05,495.658 304.07,495.658C308.09,495.658 311.355,498.915 311.355,502.943L311.355,527.545C311.355,531.572 308.09,534.83 304.07,534.83Z" style="fill:rgb(84,110,122);fill-rule:nonzero;"/>
            <path d="M323.16,534.83C319.141,534.83 315.875,531.572 315.875,527.545L315.875,70.055C315.875,66.035 319.14,62.77 323.16,62.77C327.18,62.77 330.445,66.035 330.445,70.055L330.445,527.555C330.445,531.578 327.18,534.836 323.16,534.836L323.16,534.83Z" style="fill:rgb(84,110,122);fill-rule:nonzero;"/>
            <path d="M341.92,534.83C337.932,534.83 334.678,531.615 334.639,527.619L334.447,508.26C334.408,504.233 337.639,500.94 341.658,500.909C345.748,501.065 348.979,504.1 349.01,508.119L349.201,527.478C349.24,531.506 346.01,534.799 341.99,534.83L341.92,534.83Z" style="fill:rgb(84,110,122);fill-rule:nonzero;"/>
            <path d="M360.67,534.83C356.651,534.83 353.385,531.572 353.385,527.545L353.385,203.695C353.385,199.675 356.65,196.41 360.67,196.41C364.697,196.41 367.955,199.675 367.955,203.695L367.955,527.555C367.955,531.574 364.697,534.832 360.67,534.832L360.67,534.83Z" style="fill:rgb(84,110,122);fill-rule:nonzero;"/>
            <path d="M379.43,534.83C375.403,534.83 372.145,531.572 372.145,527.545L372.145,450.166C372.145,446.138 375.403,442.881 379.43,442.881C383.457,442.881 386.715,446.138 386.715,450.166L386.715,527.545C386.715,531.572 383.457,534.83 379.43,534.83Z" style="fill:rgb(84,110,122);fill-rule:nonzero;"/>
            <path d="M435.37,534.83C431.343,534.83 428.085,531.572 428.085,527.545L428.085,502.943C428.085,498.916 431.343,495.658 435.37,495.658C439.397,495.658 442.655,498.915 442.655,502.943L442.655,527.545C442.651,531.572 439.393,534.83 435.37,534.83Z" style="fill:rgb(84,110,122);fill-rule:nonzero;"/>
            <path d="M397.86,534.83C393.833,534.83 390.575,531.572 390.575,527.545L390.575,513.479C390.575,509.451 393.833,506.194 397.86,506.194C401.887,506.194 405.145,509.451 405.145,513.479L405.145,527.545C405.145,531.572 401.887,534.83 397.86,534.83Z" style="fill:rgb(84,110,122);fill-rule:nonzero;"/>
            <path d="M453.9,534.83C449.873,534.83 446.615,531.572 446.615,527.545L446.611,345.145C446.611,341.118 449.869,337.86 453.896,337.86C457.923,337.86 461.181,341.117 461.181,345.145L461.181,527.545C461.185,531.572 457.923,534.83 453.9,534.83L453.9,534.83Z" style="fill:rgb(84,110,122);fill-rule:nonzero;"/>
            <path d="M416.64,534.83C412.613,534.83 409.355,531.572 409.355,527.545L409.355,513.479C409.355,509.451 412.613,506.194 416.64,506.194C420.667,506.194 423.925,509.451 423.925,513.479L423.925,527.545C423.925,531.572 420.667,534.83 416.64,534.83Z" style="fill:rgb(84,110,122);fill-rule:nonzero;"/>
        </g>
        <g transform="matrix(0.14944,0,0,0.14944,81.0313,107.209)">
            <path d="M472.66,534.83C468.641,534.83 465.375,531.572 465.375,527.549L465.191,199.339C465.191,195.319 468.449,192.054 472.472,192.054L472.476,192.054C476.496,192.054 479.762,195.311 479.762,199.335L479.945,527.545C479.945,531.572 476.687,534.834 472.66,534.834L472.66,534.83Z" style="fill:rgb(84,110,122);fill-rule:nonzero;"/>
            <path d="M491.4,534.83C487.373,534.83 484.115,531.572 484.115,527.545L484.115,515.873C484.115,511.845 487.373,508.588 491.4,508.588C495.427,508.588 498.685,511.845 498.685,515.873L498.685,527.545C498.689,531.572 495.427,534.83 491.4,534.83Z" style="fill:rgb(84,110,122);fill-rule:nonzero;"/>
            <path d="M510.15,534.83C506.123,534.83 502.865,531.572 502.865,527.545L502.865,450.166C502.865,446.138 506.123,442.881 510.15,442.881C514.177,442.881 517.435,446.138 517.435,450.166L517.435,527.545C517.435,531.572 514.177,534.83 510.15,534.83Z" style="fill:rgb(84,110,122);fill-rule:nonzero;"/>
            <path d="M528.59,534.83C524.563,534.83 521.305,531.572 521.305,527.545L521.305,513.479C521.305,509.451 524.563,506.194 528.59,506.194C532.617,506.194 535.875,509.451 535.875,513.479L535.875,527.545C535.875,531.572 532.617,534.83 528.59,534.83Z" style="fill:rgb(84,110,122);fill-rule:nonzero;"/>
            <path d="M103.04,539.95C97.849,539.95 93.638,535.743 93.638,530.548L93.638,26.148C93.638,20.956 97.849,16.745 103.04,16.745C108.231,16.745 112.442,20.956 112.442,26.148L112.442,530.548C112.442,535.747 108.231,539.95 103.04,539.95Z" style="fill:rgb(84,110,122);fill-rule:nonzero;"/>
            <path d="M596.96,539.95L103.04,539.95C97.849,539.95 93.638,535.739 93.638,530.544C93.638,525.349 97.849,521.138 103.04,521.138L596.96,521.138C602.155,521.138 606.362,525.349 606.362,530.544C606.362,535.739 602.155,539.95 596.96,539.95Z" style="fill:rgb(84,110,122);fill-rule:nonzero;"/>
            <path d="M135.23,534.83C131.211,534.83 127.945,531.572 127.945,527.545L127.941,499.404C127.941,495.376 131.206,492.119 135.226,492.119C139.246,492.119 142.511,495.376 142.511,499.404L142.511,527.545C142.515,531.572 139.25,534.83 135.23,534.83L135.23,534.83Z" style="fill:rgb(84,110,122);fill-rule:nonzero;"/>
            <path d="M153.98,534.83C149.961,534.83 146.695,531.572 146.695,527.545L146.695,513.479C146.695,509.451 149.96,506.194 153.98,506.194C158,506.194 161.265,509.451 161.265,513.479L161.265,527.545C161.257,531.572 158,534.83 153.98,534.83Z" style="fill:rgb(84,110,122);fill-rule:nonzero;"/>
            <path d="M172.72,534.83C168.701,534.83 165.435,531.572 165.435,527.545L165.431,328.225C165.431,324.198 168.696,320.94 172.716,320.94C176.736,320.94 180.001,324.197 180.001,328.225L180.001,527.555C180.005,531.574 176.74,534.832 172.72,534.832L172.72,534.83Z" style="fill:rgb(84,110,122);fill-rule:nonzero;"/>
            <path d="M191.51,534.83C187.491,534.83 184.225,531.572 184.225,527.545L184.225,239.025C184.225,235.005 187.49,231.74 191.51,231.74C195.529,231.74 198.795,235.005 198.795,239.025L198.795,527.545C198.795,531.564 195.537,534.822 191.51,534.822L191.51,534.83Z" style="fill:rgb(84,110,122);fill-rule:nonzero;"/>
            <path d="M210.26,534.83C206.241,534.83 202.975,531.572 202.975,527.545L202.975,477.693C202.975,473.666 206.24,470.408 210.26,470.408C214.28,470.408 217.545,473.665 217.545,477.693L217.545,527.545C217.545,531.572 214.284,534.83 210.26,534.83Z" style="fill:rgb(84,110,122);fill-rule:nonzero;"/>
            <path d="M229.04,534.83C225.021,534.83 221.755,531.572 221.755,527.545L221.755,478.291C221.755,474.263 225.02,471.006 229.04,471.006C233.059,471.006 236.325,474.263 236.325,478.291L236.325,527.545C236.325,531.572 233.06,534.83 229.04,534.83Z" style="fill:rgb(84,110,122);fill-rule:nonzero;"/>
            <path d="M247.78,534.83C243.761,534.83 240.495,531.572 240.495,527.545L240.495,502.943C240.495,498.916 243.76,495.658 247.78,495.658C251.8,495.658 255.065,498.915 255.065,502.943L255.065,527.545C255.069,531.572 251.804,534.83 247.78,534.83Z" style="fill:rgb(84,110,122);fill-rule:nonzero;"/>
            <path d="M266.55,534.83C262.531,534.83 259.265,531.572 259.265,527.545L259.265,502.943C259.265,498.916 262.53,495.658 266.55,495.658C270.57,495.658 273.835,498.915 273.835,502.943L273.835,527.545C273.831,531.572 270.573,534.83 266.55,534.83Z" style="fill:rgb(84,110,122);fill-rule:nonzero;"/>
            <path d="M285.29,534.83C281.271,534.83 278.005,531.572 278.005,527.545L278.005,513.479C278.005,509.451 281.27,506.194 285.29,506.194C289.31,506.194 292.575,509.451 292.575,513.479L292.575,527.545C292.575,531.572 289.313,534.83 285.29,534.83Z" style="fill:rgb(84,110,122);fill-rule:nonzero;"/>
            <path d="M304.07,534.83C300.051,534.83 296.785,531.572 296.785,527.545L296.785,502.943C296.785,498.916 300.05,495.658 304.07,495.658C308.09,495.658 311.355,498.915 311.355,502.943L311.355,527.545C311.355,531.572 308.09,534.83 304.07,534.83Z" style="fill:rgb(84,110,122);fill-rule:nonzero;"/>
            <path d="M323.16,534.83C319.141,534.83 315.875,531.572 315.875,527.545L315.875,70.055C315.875,66.035 319.14,62.77 323.16,62.77C327.18,62.77 330.445,66.035 330.445,70.055L330.445,527.555C330.445,531.578 327.18,534.836 323.16,534.836L323.16,534.83Z" style="fill:rgb(84,110,122);fill-rule:nonzero;"/>
            <path d="M341.92,534.83C337.932,534.83 334.678,531.615 334.639,527.619L334.447,508.26C334.408,504.233 337.639,500.94 341.658,500.909C345.748,501.065 348.979,504.1 349.01,508.119L349.201,527.478C349.24,531.506 346.01,534.799 341.99,534.83L341.92,534.83Z" style="fill:rgb(84,110,122);fill-rule:nonzero;"/>
            <path d="M360.67,534.83C356.651,534.83 353.385,531.572 353.385,527.545L353.385,203.695C353.385,199.675 356.65,196.41 360.67,196.41C364.697,196.41 367.955,199.675 367.955,203.695L367.955,527.555C367.955,531.574 364.697,534.832 360.67,534.832L360.67,534.83Z" style="fill:rgb(84,110,122);fill-rule:nonzero;"/>
            <path d="M379.43,534.83C375.403,534.83 372.145,531.572 372.145,527.545L372.145,450.166C372.145,446.138 375.403,442.881 379.43,442.881C383.457,442.881 386.715,446.138 386.715,450.166L386.715,527.545C386.715,531.572 383.457,534.83 379.43,534.83Z" style="fill:rgb(84,110,122);fill-rule:nonzero;"/>
            <path d="M435.37,534.83C431.343,534.83 428.085,531.572 428.085,527.545L428.085,502.943C428.085,498.916 431.343,495.658 435.37,495.658C439.397,495.658 442.655,498.915 442.655,502.943L442.655,527.545C442.651,531.572 439.393,534.83 435.37,534.83Z" style="fill:rgb(84,110,122);fill-rule:nonzero;"/>
            <path d="M397.86,534.83C393.833,534.83 390.575,531.572 390.575,527.545L390.575,513.479C390.575,509.451 393.833,506.194 397.86,506.194C401.887,506.194 405.145,509.451 405.145,513.479L405.145,527.545C405.145,531.572 401.887,534.83 397.86,534.83Z" style="fill:rgb(84,110,122);fill-rule:nonzero;"/>
            <path d="M453.9,534.83C449.873,534.83 446.615,531.572 446.615,527.545L446.611,345.145C446.611,341.118 449.869,337.86 453.896,337.86C457.923,337.86 461.181,341.117 461.181,345.145L461.181,527.545C461.185,531.572 457.923,534.83 453.9,534.83L453.9,534.83Z" style="fill:rgb(84,110,122);fill-rule:nonzero;"/>
            <path d="M416.64,534.83C412.613,534.83 409.355,531.572 409.355,527.545L409.355,513.479C409.355,509.451 412.613,506.194 416.64,506.194C420.667,506.194 423.925,509.451 423.925,513.479L423.925,527.545C423.925,531.572 420.667,534.83 416.64,534.83Z" style="fill:rgb(84,110,122);fill-rule:nonzero;"/>
        </g>
        <g transform="matrix(0.14944,0,0,0.14944,6.14447,174.209)">
            <path d="M472.66,534.83C468.641,534.83 465.375,531.572 465.375,527.549L465.191,199.339C465.191,195.319 468.449,192.054 472.472,192.054L472.476,192.054C476.496,192.054 479.762,195.311 479.762,199.335L479.945,527.545C479.945,531.572 476.687,534.834 472.66,534.834L472.66,534.83Z" style="fill:rgb(84,110,122);fill-rule:nonzero;"/>
            <path d="M491.4,534.83C487.373,534.83 484.115,531.572 484.115,527.545L484.115,515.873C484.115,511.845 487.373,508.588 491.4,508.588C495.427,508.588 498.685,511.845 498.685,515.873L498.685,527.545C498.689,531.572 495.427,534.83 491.4,534.83Z" style="fill:rgb(84,110,122);fill-rule:nonzero;"/>
            <path d="M510.15,534.83C506.123,534.83 502.865,531.572 502.865,527.545L502.865,450.166C502.865,446.138 506.123,442.881 510.15,442.881C514.177,442.881 517.435,446.138 517.435,450.166L517.435,527.545C517.435,531.572 514.177,534.83 510.15,534.83Z" style="fill:rgb(84,110,122);fill-rule:nonzero;"/>
            <path d="M528.59,534.83C524.563,534.83 521.305,531.572 521.305,527.545L521.305,513.479C521.305,509.451 524.563,506.194 528.59,506.194C532.617,506.194 535.875,509.451 535.875,513.479L535.875,527.545C535.875,531.572 532.617,534.83 528.59,534.83Z" style="fill:rgb(84,110,122);fill-rule:nonzero;"/>
            <path d="M103.04,539.95C97.849,539.95 93.638,535.743 93.638,530.548L93.638,26.148C93.638,20.956 97.849,16.745 103.04,16.745C108.231,16.745 112.442,20.956 112.442,26.148L112.442,530.548C112.442,535.747 108.231,539.95 103.04,539.95Z" style="fill:rgb(84,110,122);fill-rule:nonzero;"/>
            <path d="M596.96,539.95L103.04,539.95C97.849,539.95 93.638,535.739 93.638,530.544C93.638,525.349 97.849,521.138 103.04,521.138L596.96,521.138C602.155,521.138 606.362,525.349 606.362,530.544C606.362,535.739 602.155,539.95 596.96,539.95Z" style="fill:rgb(84,110,122);fill-rule:nonzero;"/>
            <path d="M135.23,534.83C131.211,534.83 127.945,531.572 127.945,527.545L127.941,499.404C127.941,495.376 131.206,492.119 135.226,492.119C139.246,492.119 142.511,495.376 142.511,499.404L142.511,527.545C142.515,531.572 139.25,534.83 135.23,534.83L135.23,534.83Z" style="fill:rgb(84,110,122);fill-rule:nonzero;"/>
            <path d="M153.98,534.83C149.961,534.83 146.695,531.572 146.695,527.545L146.695,513.479C146.695,509.451 149.96,506.194 153.98,506.194C158,506.194 161.265,509.451 161.265,513.479L161.265,527.545C161.257,531.572 158,534.83 153.98,534.83Z" style="fill:rgb(84,110,122);fill-rule:nonzero;"/>
            <path d="M172.72,534.83C168.701,534.83 165.435,531.572 165.435,527.545L165.431,328.225C165.431,324.198 168.696,320.94 172.716,320.94C176.736,320.94 180.001,324.197 180.001,328.225L180.001,527.555C180.005,531.574 176.74,534.832 172.72,534.832L172.72,534.83Z" style="fill:rgb(84,110,122);fill-rule:nonzero;"/>
            <path d="M191.51,534.83C187.491,534.83 184.225,531.572 184.225,527.545L184.225,239.025C184.225,235.005 187.49,231.74 191.51,231.74C195.529,231.74 198.795,235.005 198.795,239.025L198.795,527.545C198.795,531.564 195.537,534.822 191.51,534.822L191.51,534.83Z" style="fill:rgb(84,110,122);fill-rule:nonzero;"/>
            <path d="M210.26,534.83C206.241,534.83 202.975,531.572 202.975,527.545L202.975,477.693C202.975,473.666 206.24,470.408 210.26,470.408C214.28,470.408 217.545,473.665 217.545,477.693L217.545,527.545C217.545,531.572 214.284,534.83 210.26,534.83Z" style="fill:rgb(84,110,122);fill-rule:nonzero;"/>
            <path d="M229.04,534.83C225.021,534.83 221.755,531.572 221.755,527.545L221.755,478.291C221.755,474.263 225.02,471.006 229.04,471.006C233.059,471.006 236.325,474.263 236.325,478.291L236.325,527.545C236.325,531.572 233.06,534.83 229.04,534.83Z" style="fill:rgb(84,110,122);fill-rule:nonzero;"/>
            <path d="M247.78,534.83C243.761,534.83 240.495,531.572 240.495,527.545L240.495,502.943C240.495,498.916 243.76,495.658 247.78,495.658C251.8,495.658 255.065,498.915 255.065,502.943L255.065,527.545C255.069,531.572 251.804,534.83 247.78,534.83Z" style="fill:rgb(84,110,122);fill-rule:nonzero;"/>
            <path d="M266.55,534.83C262.531,534.83 259.265,531.572 259.265,527.545L259.265,502.943C259.265,498.916 262.53,495.658 266.55,495.658C270.57,495.658 273.835,498.915 273.835,502.943L273.835,527.545C273.831,531.572 270.573,534.83 266.55,534.83Z" style="fill:rgb(84,110,122);fill-rule:nonzero;"/>
            <path d="M285.29,534.83C281.271,534.83 278.005,531.572 278.005,527.545L278.005,513.479C278.005,509.451 281.27,506.194 285.29,506.194C289.31,506.194 292.575,509.451 292.575,513.479L292.575,527.545C292.575,531.572 289.313,534.83 285.29,534.83Z" style="fill:rgb(84,110,122);fill-rule:nonzero;"/>
            <path d="M304.07,534.83C300.051,534.83 296.785,531.572 296.785,527.545L296.785,502.943C296.785,498.916 300.05,495.658 304.07,495.658C308.09,495.658 311.355,498.915 311.355,502.943L311.355,527.545C311.355,531.572 308.09,534.83 304.07,534.83Z" style="fill:rgb(84,110,122);fill-rule:nonzero;"/>
            <path d="M323.16,534.83C319.141,534.83 315.875,531.572 315.875,527.545L315.875,70.055C315.875,66.035 319.14,62.77 323.16,62.77C327.18,62.77 330.445,66.035 330.445,70.055L330.445,527.555C330.445,531.578 327.18,534.836 323.16,534.836L323.16,534.83Z" style="fill:rgb(84,110,122);fill-rule:nonzero;"/>
            <path d="M341.92,534.83C337.932,534.83 334.678,531.615 334.639,527.619L334.447,508.26C334.408,504.233 337.639,500.94 341.658,500.909C345.748,501.065 348.979,504.1 349.01,508.119L349.201,527.478C349.24,531.506 346.01,534.799 341.99,534.83L341.92,534.83Z" style="fill:rgb(84,110,122);fill-rule:nonzero;"/>
            <path d="M360.67,534.83C356.651,534.83 353.385,531.572 353.385,527.545L353.385,203.695C353.385,199.675 356.65,196.41 360.67,196.41C364.697,196.41 367.955,199.675 367.955,203.695L367.955,527.555C367.955,531.574 364.697,534.832 360.67,534.832L360.67,534.83Z" style="fill:rgb(84,110,122);fill-rule:nonzero;"/>
            <path d="M379.43,534.83C375.403,534.83 372.145,531.572 372.145,527.545L372.145,450.166C372.145,446.138 375.403,442.881 379.43,442.881C383.457,442.881 386.715,446.138 386.715,450.166L386.715,527.545C386.715,531.572 383.457,534.83 379.43,534.83Z" style="fill:rgb(84,110,122);fill-rule:nonzero;"/>
            <path d="M435.37,534.83C431.343,534.83 428.085,531.572 428.085,527.545L428.085,502.943C428.085,498.916 431.343,495.658 435.37,495.658C439.397,495.658 442.655,498.915 442.655,502.943L442.655,527.545C442.651,531.572 439.393,534.83 435.37,534.83Z" style="fill:rgb(84,110,122);fill-rule:nonzero;"/>
            <path d="M397.86,534.83C393.833,534.83 390.575,531.572 390.575,527.545L390.575,513.479C390.575,509.451 393.833,506.194 397.86,506.194C401.887,506.194 405.145,509.451 405.145,513.479L405.145,527.545C405.145,531.572 401.887,534.83 397.86,534.83Z" style="fill:rgb(84,110,122);fill-rule:nonzero;"/>
            <path d="M453.9,534.83C449.873,534.83 446.615,531.572 446.615,527.545L446.611,345.145C446.611,341.118 449.869,337.86 453.896,337.86C457.923,337.86 461.181,341.117 461.181,345.145L461.181,527.545C461.185,531.572 457.923,534.83 453.9,534.83L453.9,534.83Z" style="fill:rgb(84,110,122);fill-rule:nonzero;"/>
            <path d="M416.64,534.83C412.613,534.83 409.355,531.572 409.355,527.545L409.355,513.479C409.355,509.451 412.613,506.194 416.64,506.194C420.667,506.194 423.925,509.451 423.925,513.479L423.925,527.545C423.925,531.572 420.667,534.83 416.64,534.83Z" style="fill:rgb(84,110,122);fill-rule:nonzero;"/>
        </g>
        <g transform="matrix(0.493634,0,0,0.569388,-77.7474,-19.9286)">
            <path d="M183.75,35C169.254,35 157.5,46.754 157.5,61.25L157.5,498.75C157.5,513.246 169.254,525 183.75,525L516.25,525C530.746,525 542.5,513.246 542.5,498.75L542.5,148.75C542.5,146.43 541.578,144.203 539.938,142.563L434.938,37.563C433.297,35.922 431.07,35 428.75,35L183.75,35ZM175,61.25C175,56.418 178.918,52.5 183.75,52.5L420,52.5L420,131.25C420,145.746 431.754,157.5 446.25,157.5L525,157.5L525,498.75C525,503.582 521.082,507.5 516.25,507.5L183.75,507.5C178.918,507.5 175,503.582 175,498.75L175,61.25ZM512.62,140L437.495,64.875L437.495,131.25C437.495,136.082 441.413,140 446.245,140L512.62,140Z" style="fill:rgb(84,110,122);"/>
        </g>
    </g>
    <g transform="matrix(1,0,0,1,-133.286,-68.1007)">
        <path d="M344,237.85L344,216.15L409,216.15L409,196L440,227L409,258L409,237.85L344,237.85Z" style="fill:rgb(84,110,122);stroke:rgb(84,110,122);stroke-width:4px;"/>
    </g>
    <g transform="matrix(1,0,0,1,194.092,-68.1007)">
        <path d="M344,237.85L344,216.15L409,216.15L409,196L440,227L409,258L409,237.85L344,237.85Z" style="fill:rgb(84,110,122);stroke:rgb(84,110,122);stroke-width:4px;"/>
    </g>
    <g transform="matrix(0.493634,0,0,0.569388,249.631,-19.9286)">
        <path d="M183.75,35C169.254,35 157.5,46.754 157.5,61.25L157.5,498.75C157.5,513.246 169.254,525 183.75,525L516.25,525C530.746,525 542.5,513.246 542.5,498.75L542.5,148.75C542.5,146.43 541.578,144.203 539.938,142.563L434.938,37.563C433.297,35.922 431.07,35 428.75,35L183.75,35ZM175,61.25C175,56.418 178.918,52.5 183.75,52.5L420,52.5L420,131.25C420,145.746 431.754,157.5 446.25,157.5L525,157.5L525,498.75C525,503.582 521.082,507.5 516.25,507.5L183.75,507.5C178.918,507.5 175,503.582 175,498.75L175,61.25ZM512.62,140L437.495,64.875L437.495,131.25C437.495,136.082 441.413,140 446.245,140L512.62,140Z" style="fill:rgb(84,110,122);"/>
    </g>
    <g transform="matrix(1,0,0,1,2,8)">
        <text x="337px" y="29px" style="font-family:'Roboto-Regular', 'Roboto';font-size:24px;fill:rgb(84,110,122);">MDGTEYR</text>
        <text x="337px" y="65px" style="font-family:'Roboto-Regular', 'Roboto';font-size:24px;fill:rgb(84,110,122);">KL<tspan x="365.184px 379.738px " y="65px 65px ">AY</tspan>EI<tspan x="414.531px " y="65px ">A</tspan>K</text>
        <text x="337px" y="101px" style="font-family:'Roboto-Regular', 'Roboto';font-size:24px;fill:rgb(84,110,122);">MEV<tspan x="385.984px 400.621px 415.738px " y="101px 101px 101px ">AVG</tspan>DK</text>
        <text x="337px" y="137px" style="font-family:'Roboto-Regular', 'Roboto';font-size:24px;fill:rgb(84,110,122);">AAEV<tspan x="396.344px 412px 422.863px 437.98px " y="137px 137px 137px 137px ">ALVG</tspan>TEK</text>
        <text x="337px" y="173px" style="font-family:'Roboto-Regular', 'Roboto';font-size:24px;fill:rgb(84,110,122);">IGSGL<tspan x="401.324px 416.441px " y="173px 173px ">VG</tspan>TMVR</text>
        <text x="337px" y="209px" style="font-family:'Roboto-Regular', 'Roboto';font-size:24px;fill:rgb(84,110,122);">EGGA<tspan x="397.973px " y="209px ">V</tspan>ENDIR</text>
        <text x="337px" y="245px" style="font-family:'Roboto-Regular', 'Roboto';font-size:24px;fill:rgb(84,110,122);">GISL<tspan x="387.25px " y="245px ">A</tspan>NWK</text>
    </g>
    <g transform="matrix(1,0,0,1,-74.3832,0)">
        <g transform="matrix(0.735697,0,0,0.735697,264.303,36.8703)">
            <g transform="matrix(0.922613,0,0,0.922613,495.2,-113.149)">
                <path d="M524.16,122.64L188.72,122.64C175.841,122.64 165.759,133.281 165.759,145.601L165.759,402.081C165.759,414.96 176.4,425.042 188.72,425.042L524.16,425.042C537.039,425.042 547.121,414.401 547.121,402.081L547.121,145.601C547.68,133.281 537.039,122.64 524.16,122.64ZM530.879,402.64C530.879,405.999 528.078,408.8 524.719,408.8L188.719,408.8C185.359,408.8 182.558,405.999 182.558,402.64L182.558,202.16L530.878,202.16L530.879,402.64ZM530.879,185.36L181.999,185.36L181.999,146.161C181.999,142.802 184.8,140.001 188.159,140.001L523.599,140.001C526.958,140.001 529.759,142.802 529.759,146.161L529.759,185.36L530.879,185.36Z" style="fill:rgb(84,110,122);fill-rule:nonzero;"/>
            </g>
            <g transform="matrix(0.922613,0,0,0.922613,495.2,-113.149)">
                <path d="M250.32,162.4C250.32,168.896 245.054,174.162 238.558,174.162C232.066,174.162 226.8,168.896 226.8,162.4C226.8,155.908 232.066,150.642 238.558,150.642C245.054,150.642 250.32,155.908 250.32,162.4" style="fill:rgb(84,110,122);fill-rule:nonzero;"/>
            </g>
            <g transform="matrix(0.922613,0,0,0.922613,495.2,-113.149)">
                <path d="M217.28,162.4C217.28,168.896 212.014,174.162 205.518,174.162C199.022,174.162 193.76,168.896 193.76,162.4C193.76,155.908 199.022,150.642 205.518,150.642C212.014,150.642 217.28,155.908 217.28,162.4" style="fill:rgb(84,110,122);fill-rule:nonzero;"/>
            </g>
            <g transform="matrix(0.922613,0,0,0.922613,495.2,-113.149)">
                <path d="M282.8,162.4C282.8,168.896 277.534,174.162 271.038,174.162C264.546,174.162 259.28,168.896 259.28,162.4C259.28,155.908 264.546,150.642 271.038,150.642C277.534,150.642 282.8,155.908 282.8,162.4" style="fill:rgb(84,110,122);fill-rule:nonzero;"/>
            </g>
        </g>
        <g id="BG" transform="matrix(0.210593,0,0,0.210593,817.917,106.251)">
            <path d="M500,51.014C500,22.858 477.142,0 448.986,0L51.014,0C22.858,0 0,22.858 0,51.014L0,448.986C0,477.142 22.858,500 51.014,500L448.986,500C477.142,500 500,477.142 500,448.986L500,51.014Z" style="fill:rgb(255,179,0);"/>
        </g>
    </g>
    <g id="U" transform="matrix(0.210593,0,0,0.210593,764.973,188.045)">
        <text x="0px" y="0px" style="font-family:'HelveticaNeue-Bold', 'Helvetica Neue';font-weight:700;font-size:400px;fill:white;">U</text>
    </g>
    <g transform="matrix(1,0,0,1,-20.6645,115.809)">
        <text x="542.929px" y="98px" style="font-family:'Roboto-Regular', 'Roboto';font-size:24px;fill:rgb(84,110,122);">Downstr<tspan x="631.746px " y="98px ">e</tspan>am</text>
        <text x="567.187px" y="122px" style="font-family:'Roboto-Regular', 'Roboto';font-size:24px;fill:rgb(84,110,122);">analysis</text>
    </g>
    <g transform="matrix(1,0,0,1,-332.026,115.809)">
        <text x="553.896px" y="98px" style="font-family:'Roboto-Regular', 'Roboto';font-size:24px;fill:rgb(84,110,122);">Sear<tspan x="601.802px " y="98px ">c</tspan>h</text>
        <text x="555.138px" y="122px" style="font-family:'Roboto-Regular', 'Roboto';font-size:24px;fill:rgb(84,110,122);">engine</text>
    </g>
</svg>
